<?xml version="1.0" standalone="no"?>
<!DOCTYPE svg PUBLIC "-//W3C//DTD SVG 20010904//EN"
 "http://www.w3.org/TR/2001/REC-SVG-20010904/DTD/svg10.dtd">
<svg version="1.0" xmlns="http://www.w3.org/2000/svg"
 width="478.000000pt" height="506.000000pt" viewBox="0 0 478.000000 506.000000"
 preserveAspectRatio="xMidYMid meet">

<g transform="translate(0.000000,506.000000) scale(0.100000,-0.100000)"
fill="#000000" stroke="none">
<path d="M1551 4868 c-27 -57 -51 -114 -54 -128 -6 -25 -7 -25 -98 -21 -101 3
-209 -14 -209 -35 0 -7 -25 -20 -57 -29 -119 -33 -160 -47 -231 -82 -77 -38
-95 -53 -63 -53 15 0 8 -11 -35 -51 -51 -49 -68 -79 -43 -79 26 0 -50 -55
-106 -77 -119 -47 -275 -128 -271 -140 3 -7 -32 -34 -82 -64 -48 -29 -111 -70
-139 -91 -52 -38 -68 -68 -38 -68 9 0 -11 -31 -50 -77 -36 -43 -65 -87 -65
-98 0 -16 5 -14 28 15 15 19 53 63 84 97 61 66 65 72 47 90 -11 11 97 89 211
151 30 16 60 39 65 51 10 23 96 71 126 71 10 0 20 4 23 9 3 4 34 18 68 30 109
38 137 52 131 67 -3 8 8 21 27 31 77 43 97 77 27 48 -20 -8 -42 -15 -49 -15
-16 0 88 97 112 105 10 3 20 14 23 24 7 28 84 54 335 114 36 8 40 12 30 24
-11 13 -1 15 74 12 48 -2 91 -8 97 -14 6 -6 6 -32 -1 -70 -9 -58 -6 -171 8
-247 6 -34 5 -37 -22 -40 -15 -2 -29 -8 -31 -15 -3 -8 6 -10 31 -6 20 3 36 4
36 1 0 -3 -26 -18 -57 -33 -114 -56 -233 -129 -233 -143 0 -14 41 -12 88 5 9
3 -3 -15 -27 -40 -25 -26 -42 -50 -38 -54 4 -4 25 -2 47 4 22 5 40 6 40 2 0
-5 -38 -52 -85 -106 -46 -54 -85 -104 -85 -111 0 -7 5 -10 10 -7 6 3 10 1 10
-6 0 -17 -119 -131 -215 -206 -138 -108 -131 -102 -116 -112 10 -6 -1 -16 -40
-37 -53 -29 -74 -54 -45 -54 33 0 14 -21 -41 -48 -35 -17 -57 -34 -56 -42 2
-8 -13 -25 -33 -38 -19 -12 -32 -27 -29 -32 8 -12 37 2 85 42 19 15 40 28 47
28 6 0 22 13 35 29 13 15 36 36 51 46 21 13 27 24 23 39 -4 17 6 28 54 60 33
21 60 42 60 47 0 15 -13 10 -53 -16 -68 -47 -38 -16 70 70 61 49 116 85 128
85 13 0 39 7 59 15 39 17 42 15 24 -15 -16 -26 -4 -36 27 -22 30 14 30 15 2
-50 -19 -42 -43 -69 -115 -131 -94 -79 -111 -103 -67 -95 41 8 18 -10 -73 -56
-48 -24 -114 -58 -147 -75 -33 -17 -68 -31 -78 -31 -12 0 -17 -6 -15 -17 3
-15 14 -18 61 -18 64 0 70 -9 31 -46 -35 -33 -49 -60 -35 -68 6 -4 -23 -41
-70 -89 -71 -74 -92 -113 -53 -98 25 10 15 -2 -21 -23 -34 -20 -48 -51 -22
-51 6 0 34 7 61 15 27 8 51 13 53 11 3 -2 -21 -23 -51 -46 -58 -44 -68 -60
-39 -60 12 0 1 -16 -35 -51 -63 -62 -68 -84 -17 -75 43 8 44 0 5 -44 -25 -30
-40 -70 -26 -70 3 0 37 15 78 34 110 51 151 67 156 62 2 -3 -7 -25 -22 -50
-41 -69 -35 -72 50 -21 31 19 59 33 62 31 2 -2 -7 -22 -20 -44 -26 -47 -20
-62 18 -38 33 22 38 17 19 -20 -18 -36 -19 -44 -2 -44 21 0 320 309 314 325
-6 13 40 52 50 42 2 -3 -5 -24 -16 -48 -12 -24 -26 -68 -31 -99 -5 -30 -18
-93 -29 -140 -10 -47 -24 -118 -31 -158 -8 -47 -19 -79 -31 -91 -16 -14 -19
-30 -18 -77 1 -32 -8 -95 -19 -139 -26 -107 -40 -209 -52 -395 -11 -170 -23
-259 -39 -289 -19 -35 -13 -296 9 -430 21 -121 57 -271 83 -346 12 -34 12 -48
2 -80 -7 -22 -18 -59 -24 -83 -9 -34 -16 -42 -28 -37 -9 3 -20 0 -25 -7 -5 -9
-8 -6 -8 10 0 30 -8 28 -47 -10 -28 -28 -33 -29 -33 -12 0 10 4 35 10 53 11
41 6 50 -20 33 -34 -21 -22 2 30 62 27 31 50 61 50 67 0 15 -32 10 -52 -8 -30
-27 -32 -7 -4 43 14 25 26 50 26 55 0 18 -31 8 -65 -22 -19 -17 -35 -27 -35
-21 0 5 25 46 55 91 30 45 55 88 55 96 0 31 -40 27 -95 -9 -62 -41 -105 -59
-65 -28 14 12 33 27 44 35 10 7 17 19 15 25 -3 8 -23 -2 -54 -24 -65 -47 -112
-70 -156 -78 -37 -6 -64 -27 -53 -39 4 -3 19 0 35 9 16 8 61 19 100 23 55 7
85 18 131 46 32 20 61 35 64 32 2 -2 -12 -28 -32 -57 -44 -64 -84 -148 -84
-177 0 -35 23 -33 48 4 13 19 26 33 28 31 2 -2 -5 -28 -16 -57 -11 -29 -18
-57 -14 -63 3 -5 -2 -27 -11 -49 -20 -44 -14 -59 15 -41 28 17 30 16 30 -25 0
-74 23 -110 36 -58 3 13 12 29 19 35 10 8 16 3 24 -22 l12 -33 14 25 c8 14 14
20 15 13 0 -6 -28 -48 -62 -93 -71 -92 -98 -131 -98 -143 0 -4 69 -6 153 -5
l152 3 3 85 c2 82 -24 296 -47 370 -5 19 -20 67 -31 105 -12 39 -28 93 -36
120 -45 151 -68 487 -40 572 9 27 25 148 36 278 20 233 33 336 49 377 4 13 11
44 15 70 8 52 41 88 81 88 12 0 29 10 37 22 15 22 17 22 69 9 85 -21 141 -41
177 -63 32 -20 33 -23 29 -67 -2 -25 -23 -116 -46 -201 -22 -85 -46 -175 -52
-200 -16 -60 -25 -228 -39 -700 -16 -560 -12 -630 52 -825 l13 -40 1629 -3
1629 -2 -5 80 c-4 66 -11 92 -41 154 -65 131 -178 208 -379 260 -197 51 -230
79 -392 336 -65 104 -177 154 -294 133 -51 -10 -61 -9 -92 9 -103 61 -184 99
-264 123 -75 23 -102 26 -182 23 -81 -3 -93 -1 -88 12 3 8 9 23 11 32 3 10 10
18 17 18 10 0 50 59 44 65 -2 2 -61 13 -133 25 -71 12 -134 25 -138 29 -12 12
-43 160 -62 296 -10 66 -21 134 -25 151 -4 17 -3 57 2 90 11 69 6 100 -27 183
-14 33 -25 75 -25 93 0 17 -6 39 -13 47 -15 18 -32 84 -47 186 -6 39 -22 93
-34 121 -29 64 -40 110 -28 118 5 3 7 29 4 58 l-5 52 28 -22 c15 -12 31 -22
35 -22 16 0 19 31 5 57 -18 34 -19 64 -3 61 9 -2 15 22 20 77 10 113 14 124
38 118 26 -7 25 -3 -7 76 -23 57 -26 80 -25 160 1 93 1 95 31 119 17 13 31 32
31 43 0 10 7 19 15 19 32 0 105 160 105 230 0 21 -6 43 -13 49 -11 9 -11 22 3
78 16 64 18 68 43 65 31 -4 32 -1 11 40 l-16 31 46 -7 c25 -4 46 -4 46 0 0 4
-25 33 -55 65 -30 32 -55 62 -55 68 0 8 18 9 55 5 68 -8 76 13 15 40 -45 20
-48 26 -20 51 23 21 18 35 -12 35 -29 0 -89 22 -86 31 2 4 19 18 38 31 20 13
36 34 38 47 4 22 2 23 -40 16 -77 -14 -73 -17 -70 60 4 104 -48 295 -81 295
-35 0 -135 -93 -182 -169 l-27 -44 -26 34 c-14 19 -50 57 -79 85 -87 81 -222
143 -153 69 28 -29 25 -30 -26 -9 -53 22 -168 54 -196 54 -16 0 -32 14 -52 47
-68 106 -199 233 -242 233 -20 0 -31 -15 -73 -102z m180 -5 c86 -91 186 -246
225 -351 30 -83 27 -91 -36 -92 -19 0 -46 -7 -60 -15 -30 -17 -160 -21 -160
-4 0 6 -9 24 -20 40 -49 68 -64 135 -64 284 1 156 8 215 28 215 7 0 47 -35 87
-77z m276 -214 c43 -12 109 -37 147 -56 71 -36 89 -36 68 -2 -12 18 -11 19 5
10 21 -11 75 -68 126 -132 30 -37 35 -49 24 -57 -8 -7 -18 -7 -27 -2 -20 13
-70 13 -70 0 0 -5 9 -10 20 -10 28 0 120 -42 155 -72 37 -30 62 -40 70 -28 9
15 52 12 87 -6 23 -12 47 -15 85 -11 63 7 68 -5 13 -29 -48 -22 -51 -37 -7
-56 17 -8 43 -20 57 -27 l25 -11 -27 3 c-19 3 -28 0 -28 -9 0 -8 3 -14 8 -14
4 0 21 -11 37 -25 l30 -25 -35 12 c-19 6 -38 16 -41 21 -4 5 -12 8 -18 6 -13
-5 45 -97 92 -146 23 -24 27 -33 15 -33 -9 0 -26 12 -38 28 l-21 27 2 -40 c4
-87 -10 -102 -31 -32 -7 23 -19 62 -26 87 -15 49 -93 181 -110 187 -7 2 -9
-17 -7 -54 l3 -58 -19 41 c-25 54 -41 64 -41 25 0 -16 -4 -33 -10 -36 -5 -3
-10 3 -10 15 0 12 -5 30 -11 41 -9 18 -12 19 -27 6 -26 -22 -102 -59 -102 -48
0 5 7 14 15 21 8 7 15 19 15 26 0 20 -70 9 -139 -22 -61 -27 -65 -28 -55 -13
4 7 -1 10 -12 7 -10 -2 -28 -18 -39 -36 -45 -74 -83 -118 -146 -168 -48 -39
-66 -48 -62 -34 3 11 0 20 -5 20 -17 0 -36 -77 -36 -147 -1 -33 -5 -59 -10
-56 -16 10 -36 73 -36 113 0 22 -4 40 -8 40 -4 0 -25 -17 -45 -38 -32 -33 -36
-42 -31 -70 8 -41 16 -40 39 6 l18 37 13 -30 c18 -42 17 -56 -9 -105 -21 -40
-27 -45 -82 -57 -110 -25 -187 -88 -200 -163 -15 -90 24 -174 88 -185 18 -3
55 0 84 8 31 8 56 10 61 5 18 -18 -32 -218 -54 -218 -15 0 -24 -23 -24 -61 0
-34 -6 -35 -40 -9 -14 11 -32 20 -40 20 -8 0 -29 8 -45 18 -17 11 -64 29 -105
41 -41 13 -111 40 -155 62 -113 54 -153 69 -170 63 -18 -7 -19 -26 -3 -42 9
-9 5 -12 -19 -12 -22 0 -35 -7 -47 -25 -9 -14 -23 -25 -30 -25 -7 0 -24 -8
-37 -18 -13 -10 -52 -23 -86 -30 -71 -14 -174 -57 -186 -78 -4 -8 -13 -14 -18
-14 -6 0 19 32 55 71 68 73 77 89 51 89 -11 0 -10 7 7 36 25 42 15 60 -26 44
-35 -13 -53 -13 -40 0 5 5 61 36 124 68 136 69 200 110 200 128 0 10 -9 12
-32 7 -29 -6 -32 -5 -20 9 7 9 44 40 82 69 39 29 70 57 70 63 0 5 9 28 20 51
11 22 23 56 26 74 7 33 6 34 -19 28 -22 -6 -24 -4 -20 13 7 25 -3 25 -69 -1
l-52 -20 55 58 c62 65 83 98 75 118 -2 7 2 19 10 26 22 18 124 156 124 167 0
15 -22 20 -47 11 -34 -13 -28 5 12 35 37 29 50 75 18 61 -100 -41 -45 0 89 67
57 28 115 64 129 81 27 29 27 30 117 25 75 -3 89 -2 84 10 -4 12 8 14 71 10
65 -3 76 -1 74 12 -2 12 12 16 71 18 39 2 72 7 72 12 0 6 -9 10 -20 10 -14 0
-20 7 -20 23 0 30 -24 95 -60 168 -17 32 -26 59 -20 59 5 0 45 -10 87 -21z
m647 -145 c16 -60 22 -185 10 -197 -3 -3 -29 1 -57 10 -28 8 -63 12 -78 9 -16
-3 -30 -2 -33 2 -6 9 25 106 49 153 22 43 77 101 86 92 4 -5 15 -36 23 -69z
m-294 -338 c0 -2 -16 -13 -36 -25 -19 -12 -32 -26 -29 -31 9 -15 66 -12 99 5
29 16 30 15 82 -36 76 -75 134 -190 143 -284 4 -41 10 -78 14 -82 16 -16 43
16 60 73 31 98 36 105 36 50 1 -80 -89 -240 -119 -210 -5 5 -14 54 -20 109
-19 174 -76 266 -200 324 -44 21 -70 26 -132 26 -43 0 -78 1 -78 2 0 2 18 14
40 29 51 34 140 66 140 50z m132 -31 c3 -14 2 -25 -2 -25 -14 0 -32 29 -25 40
11 17 22 11 27 -15z m68 -67 c0 -20 4 -39 9 -43 18 -10 41 26 41 66 0 21 4 39
9 39 14 0 48 -64 66 -122 20 -69 19 -107 -6 -192 -17 -56 -23 -67 -30 -51 -4
11 -8 38 -8 60 -1 44 -29 111 -83 195 -29 47 -33 59 -24 82 13 35 26 18 26
-34z m-218 -19 c43 -10 62 -21 109 -68 80 -80 100 -125 106 -241 6 -94 24
-160 44 -160 6 0 20 5 31 11 20 11 21 9 15 -26 -9 -54 -19 -59 -61 -34 -56 33
-119 28 -261 -20 -130 -45 -178 -49 -260 -25 -91 26 -148 111 -131 194 3 17 1
42 -5 57 -7 18 -6 30 1 37 5 5 10 18 10 28 0 37 31 95 61 112 17 10 55 43 86
74 43 44 63 57 96 63 66 10 102 10 159 -2z m-436 -437 c-4 -54 -2 -82 9 -109
21 -50 95 -161 177 -265 37 -47 68 -89 68 -92 0 -11 -71 23 -156 74 -46 28
-86 50 -90 50 -16 0 31 -41 82 -71 30 -18 54 -39 54 -46 0 -8 -10 -51 -22 -96
-14 -52 -22 -113 -22 -169 -1 -100 9 -116 98 -167 61 -34 92 -66 76 -76 -7 -4
-17 -2 -23 4 -6 6 -21 11 -34 11 -13 0 -29 10 -38 24 -20 30 -79 59 -104 51
-11 -3 -34 3 -53 15 -18 11 -48 20 -65 20 -26 0 -33 4 -33 20 0 24 0 24 36 5
16 -8 37 -15 47 -15 33 0 17 16 -39 40 -48 20 -59 29 -76 66 -12 27 -25 44
-36 44 -38 0 -48 65 -16 97 17 17 41 86 54 156 7 34 17 57 24 57 9 0 15 22 19
68 3 37 15 87 26 112 11 25 21 58 21 73 0 31 -24 93 -45 117 -11 13 -10 21 12
58 21 36 28 41 40 30 13 -10 14 -27 9 -86z m830 42 c-3 -24 -10 -52 -14 -61
-5 -10 -21 -44 -36 -75 -14 -32 -30 -58 -36 -58 -13 0 -13 6 4 38 8 15 17 54
21 86 8 63 40 130 57 120 6 -4 8 -25 4 -50z m-906 -62 c38 -38 46 -88 26 -150
-27 -81 -100 -132 -189 -132 -58 0 -88 31 -94 97 -9 90 38 153 144 193 67 25
80 24 113 -8z m203 -122 c33 -14 71 -20 119 -20 68 0 102 8 238 57 71 25 129
29 163 12 41 -21 67 -52 67 -80 0 -39 -16 -45 -28 -10 -6 16 -20 35 -33 41
-33 18 -109 15 -180 -8 -35 -11 -105 -28 -156 -38 -79 -15 -101 -16 -161 -5
-80 14 -102 32 -126 101 l-15 45 32 -37 c18 -21 54 -47 80 -58z m520 -48 c28
-24 20 -34 -14 -16 -62 31 -175 -9 -210 -76 -32 -59 -20 -142 26 -180 21 -18
3 -30 -45 -30 -64 0 -108 19 -137 58 -15 20 -48 62 -73 92 -26 30 -57 70 -69
88 l-24 34 59 -9 c87 -12 158 -5 259 23 50 14 104 29 120 34 38 10 85 3 108
-18z m-18 -40 c6 -4 16 -19 24 -33 16 -32 2 -85 -36 -136 -68 -89 -193 -63
-193 40 0 50 24 87 74 118 31 19 111 26 131 11z m-715 -68 c0 -8 -5 -12 -10
-9 -6 4 -8 11 -5 16 9 14 15 11 15 -7z m750 -192 c10 -32 11 -45 2 -54 -7 -7
-12 -26 -12 -44 0 -17 -3 -46 -6 -63 -5 -24 -10 -29 -19 -21 -19 15 -30 -81
-17 -138 l10 -44 -23 22 c-33 31 -46 18 -38 -36 5 -40 4 -44 -12 -38 -19 8
-19 -3 0 -48 11 -27 -12 -22 -54 11 -25 20 -40 43 -50 75 -10 34 -21 51 -42
62 -31 15 -40 30 -13 20 11 -4 18 1 21 14 3 11 11 20 19 20 7 0 14 12 16 28
l4 27 14 -27 c27 -55 33 -30 25 107 l-7 134 26 6 c14 3 37 7 50 10 13 2 36 17
52 32 33 31 27 37 54 -55z m-1250 5 c41 -22 89 -44 105 -48 102 -27 123 -34
147 -51 14 -10 31 -18 38 -18 28 0 102 -64 123 -106 13 -28 26 -43 35 -39 19
7 47 -62 32 -80 -16 -19 -103 6 -149 43 -53 43 -96 62 -136 62 -19 0 -60 9
-90 19 -29 10 -73 22 -96 26 l-43 7 17 -26 c15 -22 15 -26 2 -26 -19 0 -19 -9
2 -32 15 -17 14 -18 -42 -18 l-58 0 19 -21 c16 -18 16 -22 4 -29 -58 -33 -85
-58 -86 -80 -1 -17 -37 -61 -113 -140 -90 -91 -111 -109 -107 -87 7 29 -3 34
-35 17 -25 -14 -24 -8 6 40 22 36 33 70 20 70 -2 0 -30 -18 -61 -40 -32 -22
-61 -40 -66 -40 -5 0 1 18 12 40 11 21 20 42 20 46 0 12 -57 -5 -148 -44 l-92
-40 21 29 c11 16 29 34 40 39 38 21 23 38 -28 32 l-47 -5 59 56 c46 43 57 59
47 65 -10 7 2 21 48 57 68 53 67 65 -8 59 l-47 -4 42 19 c23 11 62 23 87 26
25 4 46 12 46 17 0 10 -16 9 -130 -8 -62 -9 -42 8 43 36 45 16 66 27 63 36
-10 26 129 64 237 64 44 0 77 4 77 10 0 6 -21 10 -47 10 l-48 0 30 20 c17 11
42 20 58 20 18 0 27 5 27 16 0 16 19 15 64 -2 25 -9 20 21 -6 40 -23 16 -23
16 7 9 17 -3 64 -24 105 -46z m845 -2 c17 -2 56 -11 89 -19 38 -10 66 -12 82
-6 13 5 25 6 27 2 3 -4 8 -47 12 -97 l7 -90 -21 25 -20 25 -1 -32 c0 -32 -13
-43 -25 -23 -14 22 -27 9 -21 -20 9 -46 -18 -38 -34 10 -16 48 -33 64 -60 57
-10 -3 -24 1 -31 9 -6 8 -17 14 -23 14 -6 0 -17 9 -24 20 -7 11 -18 20 -25 20
-6 0 -20 6 -29 14 -15 11 -16 19 -7 52 17 67 16 65 46 53 15 -6 42 -12 58 -14z
m-96 -131 c7 -17 17 -24 27 -20 10 4 19 -5 29 -28 15 -36 35 -56 35 -35 0 8 5
8 16 -2 14 -11 18 -10 29 5 13 17 15 16 29 -11 8 -17 20 -60 26 -96 9 -48 16
-67 27 -67 11 0 14 7 9 25 -4 14 -4 25 -1 25 12 0 36 -50 43 -92 9 -43 8 -47
-16 -58 -17 -7 -28 -8 -36 0 -5 5 -18 10 -28 10 -10 0 -30 14 -45 31 -16 17
-58 46 -94 64 -72 37 -83 47 -93 88 -8 32 12 187 24 187 4 0 12 -12 19 -26z
m-685 -102 c5 -3 -2 -11 -15 -18 -32 -18 -44 -17 -29 1 6 8 9 19 5 24 -6 10
15 6 39 -7z m191 -40 c92 -46 160 -130 210 -257 29 -72 27 -242 -4 -342 -27
-91 -88 -183 -148 -222 -48 -32 -68 -37 -92 -22 -35 22 2 229 63 353 18 37 30
70 26 73 -4 3 -12 -1 -18 -8 -15 -18 -82 -159 -82 -174 0 -6 -4 -23 -9 -36
l-10 -25 -68 25 c-43 16 -94 26 -136 28 -38 1 -74 8 -80 14 -14 14 -44 14 -52
1 -15 -25 -22 -6 -14 43 28 167 71 358 91 405 21 47 87 126 122 144 55 30 143
30 201 0z m-285 -36 c0 -11 -19 -15 -25 -6 -3 5 1 10 9 10 9 0 16 -2 16 -4z
m535 -134 c17 -33 36 -61 43 -61 8 -1 27 -10 43 -22 27 -19 29 -25 29 -87 1
-129 31 -262 61 -262 15 0 57 102 81 197 18 68 24 83 37 77 9 -4 27 -9 41 -11
16 -3 39 -23 62 -56 164 -229 228 -290 228 -218 0 16 -5 42 -10 57 -6 15 -8
30 -4 33 4 3 9 1 11 -6 11 -29 75 -98 105 -112 29 -14 34 -22 39 -66 3 -28 15
-74 27 -103 44 -107 19 -257 -87 -530 -48 -122 -48 -122 -25 -128 25 -7 35
-34 27 -75 -7 -35 3 -36 57 -8 22 11 57 23 77 26 34 4 252 -20 296 -33 24 -8
21 -23 -8 -34 -18 -7 -25 -17 -25 -35 0 -35 -26 -72 -55 -79 -13 -3 -53 -40
-90 -81 -37 -41 -78 -78 -91 -81 -13 -3 -24 -12 -24 -18 0 -7 -11 -23 -25 -36
-14 -13 -25 -33 -25 -45 0 -12 -18 -36 -45 -59 -57 -47 -201 -132 -240 -142
-17 -3 -38 -13 -47 -22 -14 -12 -21 -12 -32 -3 -11 10 -16 9 -23 -2 -4 -8 -19
-17 -33 -20 -14 -3 -45 -13 -70 -22 -50 -19 -113 -15 -163 10 -21 10 -34 12
-41 5 -5 -5 -20 -10 -32 -10 -12 0 -27 -6 -33 -14 -19 -23 -59 -28 -90 -12
-48 25 -62 79 -55 204 4 73 2 121 -7 152 -7 26 -11 90 -10 150 1 58 -3 120 -8
138 -5 17 -7 32 -3 32 4 0 36 -46 72 -101 66 -102 142 -185 160 -174 6 4 -16
35 -47 70 -32 34 -87 109 -122 166 -36 57 -71 110 -78 117 -7 7 -13 18 -13 23
0 5 -9 18 -20 29 -28 28 -92 27 -133 -2 -30 -21 -30 -11 1 24 8 9 17 32 21 50
l7 32 41 -37 c22 -20 47 -37 55 -37 9 0 22 19 32 43 9 23 34 66 56 95 22 29
44 71 50 95 12 57 59 195 78 232 9 17 17 68 20 120 5 106 -12 361 -26 378 -5
7 -12 50 -14 97 -4 75 -9 96 -46 172 -23 48 -42 89 -42 92 0 2 12 1 28 -3 20
-6 34 -22 57 -69z m78 13 c31 -13 37 -20 37 -45 0 -17 -3 -30 -7 -30 -16 1
-70 57 -93 95 l-23 40 24 -22 c13 -12 41 -29 62 -38z m130 5 c58 -46 60 -175
5 -327 -26 -72 -33 -83 -44 -71 -28 27 -46 334 -24 392 11 31 29 33 63 6z
m386 -75 c35 -30 69 -82 81 -125 12 -42 4 -38 -21 11 -11 23 -41 64 -66 90
-49 52 -45 66 6 24z m-163 5 c8 0 18 -8 21 -17 4 -10 17 -32 30 -49 46 -61
112 -238 113 -302 0 -15 -81 75 -114 126 -13 20 -40 57 -60 81 -43 51 -81 121
-66 121 5 0 10 9 10 19 0 21 17 32 38 25 8 -2 20 -4 28 -4z m114 -20 c57 -41
156 -226 184 -345 l8 -30 -32 30 c-26 25 -110 139 -131 179 -26 49 -59 123
-59 133 0 7 -8 17 -17 22 -16 9 -16 12 -3 21 20 13 18 13 50 -10z m-226 -26
c9 -3 16 -15 16 -25 0 -22 -1 -23 -35 -7 -44 20 -27 50 19 32z m-661 -866 c8
-30 15 -102 15 -164 1 -106 0 -112 -23 -134 -15 -14 -25 -35 -25 -51 0 -16
-12 -45 -26 -66 l-26 -38 5 145 c4 132 11 182 48 323 5 20 12 37 14 37 2 0 10
-24 18 -52z m1170 -20 c16 -125 30 -210 46 -270 l18 -68 -21 0 c-11 0 -47 -11
-78 -24 l-58 -24 0 29 c0 16 -9 38 -21 50 l-20 20 40 107 c22 59 47 135 57
169 10 34 21 60 25 58 3 -3 9 -24 12 -47z"/>
<path d="M2221 3984 c-27 -11 -42 -12 -64 -4 -41 14 -40 14 -34 -20 4 -19 -1
-45 -14 -76 -44 -99 -7 -219 84 -266 56 -29 137 -30 192 -1 27 14 51 19 74 15
31 -4 33 -3 25 19 -9 26 -9 35 2 120 8 71 -7 119 -52 165 -62 61 -142 79 -213
48z m131 -18 c19 -8 51 -33 71 -55 59 -65 62 -154 9 -220 -41 -50 -84 -73
-141 -74 -160 -2 -242 197 -125 304 63 58 121 72 186 45z"/>
<path d="M2264 3896 c-61 -27 -81 -93 -49 -156 19 -36 43 -50 89 -50 47 0 79
16 99 50 34 57 11 130 -49 155 -44 18 -50 18 -90 1z"/>
<path d="M2450 3300 c-24 -24 -27 -75 -4 -84 34 -13 83 32 84 77 0 23 -4 27
-30 27 -17 0 -39 -9 -50 -20z"/>
<path d="M2428 1959 c-32 -16 -58 -36 -58 -44 0 -16 24 -11 50 10 8 7 30 20
48 29 17 9 32 21 32 26 0 15 -9 12 -72 -21z"/>
<path d="M2505 1971 c-7 -13 33 -34 51 -27 8 3 14 10 14 16 0 8 -6 8 -20 0
-16 -9 -18 -8 -14 5 7 17 -21 22 -31 6z"/>
<path d="M2292 1928 c-34 -24 -62 -49 -62 -55 0 -7 2 -13 5 -13 10 0 135 94
135 102 0 15 -16 8 -78 -34z"/>
<path d="M2199 1903 c-28 -26 -46 -49 -40 -51 7 -2 32 15 56 37 25 23 49 41
55 41 6 0 8 5 5 10 -11 18 -25 11 -76 -37z"/>
<path d="M1760 1330 c0 -5 19 -22 42 -36 45 -29 118 -44 118 -25 0 6 -9 11
-20 11 -23 0 -95 34 -105 50 -8 13 -35 13 -35 0z"/>
</g>
</svg>
