<?xml version="1.0" standalone="no"?>
<!DOCTYPE svg PUBLIC "-//W3C//DTD SVG 20010904//EN"
 "http://www.w3.org/TR/2001/REC-SVG-20010904/DTD/svg10.dtd">
<svg version="1.0" xmlns="http://www.w3.org/2000/svg"
 width="800.000000pt" height="960.000000pt" viewBox="0 0 800.000000 960.000000"
 preserveAspectRatio="xMidYMid meet">

<g transform="translate(0.000000,960.000000) scale(0.100000,-0.100000)"
fill="#000000" stroke="none">
<path d="M5607 9526 c-55 -15 -102 -56 -124 -106 -19 -46 -45 -217 -38 -251 5
-22 2 -30 -15 -39 -12 -6 -27 -9 -35 -7 -37 15 -72 -290 -46 -400 19 -78 34
-86 175 -93 15 -1 67 -31 86 -50 17 -17 143 -14 205 4 40 13 45 12 50 -3 5
-16 -8 -109 -16 -115 -2 -1 -39 -12 -81 -24 -107 -31 -212 -80 -283 -135 -110
-83 -374 -352 -417 -423 -10 -18 -36 -43 -58 -58 -50 -33 -108 -121 -172 -260
-75 -165 -82 -194 -81 -326 2 -120 21 -207 65 -295 27 -52 85 -120 113 -133
18 -8 25 -24 35 -75 11 -60 10 -69 -10 -113 -12 -27 -37 -92 -57 -144 -20 -52
-41 -104 -48 -115 -7 -11 -28 -49 -48 -85 -84 -158 -133 -239 -260 -428 -83
-124 -99 -160 -91 -209 5 -34 2 -40 -23 -57 -15 -10 -68 -73 -118 -139 -49
-67 -142 -175 -205 -241 -63 -67 -98 -108 -77 -93 23 18 37 23 37 15 0 -26
-29 -54 -112 -110 -45 -31 -94 -68 -107 -82 -14 -14 -29 -26 -35 -26 -5 0 17
24 49 53 101 89 130 116 123 117 -4 0 -74 -60 -155 -132 -82 -73 -168 -148
-193 -167 -25 -19 -70 -58 -100 -87 -31 -28 -71 -59 -89 -69 -19 -9 -86 -50
-150 -89 -64 -40 -168 -96 -231 -125 -63 -29 -135 -65 -160 -80 -32 -20 -55
-27 -75 -24 -40 6 -212 -29 -300 -61 -39 -14 -104 -32 -145 -41 -41 -9 -92
-27 -112 -40 -31 -21 -50 -25 -108 -25 -49 0 -102 -9 -176 -31 -104 -31 -154
-35 -72 -6 140 49 361 134 478 183 74 31 167 68 205 83 65 26 136 60 125 60
-11 1 -203 -70 -375 -137 -308 -122 -549 -214 -580 -222 -16 -5 -92 -23 -168
-41 -136 -32 -140 -32 -185 -16 -69 24 -137 38 -232 47 -90 9 -221 31 -286 49
-72 19 -247 51 -252 46 -3 -3 -3 -5 0 -5 19 0 256 -54 268 -61 22 -12 -74 -11
-130 2 -25 6 -73 12 -106 14 -34 1 -68 5 -75 9 -8 4 -4 -1 8 -10 13 -9 23 -24
23 -33 0 -24 36 -56 90 -80 l45 -21 -50 0 c-67 0 -475 86 -531 112 -28 13 -64
-9 -64 -39 0 -41 21 -76 79 -132 89 -85 152 -119 233 -125 37 -3 94 -12 125
-20 144 -37 306 -66 336 -61 18 4 46 1 62 -5 42 -17 202 -49 250 -51 52 -2
207 26 312 55 64 18 92 22 125 15 59 -11 271 -11 338 1 119 21 221 41 360 70
79 16 168 30 197 30 28 0 78 7 110 15 32 9 96 22 143 30 130 21 179 35 193 53
26 35 85 70 155 91 41 12 126 53 195 93 67 39 154 89 192 111 142 82 189 113
244 163 53 48 93 74 208 134 28 15 64 37 78 49 15 11 32 18 38 14 6 -3 7 -1 3
5 -4 7 -1 12 7 12 8 0 88 72 178 161 90 88 173 166 184 171 19 11 19 11 1 -18
-10 -16 -45 -66 -77 -111 -33 -45 -59 -84 -59 -88 0 -4 39 47 87 112 47 65
121 165 164 223 42 58 85 121 94 140 10 19 44 73 75 120 31 47 70 109 85 139
16 29 54 76 83 105 30 28 65 69 79 90 49 77 151 284 172 352 13 38 25 76 28
84 3 9 18 -9 39 -50 68 -126 178 -292 257 -386 16 -19 27 -39 25 -46 -6 -16
78 -47 162 -61 36 -6 67 -12 69 -13 2 -2 8 -45 12 -96 4 -51 19 -134 31 -185
l24 -91 -116 -5 c-141 -7 -184 -16 -234 -47 l-39 -24 7 -105 c8 -145 27 -213
87 -325 28 -53 62 -126 75 -162 35 -98 88 -177 159 -241 63 -56 64 -58 49 -81
-40 -61 -84 -334 -89 -552 -1 -49 -9 -102 -18 -125 -37 -96 -67 -316 -67 -496
0 -107 23 -303 41 -344 4 -11 13 -81 19 -155 7 -74 19 -171 28 -215 12 -57 15
-120 13 -220 -3 -155 7 -315 19 -295 17 27 21 -60 5 -112 -22 -75 -29 -192
-15 -268 18 -95 16 -138 -10 -204 -29 -77 -85 -136 -163 -174 -82 -40 -393
-131 -517 -151 -111 -18 -124 -24 -134 -59 -10 -34 -29 -40 -69 -22 -20 10
-20 9 -3 -2 11 -7 36 -27 56 -45 36 -32 98 -62 310 -155 63 -27 121 -57 128
-66 7 -10 22 -16 32 -14 11 2 28 -1 37 -7 17 -10 17 -10 -2 -11 -29 -1 -12 -9
145 -73 151 -60 235 -83 360 -96 135 -14 118 -18 290 69 52 26 106 51 120 55
14 4 41 21 61 36 20 16 40 29 43 29 4 0 6 -53 5 -119 0 -67 3 -127 9 -138 38
-70 230 -178 338 -190 45 -5 64 0 170 45 65 28 169 74 229 103 61 29 114 52
118 51 5 -2 21 8 36 20 16 13 37 28 47 35 16 10 16 12 3 12 -12 1 -16 10 -15
38 1 35 -1 38 -47 55 -26 10 -80 42 -120 71 -68 50 -135 87 -123 69 3 -5 -12
-16 -32 -26 -29 -13 -33 -13 -18 -1 11 8 25 15 30 15 6 0 4 5 -4 10 -10 6 -22
4 -36 -5 -21 -13 -22 -12 -29 23 -4 20 -16 52 -27 71 -20 31 -21 43 -14 185 3
84 11 199 16 256 6 58 11 154 10 213 0 86 4 115 19 145 10 21 21 71 25 117 8
102 33 312 51 440 7 55 11 112 8 126 -2 15 0 36 6 48 19 36 100 534 90 553 -5
9 -9 25 -9 36 0 10 -11 40 -25 66 -18 35 -22 51 -15 64 15 24 55 166 89 312
64 270 67 458 11 649 -9 31 -7 37 24 72 27 29 36 48 40 91 9 89 18 412 18 623
-1 136 4 223 13 270 20 97 21 681 2 815 -12 86 -12 99 4 135 15 36 16 50 4
145 -15 123 -26 329 -15 285 4 -16 9 -46 10 -65 1 -19 4 -27 7 -18 4 16 -17
183 -57 453 -25 169 -22 234 19 415 52 228 86 567 78 765 -5 116 -7 124 -51
222 -56 125 -104 203 -166 268 -26 28 -54 68 -61 90 -23 66 -110 145 -204 184
-105 45 -179 46 -262 6 -32 -16 -60 -32 -63 -36 -3 -4 -108 -10 -232 -12
l-228 -5 -30 55 c-40 75 -35 104 30 163 27 25 61 63 76 85 26 39 27 41 15 111
-19 111 -71 234 -155 362 -41 64 -155 160 -238 203 -50 25 -141 32 -201 15z
m-59 -73 c-9 -10 -21 -28 -27 -40 -15 -30 -31 -113 -21 -113 13 0 18 -134 6
-142 -30 -21 -35 -8 -30 70 6 101 30 191 56 219 25 27 38 31 16 6z m-8 -334
c-19 -12 -45 -30 -57 -42 l-23 -20 0 25 c0 22 7 29 43 41 61 22 77 20 37 -4z
m-115 -94 c11 -27 13 -36 4 -27 -39 38 -54 -30 -23 -108 15 -38 23 -44 52 -41
14 2 16 -25 2 -34 -5 -3 -10 -32 -10 -64 0 -31 -5 -62 -12 -69 -22 -22 -46
-13 -57 21 -20 60 -15 334 6 370 8 13 20 -3 38 -48z m618 -340 c-3 -9 -8 -14
-10 -11 -3 3 -2 9 2 15 9 16 15 13 8 -4z m760 -165 c23 -11 60 -36 82 -55 38
-33 39 -34 15 -35 -14 0 -43 -3 -64 -7 -29 -4 -37 -3 -32 6 6 9 0 10 -21 5
-47 -11 -123 -56 -123 -73 0 -9 -7 -26 -15 -37 -8 -12 -17 -36 -20 -54 -3 -18
-10 -40 -16 -49 -17 -27 -3 179 17 243 15 48 22 58 48 65 50 15 84 12 129 -9z
m204 -60 c18 -18 33 -36 33 -40 0 -20 -40 8 -86 58 -45 51 -46 53 -14 33 18
-11 48 -34 67 -51z m-424 -12 c-8 -29 -18 -107 -21 -173 l-7 -120 -27 46 c-15
25 -31 59 -34 77 -10 50 39 173 84 210 9 6 17 12 17 12 1 0 -4 -24 -12 -52z
m-403 -59 c-8 -5 -42 -24 -74 -41 -33 -16 -71 -38 -85 -48 -14 -10 -64 -43
-111 -73 -47 -31 -96 -65 -110 -76 -14 -11 -28 -21 -31 -21 -13 0 -20 52 -9
65 9 11 4 21 -21 46 -29 28 -37 31 -78 26 -38 -4 -43 -3 -28 8 22 16 22 26 1
18 -35 -13 -6 22 42 52 48 29 53 30 179 31 72 1 159 6 195 11 93 15 149 15
130 2z m28 -58 c-29 -27 -54 -45 -56 -40 -2 5 -11 9 -21 9 -11 0 -21 -14 -30
-44 -12 -42 -15 -45 -64 -57 -105 -24 -217 -100 -217 -145 0 -18 33 -18 70 1
46 24 113 30 128 12 10 -12 6 -19 -25 -42 -21 -16 -44 -33 -51 -38 -9 -7 -11
-6 -6 7 8 22 -1 20 -25 -5 l-20 -22 -29 24 c-16 13 -42 44 -56 68 -22 36 -25
46 -14 56 38 35 439 265 461 265 5 0 -16 -22 -45 -49z m138 25 c10 -8 17 -16
14 -18 -23 -20 -72 -49 -75 -47 -5 6 26 79 34 79 4 0 16 -6 27 -14z m-97 -48
c-14 -44 -24 -57 -59 -77 -22 -13 -43 -21 -46 -18 -10 10 29 75 55 90 15 8 35
25 45 36 11 12 20 21 21 21 1 0 -6 -24 -16 -52z m151 -34 c0 -40 16 -77 31
-69 5 4 9 -13 9 -39 0 -42 -2 -46 -25 -46 -14 0 -34 5 -44 12 -16 10 -25 7
-54 -18 -58 -49 -75 -62 -97 -74 -21 -11 -21 -11 -6 18 8 16 20 51 26 78 20
84 29 98 80 127 27 15 52 32 55 37 13 21 25 8 25 -26z m-675 -44 c3 -5 2 -10
-4 -10 -5 0 -13 5 -16 10 -3 6 -2 10 4 10 5 0 13 -4 16 -10z m-56 -31 c10 -11
21 -39 23 -61 l4 -40 -21 26 c-22 28 -110 62 -120 47 -2 -5 5 -12 18 -15 20
-7 18 -9 -17 -22 -52 -19 -70 -36 -107 -101 -46 -80 -48 -56 -3 33 32 64 47
82 89 109 76 49 106 54 134 24z m540 -49 c-16 -71 -39 -107 -73 -115 -27 -6
-29 -8 -11 -14 16 -7 13 -9 -17 -13 -23 -2 -39 1 -42 8 -2 6 5 43 18 82 17 55
24 67 32 55 12 -19 41 -12 74 17 13 11 24 20 25 20 2 0 -1 -18 -6 -40z m-153
-20 c-8 -31 -14 -39 -26 -34 -32 14 -67 14 -112 1 -27 -8 -48 -14 -48 -12 0
15 148 84 181 85 14 0 15 -5 5 -40z m-723 -212 c-58 -162 -56 -159 -61 -119
-5 44 43 177 76 214 14 15 26 27 27 27 1 0 -18 -55 -42 -122z m492 57 c27 -25
45 -45 39 -45 -6 0 -21 -19 -34 -42 -13 -24 -36 -61 -52 -82 l-28 -39 0 59 c0
79 11 194 19 194 3 -1 28 -21 56 -45z m-591 23 c-4 -7 -18 -27 -31 -44 -13
-17 -23 -38 -23 -47 0 -9 -5 -19 -10 -22 -6 -4 -8 -10 -5 -15 5 -8 -32 -108
-47 -124 -4 -6 -8 -19 -8 -30 -1 -12 -7 -32 -16 -46 -14 -24 -14 -23 -8 20 3
25 11 48 16 51 7 4 6 9 0 13 -6 4 -14 26 -17 51 l-7 44 78 80 c76 79 93 94 78
69z m1484 -200 c1 -84 7 -178 12 -208 5 -30 11 -115 14 -188 4 -111 2 -133 -9
-128 -8 3 -17 -3 -20 -15 -4 -11 -12 -18 -18 -16 -8 2 -10 42 -7 133 8 199 3
301 -17 396 -24 111 -20 151 15 165 15 6 27 11 27 12 0 1 1 -68 3 -151z
m-1669 -20 c-2 -57 -13 -81 -39 -85 -14 -2 -44 -22 -67 -45 -24 -23 -43 -38
-43 -33 0 32 119 195 142 195 4 0 8 -15 7 -32z m12 -470 c-4 -13 -9 -43 -9
-66 -1 -24 -5 -48 -8 -53 -3 -5 -8 -58 -11 -118 -4 -82 0 -144 17 -251 11 -78
19 -144 17 -146 -4 -5 -42 182 -56 276 -8 59 -9 57 -4 -30 10 -177 48 -318
162 -600 48 -118 56 -144 43 -136 -32 20 -132 252 -181 421 -37 126 -60 292
-60 430 0 81 4 122 9 110 7 -15 9 -9 9 26 1 49 23 114 34 103 4 -4 9 1 12 10
3 9 7 23 10 31 2 8 9 15 14 15 7 0 7 -9 2 -22z m1690 -150 c-1 -40 -5 -89 -9
-108 -7 -31 -9 -26 -16 45 -4 44 -12 86 -19 93 -9 11 -6 18 12 33 13 11 26 17
28 15 3 -3 4 -37 4 -78z m41 -386 l3 -194 -24 -19 c-16 -13 -28 -16 -34 -10
-20 20 -2 385 25 487 l12 49 7 -60 c4 -33 9 -147 11 -253z m465 -124 c-3 -8
-6 -5 -6 6 -1 11 2 17 5 13 3 -3 4 -12 1 -19z m-2292 -146 c-14 -48 -37 -116
-51 -152 -13 -36 -24 -71 -24 -78 0 -6 -11 -12 -25 -12 -14 0 -25 2 -25 5 0 3
13 31 29 63 15 31 48 108 72 171 49 130 64 132 24 3z m1831 -299 c0 -330 9
-443 35 -443 18 0 9 -17 -21 -38 l-29 -22 -12 22 c-8 15 -15 114 -21 280 -7
240 -6 261 12 320 19 62 20 92 0 47 -8 -18 -9 -3 -7 64 2 82 10 106 37 107 3
0 6 -152 6 -337z m-1502 -176 c35 -70 63 -127 62 -127 -7 0 -98 152 -115 194
-19 44 -27 76 -17 65 3 -2 34 -62 70 -132z m-736 -258 c-51 -100 -64 -119 -66
-97 -2 14 7 46 19 70 24 48 101 159 106 154 2 -1 -25 -59 -59 -127z m2392 -26
c0 -3 -18 -21 -39 -40 -46 -39 -83 -110 -107 -203 -14 -54 -15 -90 -9 -220 4
-85 9 -191 11 -234 5 -140 13 -175 42 -191 l27 -14 -36 -1 c-19 0 -40 -5 -45
-10 -24 -24 -54 69 -54 168 0 53 2 60 23 66 l22 6 -23 20 -23 19 11 212 c14
252 22 308 44 321 11 6 15 16 11 28 -5 15 5 25 52 49 55 29 93 39 93 24z
m-2280 -77 l65 -13 -102 -1 c-82 0 -103 3 -103 14 0 18 52 18 140 0z m-233
-119 c-21 -38 -59 -88 -64 -83 -5 5 64 106 72 106 2 0 -2 -10 -8 -23z m2302
-9 c-1 -18 -4 -44 -8 -58 -7 -23 -8 -22 -15 15 -4 22 -9 48 -12 58 -4 12 0 17
15 17 17 0 21 -6 20 -32z m-1879 -37 c0 -5 -9 -19 -20 -32 l-21 -24 16 33 c15
31 25 41 25 23z m973 -113 c4 -40 18 -116 31 -168 13 -52 22 -97 20 -99 -8 -8
-42 87 -53 149 -21 116 -27 165 -23 183 7 36 19 6 25 -65z m877 -233 c0 -44
-15 -60 -26 -30 -6 14 13 75 22 75 2 0 4 -20 4 -45z m-2626 -130 c-16 -6 -35
-19 -43 -28 -7 -10 -18 -17 -24 -17 -5 0 -38 -18 -73 -40 -35 -22 -66 -40 -69
-40 -17 0 2 22 49 54 30 21 66 47 80 59 17 15 40 23 67 23 l42 2 -29 -13z
m1393 -47 c-3 -8 -6 -5 -6 6 -1 11 2 17 5 13 3 -3 4 -12 1 -19z m10 -60 c-3
-7 -5 -2 -5 12 0 14 2 19 5 13 2 -7 2 -19 0 -25z m-1677 -11 c0 -2 -15 -16
-32 -33 l-33 -29 29 33 c28 30 36 37 36 29z m64 -15 c3 -5 -10 -16 -29 -25
-40 -19 -45 -14 -12 14 25 21 33 23 41 11z m3423 -84 c-3 -8 -6 -5 -6 6 -1 11
2 17 5 13 3 -3 4 -12 1 -19z m-461 -25 c-44 -114 -91 -510 -84 -711 3 -92 8
-136 17 -141 9 -6 7 -10 -8 -14 -38 -10 -51 26 -41 113 11 89 12 136 4 128 -3
-3 -9 -28 -14 -55 -7 -43 -8 -39 -9 42 -2 177 45 597 69 615 3 3 9 13 13 23 4
10 17 17 33 17 20 0 25 -4 20 -17z m-3177 -46 c-13 -12 -43 -45 -66 -72 -24
-28 -43 -43 -43 -35 0 27 38 79 77 104 48 31 63 33 32 3z m-141 -101 c-12 -28
-54 -56 -82 -56 -8 0 -38 -14 -65 -32 -28 -17 -54 -28 -57 -25 -9 8 85 67 118
74 14 3 41 20 59 39 37 38 45 38 27 0z m98 -50 c16 -8 43 -20 59 -26 27 -10
28 -12 11 -22 -13 -7 -25 -7 -43 1 -13 6 -36 11 -50 11 -32 0 -224 -55 -265
-76 -16 -8 -32 -13 -35 -11 -7 7 248 134 273 136 11 0 34 -5 50 -13z m2122
-135 c12 -38 36 -87 52 -110 38 -52 38 -58 -2 -30 -44 32 -138 127 -138 140 0
8 4 8 13 2 6 -6 21 -13 32 -17 14 -5 11 1 -10 18 -16 14 -33 25 -36 26 -4 0
-10 7 -13 16 -5 13 -1 15 18 12 14 -3 31 -1 38 3 21 14 23 12 46 -60z m182
-255 c52 -31 91 -56 87 -56 -25 0 -191 96 -235 135 -68 61 -68 80 1 21 29 -24
95 -70 147 -100z m-3124 76 c-3 -5 -67 -26 -143 -47 -76 -20 -192 -53 -257
-71 -119 -34 -166 -40 -84 -11 113 40 321 102 393 117 102 22 97 21 91 12z
m59 -22 c-3 -5 -14 -10 -23 -9 -14 0 -13 2 3 9 27 11 27 11 20 0z m3830 -317
c3 -9 -13 -68 -35 -133 -46 -133 -47 -143 -59 -458 -9 -232 -2 -323 27 -379 7
-13 3 -44 -15 -108 l-25 -90 13 -291 c12 -277 11 -301 -9 -490 -12 -110 -26
-318 -32 -464 -10 -281 -28 -412 -29 -222 -1 117 -23 182 -62 182 -20 0 -20 1
5 31 14 17 29 43 34 57 7 28 8 214 2 452 -3 89 0 153 9 188 8 33 14 127 15
256 l1 204 -34 48 -33 48 20 60 c21 61 42 322 42 522 0 49 5 85 12 92 22 22
27 145 12 362 -7 118 -14 238 -14 267 l0 52 38 6 c20 3 51 9 67 13 l30 8 7
-99 c4 -55 9 -106 13 -114z m-4496 172 c-7 -6 -158 -35 -183 -35 -34 0 -11 10
55 25 64 13 137 19 128 10z m-1409 -42 c11 -4 9 -8 -10 -13 -17 -6 -2 -8 48
-9 41 -1 72 -5 72 -11 0 -5 -25 -10 -57 -10 -46 0 -65 6 -105 31 -26 17 -48
32 -48 34 0 4 80 -14 100 -22z m1459 3 c10 -12 8 -13 -9 -9 -25 7 -37 23 -17
23 8 0 20 -6 26 -14z m3924 -60 c-1 -48 -22 -150 -29 -144 -2 2 -6 27 -8 55
-3 28 -10 71 -15 94 -12 53 -8 59 27 50 25 -7 27 -11 25 -55z m-5818 -2 c28
-13 68 -34 90 -46 l40 -23 -49 -3 c-39 -3 -61 3 -100 24 -55 29 -96 62 -96 77
0 13 58 -1 115 -29z m1435 11 c-58 -7 -118 -16 -135 -19 -28 -6 -28 -6 -6 4
36 16 117 28 186 28 50 0 42 -2 -45 -13z m4431 -76 c-10 -35 -24 -82 -30 -104
-11 -40 -11 -40 -5 13 4 48 42 167 51 159 2 -2 -5 -33 -16 -68z m-4844 50 c36
-6 79 -22 101 -37 20 -14 52 -31 71 -39 27 -11 31 -17 20 -24 -26 -16 -45 -9
-83 30 -37 38 -51 43 -201 75 -47 9 31 5 92 -5z m-977 -96 c0 -8 -57 27 -71
43 -8 10 4 5 29 -11 23 -15 42 -29 42 -32z m450 33 c0 -17 -45 -27 -59 -13
-19 19 -12 27 24 27 23 0 35 -5 35 -14z m5876 -88 c-19 -27 -21 -19 -4 18 7
14 14 21 16 15 2 -6 -4 -21 -12 -33z m-55 -185 c-19 -170 -30 -324 -32 -457
-2 -70 -6 -120 -10 -110 -11 31 9 482 25 579 8 50 15 92 16 94 0 2 3 2 6 -2 3
-3 1 -50 -5 -104z m-955 -354 c-8 -46 -14 -71 -15 -55 -1 34 22 163 26 149 2
-5 -3 -47 -11 -94z m390 -216 c-1 -177 3 -231 17 -287 9 -38 16 -70 15 -71
-12 -9 -67 -22 -72 -18 -9 9 -7 101 4 268 10 134 30 325 35 325 1 0 1 -98 1
-217z m-409 65 c-3 -8 -6 -5 -6 6 -1 11 2 17 5 13 3 -3 4 -12 1 -19z m-10 -90
c-3 -7 -5 -2 -5 12 0 14 2 19 5 13 2 -7 2 -19 0 -25z m980 -50 c-3 -8 -6 -5
-6 6 -1 11 2 17 5 13 3 -3 4 -12 1 -19z m-19 -377 c3 -233 -10 -309 -21 -118
-10 160 -8 256 4 300 5 20 11 37 12 37 1 0 3 -99 5 -219z m-909 -28 l-1 -98
-13 60 c-13 60 -10 135 6 135 5 0 9 -44 8 -97z m429 51 c11 -30 12 -78 8 -219
-3 -99 -9 -198 -14 -220 l-8 -40 -19 35 c-17 30 -20 64 -25 236 -4 147 -9 206
-19 218 -11 13 -11 16 0 20 8 2 21 7 29 9 25 9 33 2 48 -39z m537 -516 c4 -10
3 -18 -1 -18 -37 1 -63 82 -55 175 2 22 8 8 25 -55 13 -47 27 -93 31 -102z
m-885 56 c0 -2 -7 -4 -15 -4 -20 0 -35 32 -35 77 l0 38 25 -53 c14 -30 25 -56
25 -58z m384 19 c6 -69 5 -73 -15 -73 -19 0 -20 4 -14 58 7 59 15 96 20 90 1
-2 5 -36 9 -75z m-427 -110 c-2 -16 -4 -5 -4 22 0 28 2 40 4 28 2 -13 2 -35 0
-50z m52 -140 c0 -142 4 -200 15 -238 20 -63 20 -62 -3 -41 -10 10 -24 37 -30
61 -12 47 -15 305 -5 368 14 84 23 27 23 -150z m389 142 c1 -1 -2 -26 -8 -55
-5 -29 -10 -121 -10 -205 0 -119 4 -169 20 -230 11 -43 20 -80 20 -82 0 -3 -9
-1 -20 2 -11 3 -20 2 -20 -3 0 -6 5 -12 12 -14 9 -3 9 -25 -2 -94 -16 -103
-17 -272 -2 -327 8 -29 8 -37 -3 -37 -8 0 -16 8 -19 18 -27 92 -37 347 -17
420 11 38 10 46 -7 70 -13 18 -20 46 -21 87 -2 72 15 363 25 423 6 37 9 42 28
36 11 -4 22 -7 24 -9z m432 -18 c-15 -39 -33 -309 -28 -437 3 -86 10 -137 21
-164 26 -59 13 -55 -17 5 -24 48 -26 63 -26 173 0 111 11 273 26 403 4 37 10
50 19 46 10 -3 11 -11 5 -26z m-836 -540 c-14 -95 -12 -131 12 -244 7 -34 -5
-44 -24 -20 -12 15 -11 346 2 365 20 31 24 -9 10 -101z m785 -64 c0 -5 -4 -17
-9 -28 -8 -18 -9 -17 -9 8 -1 15 4 27 9 27 6 0 10 -3 9 -7z m42 -64 c9 -18 8
-24 -4 -31 -20 -11 -43 -89 -48 -163 -2 -33 -4 -162 -4 -287 0 -226 0 -226 24
-252 28 -30 13 -34 -31 -8 l-30 17 6 90 c3 50 8 149 11 220 9 225 21 350 41
418 7 23 21 22 35 -4z m-838 -261 c-12 -42 -24 -64 -36 -66 -16 -3 -16 0 2 50
11 29 23 69 27 88 6 32 8 33 17 13 7 -15 4 -39 -10 -85z m-25 -98 c10 -17 10
-20 -3 -20 -25 0 -17 -17 15 -30 48 -20 25 -25 -25 -5 l-46 17 -53 -35 c-62
-41 -150 -87 -168 -87 -22 0 5 18 97 63 50 25 101 56 115 69 13 12 28 22 32
21 5 -2 7 0 7 5 -5 28 12 29 29 2z m442 -40 c0 -5 -9 -6 -20 -3 -11 3 -20 9
-20 13 0 5 9 6 20 3 11 -3 20 -9 20 -13z m-107 -109 c-43 -61 -132 -128 -170
-128 -13 0 -23 1 -23 3 0 2 29 17 64 33 58 26 70 37 112 101 27 40 50 67 52
60 3 -7 -13 -38 -35 -69z m424 -68 c-2 -21 -4 -6 -4 32 0 39 2 55 4 38 2 -18
2 -50 0 -70z m-1127 37 c0 -11 -48 -25 -56 -17 -4 3 -3 10 1 16 8 14 55 14 55
1z m-93 -16 c-3 -3 -12 -4 -19 -1 -8 3 -5 6 6 6 11 1 17 -2 13 -5z m-57 -14
c-34 -11 -60 -11 -35 0 11 5 29 8 40 8 16 0 15 -2 -5 -8z m-75 -20 c-27 -12
-43 -12 -25 0 8 5 22 9 30 9 10 0 8 -3 -5 -9z m-40 -39 c-6 -5 -34 -16 -63
-26 -29 -9 -58 -26 -65 -36 -14 -23 -40 -25 -57 -4 -16 20 10 62 42 68 44 8
152 7 143 -2z m277 -37 c-12 -8 -47 -26 -77 -40 -55 -25 -55 -26 -55 -70 0
-24 -4 -44 -9 -44 -14 0 -18 21 -13 68 3 30 9 42 21 42 9 1 43 14 76 30 67 32
91 38 57 14z m485 10 c-3 -3 -12 -4 -19 -1 -8 3 -5 6 6 6 11 1 17 -2 13 -5z
m-112 -44 c-33 -17 -66 -30 -75 -29 -18 1 98 57 120 58 8 0 -12 -13 -45 -29z
m282 -26 c-3 -3 -12 -4 -19 -1 -8 3 -5 6 6 6 11 1 17 -2 13 -5z m508 -40 c20
-13 23 -20 14 -35 -14 -28 -41 -238 -34 -271 5 -22 1 -29 -22 -42 l-28 -16 27
6 c22 5 29 2 34 -12 35 -107 50 -131 110 -171 26 -17 -53 14 -90 35 -42 24
-86 83 -92 123 -21 121 -12 347 14 363 4 2 6 -24 5 -57 l-1 -62 10 78 c6 42
15 77 20 77 5 0 20 -7 33 -16z m-1057 -40 c-41 -21 -48 -29 -48 -55 0 -17 5
-39 11 -51 15 -28 8 -30 -39 -11 -46 18 -49 26 -27 71 12 23 29 35 73 51 77
26 87 25 30 -5z m222 -54 c-99 -54 -114 -97 -55 -149 20 -17 31 -31 24 -31
-15 0 -69 33 -69 42 0 4 -6 8 -14 8 -18 0 -25 30 -17 70 5 28 13 33 86 59 103
37 112 37 45 1z m1378 -62 c24 -24 13 -38 -27 -38 -50 0 -60 14 -24 33 36 19
37 19 51 5z m67 -38 c3 -6 -1 -7 -9 -4 -18 7 -21 14 -7 14 6 0 13 -4 16 -10z"/>
<path d="M5401 8786 c-17 -20 -4 -58 17 -54 11 2 17 13 17 32 0 33 -16 44 -34
22z"/>
<path d="M6690 8490 c0 -5 5 -10 11 -10 5 0 7 5 4 10 -3 6 -8 10 -11 10 -2 0
-4 -4 -4 -10z"/>
<path d="M4993 7060 c0 -25 2 -35 4 -22 2 12 2 32 0 45 -2 12 -4 2 -4 -23z"/>
<path d="M4866 6304 c-4 -9 -4 -19 -1 -22 2 -3 7 3 11 12 4 9 4 19 1 22 -2 3
-7 -3 -11 -12z"/>
<path d="M6144 8714 c-18 -14 -18 -15 4 -4 12 6 22 13 22 15 0 8 -5 6 -26 -11z"/>
<path d="M7342 6095 c0 -16 2 -22 5 -12 2 9 2 23 0 30 -3 6 -5 -1 -5 -18z"/>
</g>
</svg>
