<?xml version="1.0" standalone="no"?>
<!DOCTYPE svg PUBLIC "-//W3C//DTD SVG 20010904//EN"
 "http://www.w3.org/TR/2001/REC-SVG-20010904/DTD/svg10.dtd">
<svg version="1.0" xmlns="http://www.w3.org/2000/svg"
 width="840.000000pt" height="859.000000pt" viewBox="0 0 840.000000 859.000000"
 preserveAspectRatio="xMidYMid meet">

<g transform="translate(0.000000,859.000000) scale(0.100000,-0.100000)"
fill="#000000" stroke="none">
<path d="M5116 7501 c-3 -4 -19 -11 -36 -14 -18 -4 -30 -13 -30 -22 0 -8 -7
-15 -15 -15 -8 0 -15 -4 -15 -10 0 -5 -13 -24 -28 -42 -32 -36 -36 -44 -103
-179 -48 -96 -93 -218 -105 -286 -4 -21 -10 -42 -14 -48 -15 -19 -21 -110 -11
-154 8 -38 7 -47 -7 -57 -9 -7 -14 -16 -9 -20 9 -9 -22 -44 -40 -44 -17 0 -17
10 3 31 25 28 10 47 -53 66 -49 15 -89 18 -255 15 -108 -1 -199 2 -202 7 -5 7
35 88 66 132 17 25 3 49 -30 49 -27 0 -31 -5 -41 -46 -7 -25 -19 -58 -29 -72
-15 -25 -15 -26 0 -14 9 8 24 36 33 63 12 36 22 49 36 49 10 0 19 -2 19 -5 0
-3 -18 -41 -40 -85 -30 -59 -37 -81 -27 -87 6 -4 64 -6 127 -4 190 7 252 5
307 -8 61 -15 81 -32 57 -51 -28 -24 -43 -65 -37 -106 4 -33 1 -43 -22 -67
-51 -50 -126 -57 -205 -17 -89 45 -159 31 -230 -47 -41 -45 -42 -46 -94 -40
-81 8 -142 45 -216 128 -35 41 -82 91 -104 111 -33 32 -37 40 -26 53 35 42
149 67 292 64 76 -1 92 1 106 17 12 12 12 14 2 7 -8 -6 -81 -13 -165 -15 -129
-4 -157 -8 -203 -28 -62 -27 -77 -48 -57 -77 14 -20 10 -25 -46 -50 -4 -1 -6
9 -6 24 0 17 -10 33 -25 45 -25 17 -25 18 -11 70 15 56 12 142 -6 174 -6 11
-20 55 -32 99 -12 44 -31 100 -42 124 -11 24 -20 51 -20 60 0 9 -7 24 -15 34
-12 13 -13 20 -5 25 17 10 -28 80 -47 75 -13 -4 -13 -3 0 6 12 8 11 13 -8 34
-12 13 -22 27 -22 31 0 20 -59 80 -96 98 -81 38 -129 8 -165 -101 -19 -57 -22
-86 -21 -211 2 -307 62 -524 160 -577 17 -10 32 -23 32 -30 0 -7 5 -13 11 -13
5 0 9 -8 8 -17 -5 -50 2 -83 16 -83 28 0 15 -17 -57 -77 -78 -64 -107 -92
-167 -163 -39 -46 -121 -163 -121 -173 0 -3 -16 -28 -35 -57 -19 -29 -35 -58
-35 -66 0 -8 -5 -14 -10 -14 -6 0 -22 -27 -37 -61 -22 -52 -29 -60 -47 -55
-224 65 -461 107 -589 105 -58 0 -49 -4 148 -53 208 -52 403 -111 418 -125 8
-8 -11 -62 -27 -73 -5 -3 -19 -3 -31 2 -40 15 -234 40 -363 46 -70 4 -184 1
-255 -5 -272 -24 -275 -36 -9 -44 202 -6 396 -25 537 -53 89 -18 100 -24 91
-51 -5 -17 -23 -21 -146 -31 -163 -14 -306 -40 -455 -83 -191 -55 -210 -73
-45 -44 211 37 586 72 603 56 4 -4 -2 -36 -13 -72 -11 -35 -20 -74 -20 -87 0
-13 -19 -43 -43 -70 -64 -68 -162 -195 -188 -241 -12 -23 -26 -41 -31 -41 -4
0 -8 -7 -8 -15 0 -8 -8 -22 -19 -32 -29 -28 -164 -299 -186 -373 -4 -14 -13
-32 -20 -40 -7 -8 -15 -32 -18 -52 -2 -20 -14 -52 -25 -70 -11 -18 -26 -55
-32 -83 -7 -27 -21 -69 -31 -92 -10 -24 -19 -53 -19 -65 0 -12 -6 -40 -14 -63
-8 -22 -20 -80 -26 -130 -7 -49 -15 -97 -18 -105 -7 -19 -8 -35 -16 -277 -6
-177 -4 -217 14 -317 11 -63 20 -126 20 -141 0 -14 6 -36 14 -48 7 -12 17 -41
20 -65 4 -24 22 -67 43 -98 32 -48 36 -62 34 -107 -1 -29 2 -64 8 -77 l9 -25
12 32 c12 34 30 36 30 4 0 -11 9 -29 20 -42 l19 -24 1 47 c0 26 4 50 10 53 5
3 10 -2 10 -12 1 -30 40 -107 50 -97 5 5 10 36 12 69 l3 60 13 -60 c57 -257
113 -426 201 -600 22 -44 41 -83 41 -88 0 -4 14 -26 30 -49 17 -22 30 -47 30
-54 0 -7 13 -28 29 -46 15 -18 37 -53 48 -78 11 -25 37 -61 57 -79 20 -19 36
-39 36 -44 0 -32 243 -278 292 -296 6 -2 -3 -14 -18 -27 l-29 -23 48 -1 c26 0
47 -4 47 -9 0 -5 161 -7 363 -4 199 2 371 4 382 4 11 0 56 0 100 0 141 0 140
0 141 34 1 55 1 55 59 55 l55 0 0 -34 c0 -30 4 -36 33 -44 18 -6 204 -11 422
-12 215 -1 418 -3 453 -4 34 0 62 2 62 6 0 5 21 8 48 8 l47 1 -27 22 -27 22
22 26 c12 14 33 33 48 41 45 28 140 120 208 203 75 91 121 151 121 159 0 3 15
29 34 58 86 137 232 446 243 516 3 20 11 48 18 62 7 14 30 91 50 173 21 81 42
147 46 147 5 0 9 -28 9 -62 1 -59 2 -62 16 -43 8 11 20 39 27 63 15 57 27 53
27 -10 l1 -53 19 24 c11 13 20 31 20 42 0 32 18 30 30 -4 l12 -32 10 25 c5 14
8 50 5 80 -4 49 0 62 34 125 67 123 70 133 91 330 24 235 21 570 -6 623 -9 17
-16 49 -16 70 0 53 -34 219 -65 314 -14 42 -25 83 -25 90 0 7 -9 24 -20 38
-11 14 -20 35 -20 48 0 21 -48 130 -69 157 -5 5 -11 24 -15 40 -10 40 -102
221 -135 265 -15 19 -32 46 -39 60 -16 32 -179 262 -195 275 -50 43 -71 80
-92 159 -22 80 -22 84 -5 89 44 11 408 -24 605 -58 168 -30 134 -6 -71 50
-144 39 -329 71 -469 81 -95 6 -114 13 -115 41 0 38 410 92 716 94 68 0 124 4
124 8 0 16 -221 36 -395 35 -170 0 -356 -18 -443 -43 -31 -9 -33 -8 -52 29
l-19 38 87 30 c109 37 243 74 392 108 148 33 171 42 105 43 -108 2 -316 -31
-475 -74 -151 -41 -135 -42 -165 20 -14 31 -39 78 -55 106 -17 27 -30 60 -30
72 0 14 -18 41 -46 67 -66 65 -157 178 -150 188 7 13 -90 106 -103 98 -14 -9
-61 22 -61 40 0 8 -7 17 -16 21 -9 3 -13 12 -8 22 3 9 8 32 9 51 4 54 22 90
45 90 11 0 20 5 20 10 0 6 6 10 14 10 7 0 31 35 54 78 31 60 43 97 52 162 6
47 15 105 21 130 5 26 7 105 4 180 -6 166 -12 212 -28 222 -6 4 -8 10 -5 14
12 11 -21 64 -47 76 -14 6 -25 17 -25 25 0 15 -16 18 -24 4z m30 -1173 l19
-21 -27 18 c-29 18 -34 25 -20 25 5 0 17 -10 28 -22z m-1538 -305 c72 -52 93
-176 46 -271 -30 -61 -70 -88 -139 -97 -66 -8 -121 12 -159 58 -27 34 -29 42
-30 126 0 78 3 93 24 124 25 36 62 63 108 78 42 13 120 4 150 -18z m1393 2
c79 -38 118 -152 89 -257 -44 -157 -290 -151 -338 9 -31 105 4 226 76 257 45
19 122 15 173 -9z m-841 -45 c0 -5 20 -7 48 -4 27 4 74 -1 112 -9 35 -9 67
-14 70 -12 3 2 11 -8 17 -21 6 -14 9 -24 5 -22 -88 47 -222 61 -322 34 -30 -8
-57 -13 -59 -10 -5 5 100 54 117 54 6 0 12 -4 12 -10z m195 -91 c33 -8 45 -16
45 -29 0 -25 -54 -37 -87 -19 -21 11 -29 11 -55 -4 -37 -21 -81 -22 -98 -2
-14 17 -60 21 -60 5 0 -13 -46 -13 -71 0 -91 49 170 88 326 49z m-95 -576 c13
-14 12 -15 -10 -9 -14 3 -43 6 -64 6 -24 0 -36 4 -30 9 24 23 78 20 104 -6z
m252 -357 c9 3 29 -2 43 -12 14 -9 34 -14 47 -10 13 3 40 -3 63 -13 52 -24 99
-35 90 -21 -12 20 24 10 53 -15 17 -14 37 -25 46 -25 9 0 24 -9 33 -20 10 -11
23 -20 31 -20 18 0 120 -53 161 -84 19 -14 43 -26 52 -26 10 0 24 -6 31 -14 8
-7 28 -20 44 -29 41 -21 104 -78 104 -93 0 -7 18 -28 40 -47 22 -19 40 -41 40
-49 0 -20 26 -42 40 -33 5 3 15 -6 20 -21 6 -15 22 -40 36 -57 14 -16 36 -52
50 -78 13 -27 29 -49 34 -49 6 0 10 -6 10 -13 0 -7 14 -35 31 -62 31 -48 58
-122 64 -176 2 -15 15 -50 29 -78 27 -52 34 -87 16 -76 -15 9 -12 -4 10 -39
17 -28 32 -100 44 -211 2 -17 11 -47 19 -68 18 -43 22 -107 12 -189 -6 -43 -5
-58 4 -58 16 0 4 -154 -15 -192 -20 -38 -18 -72 2 -64 13 5 15 1 10 -22 -3
-15 -10 -56 -15 -90 -6 -35 -22 -84 -37 -109 -18 -31 -27 -62 -29 -101 -4 -73
-20 -117 -51 -137 -13 -8 -24 -22 -24 -30 0 -9 -4 -23 -9 -33 -5 -9 -14 -35
-21 -57 -7 -22 -23 -48 -36 -57 -12 -10 -26 -29 -30 -41 -4 -12 -27 -44 -52
-72 -25 -27 -55 -66 -67 -85 -46 -71 -282 -290 -314 -290 -10 0 -26 -9 -36
-20 -10 -11 -50 -37 -89 -59 -39 -21 -94 -54 -122 -74 -29 -19 -103 -56 -165
-82 -63 -26 -143 -60 -179 -76 -74 -32 -194 -64 -209 -54 -6 3 -34 -1 -64 -10
-52 -15 -55 -15 -154 15 -270 80 -563 219 -778 369 -157 110 -347 296 -435
426 -130 192 -186 330 -221 540 -12 66 -25 124 -30 129 -13 14 -11 46 2 46 6
0 9 6 6 13 -2 6 -9 11 -15 10 -7 -2 -7 8 -1 30 8 30 14 244 11 367 -2 70 7
118 19 99 12 -19 15 -11 22 50 6 49 5 53 -13 48 -24 -6 -25 8 -5 43 8 14 14
36 15 49 0 42 23 102 36 97 12 -5 34 68 34 111 0 21 -16 5 -23 -22 -3 -15 -5
-13 -6 8 -1 31 19 76 43 96 14 12 16 9 16 -25 1 -34 2 -36 12 -19 6 10 12 42
12 70 1 41 4 50 18 49 13 -1 21 10 28 40 25 100 34 121 66 154 19 19 34 41 34
49 0 7 7 13 15 13 8 0 15 8 15 18 0 10 13 28 30 40 16 12 27 28 24 35 -3 8 2
19 9 26 12 9 16 8 21 -4 10 -27 26 -16 52 38 31 60 122 144 217 197 34 19 78
45 97 57 19 13 39 23 44 23 6 0 26 11 45 24 20 13 50 26 66 30 l30 6 -27 -15
c-16 -9 -28 -20 -28 -26 0 -13 -5 -15 102 44 92 51 159 68 218 56 23 -5 42 -3
55 5 37 23 152 39 238 32 45 -3 97 -3 116 2 18 4 72 4 120 0 47 -4 94 -5 103
-2z m-1411 -439 c-16 -16 -26 0 -10 19 9 11 15 12 17 4 2 -6 -1 -17 -7 -23z
m-275 -353 c-4 -9 -9 -15 -11 -12 -3 3 -3 13 1 22 4 9 9 15 11 12 3 -3 3 -13
-1 -22z m-109 -276 c-3 -8 -6 -5 -6 6 -1 11 2 17 5 13 3 -3 4 -12 1 -19z"/>
<path d="M3440 5900 c-28 -28 -26 -81 3 -108 31 -29 72 -28 102 3 30 29 32 45
5 45 -11 0 -20 7 -20 15 0 8 7 15 15 15 20 0 19 13 -3 33 -25 23 -78 21 -102
-3z"/>
<path d="M4862 5900 c-46 -43 -13 -130 50 -130 31 0 64 26 73 58 6 21 4 23
-14 17 -15 -5 -21 -2 -21 9 0 9 7 16 15 16 20 0 19 13 -3 33 -25 23 -74 21
-100 -3z"/>
<path d="M4095 4543 c-57 -30 -162 -134 -171 -169 -20 -79 108 -64 201 23 32
29 73 53 92 53 25 0 84 -38 138 -89 67 -63 155 -69 155 -11 0 43 -134 172
-215 206 -55 23 -142 17 -200 -13z"/>
<path d="M3415 4470 c-59 -30 -101 -71 -170 -165 -23 -31 -55 -116 -49 -127
10 -16 38 -7 96 32 33 22 64 40 68 40 5 0 10 3 12 8 8 18 94 72 116 72 14 0
58 -17 98 -37 63 -32 76 -35 98 -25 83 38 -56 197 -189 217 -29 4 -51 1 -80
-15z"/>
<path d="M4990 4443 c-72 -11 -211 -74 -240 -108 -7 -8 -9 -26 -6 -39 8 -34
56 -42 160 -27 115 16 129 10 269 -106 43 -36 55 -40 63 -19 7 19 -21 110 -48
154 -29 49 -78 110 -92 115 -63 27 -85 33 -106 30z"/>
<path d="M4498 4055 c-32 -13 -73 -34 -90 -46 -46 -31 -118 -106 -118 -121 1
-33 19 -43 78 -41 58 1 70 5 183 56 55 25 56 25 95 7 36 -16 65 -42 129 -113
45 -50 125 -46 125 5 0 23 -40 98 -52 98 -4 0 -8 6 -8 14 0 19 -117 124 -155
140 -61 26 -126 26 -187 1z"/>
<path d="M3775 4058 c-74 -19 -158 -99 -206 -194 -17 -35 -29 -70 -27 -80 11
-57 92 -36 184 48 94 85 100 88 161 78 29 -5 78 -23 108 -39 65 -36 114 -40
139 -12 16 17 16 22 3 48 -19 37 -88 86 -181 129 -77 35 -112 39 -181 22z"/>
<path d="M3055 3900 c-87 -44 -155 -133 -163 -210 -3 -31 -1 -50 6 -50 5 0 30
16 54 36 23 20 72 50 106 66 74 34 133 35 214 3 36 -15 54 -17 75 -9 35 12 39
33 16 81 -33 72 -90 101 -198 102 -52 1 -81 -4 -110 -19z"/>
<path d="M5180 3885 c-83 -26 -152 -112 -120 -150 17 -20 46 -19 115 5 113 39
173 23 269 -73 40 -39 75 -66 83 -63 9 4 13 24 13 61 0 47 -6 65 -34 109 -38
59 -83 97 -135 115 -45 15 -135 13 -191 -4z"/>
<path d="M4200 6675 c0 -2 20 -13 44 -24 51 -22 118 -87 136 -131 7 -16 16
-30 21 -30 16 0 10 16 -28 73 -28 42 -51 64 -94 87 -53 28 -79 36 -79 25z"/>
<path d="M5081 6384 c13 -16 29 -19 29 -5 0 5 -9 11 -21 14 -16 4 -18 3 -8 -9z"/>
<path d="M5470 5915 c0 -15 18 -40 24 -34 3 3 -1 14 -9 25 -8 10 -14 15 -15 9z"/>
</g>
</svg>
