<?xml version="1.0" standalone="no"?>
<!DOCTYPE svg PUBLIC "-//W3C//DTD SVG 20010904//EN"
 "http://www.w3.org/TR/2001/REC-SVG-20010904/DTD/svg10.dtd">
<svg version="1.0" xmlns="http://www.w3.org/2000/svg"
 width="900.000000pt" height="1009.000000pt" viewBox="0 0 900.000000 1009.000000"
 preserveAspectRatio="xMidYMid meet">

<g transform="translate(0.000000,1009.000000) scale(0.100000,-0.100000)"
fill="#000000" stroke="none">
<path d="M3795 9248 c-11 -6 -67 -56 -125 -111 -58 -55 -128 -117 -156 -138
-50 -39 -330 -199 -347 -199 -5 0 -70 -24 -145 -54 -75 -29 -186 -72 -245 -95
-126 -49 -214 -98 -273 -153 -39 -36 -132 -185 -177 -282 -10 -22 -61 -100
-113 -173 -132 -185 -202 -344 -212 -479 -2 -39 3 -146 13 -237 10 -92 14
-186 11 -209 -9 -56 -71 -168 -135 -241 -61 -70 -72 -106 -60 -191 20 -143 84
-243 169 -266 83 -22 457 -45 740 -45 186 0 201 1 321 32 149 38 447 139 470
159 22 20 25 19 82 -31 60 -53 119 -73 303 -106 134 -24 383 -29 490 -10 92
17 179 66 271 154 74 71 83 77 102 66 16 -11 30 -10 75 4 43 14 64 28 92 62
33 41 40 45 81 45 79 0 102 -17 228 -175 89 -111 133 -157 177 -186 114 -73
208 -71 325 7 36 24 76 44 88 44 58 0 216 155 229 224 5 26 13 36 32 40 25 7
26 9 19 65 l-7 57 82 90 c45 49 98 117 118 151 21 35 40 63 45 63 4 0 7 -13 7
-29 0 -19 -13 -44 -36 -72 -46 -55 -64 -91 -64 -127 0 -42 11 -46 32 -12 22
37 59 60 162 102 55 22 81 28 84 20 2 -8 28 -12 70 -12 l67 -1 -70 -33 c-44
-20 -85 -49 -111 -78 -39 -43 -47 -58 -73 -155 -6 -22 -24 -55 -40 -72 -24
-26 -35 -30 -74 -29 -25 0 -50 -3 -56 -6 -14 -9 -15 -66 -1 -66 6 0 10 9 10
19 0 24 8 30 54 35 72 10 114 54 141 151 10 33 24 72 31 86 17 34 214 161 214
139 0 -6 20 -10 45 -10 34 0 58 8 100 35 41 26 55 32 55 20 0 -17 -18 -37 -68
-76 -30 -23 -32 -28 -22 -50 18 -40 60 -50 112 -28 l43 19 -42 -35 -42 -36 27
-50 c32 -57 42 -62 105 -50 36 6 47 5 47 -4 0 -14 -78 -89 -100 -97 -10 -3 -9
-10 4 -31 18 -27 15 -47 -9 -47 -20 0 -27 -16 -31 -66 -1 -27 -18 -73 -43
-121 -22 -42 -37 -81 -33 -85 5 -5 51 -10 104 -11 86 -2 98 -4 131 -30 20 -15
41 -36 45 -45 16 -31 -8 -83 -62 -137 -45 -43 -65 -55 -131 -74 -51 -16 -92
-22 -121 -18 -42 4 -57 -4 -34 -18 24 -15 139 -5 196 16 105 39 204 159 189
228 -7 33 -70 88 -118 102 -18 6 -60 10 -94 11 -35 0 -63 2 -63 3 0 2 13 32
30 67 18 38 30 79 30 104 0 34 5 45 26 59 14 9 32 14 39 11 7 -2 35 2 61 10
66 20 75 13 35 -24 -34 -31 -34 -32 -16 -52 10 -11 19 -30 21 -43 1 -12 3 -25
3 -29 1 -5 7 -8 14 -8 7 0 18 -13 24 -30 l11 -30 49 15 c66 20 67 20 28 -21
l-35 -36 20 -26 c16 -20 19 -34 15 -66 -5 -33 -2 -47 14 -68 12 -14 21 -35 21
-46 0 -10 9 -27 19 -36 18 -16 22 -16 50 -2 43 23 46 20 17 -14 -26 -31 -26
-54 0 -64 8 -3 14 -16 14 -30 0 -16 10 -32 28 -45 16 -11 40 -36 53 -55 13
-20 28 -36 33 -36 4 0 38 23 74 52 l65 52 -6 -49 c-4 -28 -23 -83 -44 -124
-42 -84 -70 -107 -183 -148 -61 -22 -91 -27 -160 -27 -80 1 -90 4 -179 48 -52
25 -109 46 -126 46 -29 0 -33 4 -45 43 -7 23 -23 63 -36 90 -19 36 -22 52 -14
67 12 22 13 60 3 60 -5 0 -16 -19 -27 -41 l-18 -40 33 -62 c30 -55 33 -70 32
-132 -2 -52 2 -74 14 -87 15 -17 15 -18 -5 -18 -12 0 -66 -18 -119 -39 -145
-58 -291 -101 -341 -101 -29 0 -41 -4 -36 -11 12 -20 103 -3 254 49 80 27 165
58 190 67 32 13 55 16 75 10 l30 -8 -45 -12 c-25 -6 -69 -24 -98 -39 -87 -44
-302 -112 -402 -127 -52 -7 -51 -8 20 -5 86 4 217 43 377 112 126 54 205 64
308 39 79 -19 137 -49 177 -92 15 -16 67 -86 116 -156 49 -71 136 -178 193
-239 120 -128 128 -140 129 -190 0 -69 -107 -243 -139 -224 -5 3 -19 51 -32
106 -23 99 -39 128 -39 71 0 -36 41 -195 82 -319 26 -79 29 -98 20 -128 -13
-45 10 -48 28 -3 11 26 10 39 -4 86 -10 30 -15 57 -13 59 3 3 47 14 98 24 112
23 152 16 207 -36 20 -19 47 -37 59 -40 43 -11 55 -135 28 -289 -15 -84 -5
-127 14 -59 23 81 33 169 28 230 l-6 63 42 -29 c94 -63 388 -212 477 -241 173
-58 196 -78 225 -202 41 -179 2 -382 -109 -566 -52 -84 -59 -89 -141 -86 -86
4 -87 4 -220 54 -128 48 -186 81 -234 132 -42 43 -98 143 -105 185 -11 68 -19
153 -20 204 -2 63 -17 77 -30 28 -72 -267 -175 -478 -287 -587 -40 -39 -59
-51 -74 -46 -11 3 -47 13 -80 21 -33 9 -69 21 -80 26 -18 9 -18 9 -5 -5 18
-17 142 -57 180 -57 17 0 33 8 41 20 13 20 18 20 89 9 143 -22 266 -48 415
-90 131 -36 164 -41 262 -43 l112 -1 62 60 c75 74 140 170 195 294 54 118 69
204 60 341 -10 148 -20 182 -75 239 -41 42 -58 52 -151 82 -106 33 -386 169
-492 237 -32 20 -63 47 -69 59 -7 12 -26 27 -43 33 -17 6 -48 27 -69 48 l-38
37 -87 -1 c-63 0 -102 -6 -140 -21 l-52 -21 -15 35 c-8 20 -15 39 -15 43 0 3
19 22 41 40 48 38 119 176 119 231 0 46 -22 77 -134 194 -52 55 -143 166 -201
248 -146 203 -191 234 -377 260 -93 13 -108 27 -108 100 0 36 1 37 35 37 20 0
65 -15 103 -34 90 -45 158 -59 251 -54 81 5 164 35 227 83 22 17 46 25 73 25
33 0 49 7 82 37 l42 38 -7 -68 c-7 -62 -6 -67 12 -67 11 0 35 17 55 39 28 31
40 38 61 34 47 -9 76 5 93 45 25 59 63 221 63 267 0 23 3 45 6 48 4 4 20 -5
36 -18 36 -31 81 -32 109 -4 37 37 12 135 -67 261 -31 49 -30 59 4 52 63 -13
192 53 192 97 0 15 -5 19 -17 15 -48 -14 -184 -26 -200 -18 -14 8 -11 12 18
27 123 64 301 255 237 255 -6 0 -63 -23 -126 -51 -147 -65 -187 -79 -226 -79
l-31 1 25 20 c144 115 154 131 152 248 -1 69 -6 94 -28 138 -15 32 -35 58 -49
63 -16 6 -25 20 -30 46 -11 62 -64 149 -80 133 -2 -2 -9 -45 -15 -94 -14 -107
-19 -116 -78 -177 -50 -52 -62 -58 -62 -30 0 43 -22 93 -46 104 -23 11 -24 16
-24 95 0 64 -6 103 -25 159 -30 91 -31 107 -4 151 12 19 18 37 15 40 -3 4 -24
-4 -46 -16 l-40 -22 -25 28 c-27 32 -33 15 -9 -26 15 -26 14 -29 -20 -81 -20
-30 -36 -58 -36 -62 0 -21 -19 -4 -25 21 -3 17 -19 46 -36 67 -35 44 -140 130
-186 152 -58 28 -56 3 7 -93 33 -50 59 -96 60 -102 0 -19 -26 -16 -78 11 -150
76 -349 104 -411 58 l-31 -23 0 28 c0 25 -13 50 -52 105 -10 15 -10 21 5 35
14 14 34 18 96 18 68 0 82 -3 120 -28 35 -23 45 -26 52 -15 39 60 -42 172
-148 204 -44 13 -182 20 -171 8 3 -3 42 -9 86 -13 48 -5 99 -17 126 -31 53
-25 96 -81 96 -122 0 -32 -3 -33 -33 -14 -68 45 -212 39 -244 -10 -15 -23 -14
-26 12 -65 37 -52 45 -130 20 -183 -21 -45 -153 -187 -198 -214 -29 -18 -48
-19 -125 -13 -7 1 -24 12 -37 25 -23 23 -23 28 -19 145 4 117 5 123 31 145 36
31 27 55 -10 26 -15 -12 -27 -18 -27 -15 0 4 -6 2 -13 -4 -8 -6 -31 -13 -53
-17 -21 -3 -103 -18 -181 -33 -79 -15 -143 -26 -143 -23 0 2 9 16 21 30 28 37
5 42 -31 7 -50 -48 -135 -42 -128 8 2 11 -2 22 -8 24 -16 5 -93 -83 -114 -130
l-17 -38 -11 53 c-11 55 -9 210 3 266 17 76 -49 -10 -75 -98 l-7 -25 -12 28
c-17 44 -67 54 -156 30 -18 -5 -18 -3 4 21 42 45 1 31 -65 -23 -56 -45 -158
-91 -171 -77 -3 3 2 8 11 12 9 3 16 12 16 20 0 17 -17 18 -23 2 -4 -10 -8 -10
-15 0 -7 11 -18 11 -46 4 -41 -12 -42 -9 -20 44 15 35 15 39 -2 51 -21 15
-115 17 -163 3 -19 -5 -36 -8 -39 -6 -2 2 6 22 18 45 11 23 18 41 14 41 -4 0
-1 7 6 15 15 18 -1 21 -30 5 -27 -14 -249 -60 -293 -60 l-39 0 52 68 c29 37
66 79 82 93 l30 26 -26 5 c-15 3 -29 1 -33 -5 -17 -28 -232 15 -289 58 -17 13
-14 14 37 15 31 0 76 7 100 15 44 16 99 60 99 79 0 6 -11 -1 -25 -17 -38 -41
-76 -56 -159 -65 -62 -7 -78 -5 -91 7 -26 26 -16 -4 15 -47 43 -60 97 -84 203
-90 48 -3 86 -8 85 -12 -2 -4 -20 -26 -41 -49 l-37 -41 -63 26 c-34 14 -89 46
-123 70 -97 69 -209 83 -274 35 l-28 -20 -36 43 -35 43 54 63 c90 104 130 267
129 535 0 137 -5 185 -32 334 -42 224 -73 300 -158 390 -97 103 -210 153 -269
119z m105 -38 c0 -5 -2 -10 -4 -10 -3 0 -8 5 -11 10 -3 6 -1 10 4 10 6 0 11
-4 11 -10z m34 -21 c-3 -5 -10 -7 -15 -3 -5 3 -7 10 -3 15 3 5 10 7 15 3 5 -3
7 -10 3 -15z m46 -41 c10 -21 10 -21 -3 -6 -8 10 -18 14 -22 10 -5 -4 -5 -1
-1 6 10 17 14 15 26 -10z m90 -60 c0 -4 -4 -8 -10 -8 -5 0 -9 6 -7 13 1 6 -3
11 -9 10 -6 -1 -11 5 -11 13 0 11 4 11 19 -3 10 -9 18 -20 18 -25z m49 -78
c11 -24 11 -24 -3 -6 -9 11 -16 24 -16 30 0 12 5 7 19 -24z m-1550 -503 c-2
-1 -13 -9 -24 -17 -19 -14 -19 -14 -6 3 7 9 18 17 24 17 6 0 8 -1 6 -3z m-312
-486 c0 -11 -5 -18 -9 -15 -4 3 -5 11 -1 19 7 21 12 19 10 -4z m1474 -372
c233 -33 230 -33 239 -18 6 9 11 5 16 -16 14 -57 -31 -208 -86 -286 -19 -25
-28 -29 -70 -29 -27 0 -79 6 -117 14 -82 17 -118 14 -152 -13 -68 -55 -206
-143 -286 -184 -160 -81 -194 -116 -239 -252 -23 -70 -49 -110 -95 -143 -49
-36 -143 -66 -177 -58 -25 7 -25 7 -7 36 21 36 11 50 -18 24 l-21 -19 7 38 c5
23 3 37 -3 37 -6 0 -12 -6 -15 -12 -3 -10 -9 -9 -22 4 -16 15 -16 21 -5 48 14
33 7 51 -12 32 -19 -19 -26 -15 -38 22 -7 23 -7 41 0 60 9 25 8 27 -13 24 -28
-4 -34 29 -13 70 15 29 33 40 176 104 73 33 194 121 227 166 25 34 259 237
341 296 67 48 134 75 193 76 25 0 110 -9 190 -21z m1052 -136 c-7 -2 -19 -2
-25 0 -7 3 -2 5 12 5 14 0 19 -2 13 -5z m790 -62 c29 -11 47 -71 47 -160 0
-50 6 -69 34 -118 31 -53 76 -106 76 -89 0 4 9 2 20 -4 31 -17 42 -3 25 30 -8
16 -15 43 -15 59 0 37 31 121 56 154 l19 23 1 -70 c0 -39 6 -88 13 -108 16
-49 41 -51 41 -3 0 39 26 71 62 79 13 3 75 13 138 22 63 8 147 27 185 40 39
14 79 28 89 31 18 6 19 2 13 -58 -3 -35 -11 -80 -17 -101 -16 -54 -97 -173
-178 -260 -77 -84 -89 -108 -72 -153 9 -25 8 -31 -6 -42 -10 -7 -21 -13 -24
-13 -4 0 -12 -18 -19 -39 -14 -48 -94 -138 -159 -179 -73 -47 -123 -27 -138
55 -9 48 -24 51 -24 5 0 -26 9 -52 25 -77 25 -35 25 -38 8 -51 -54 -43 -99
-57 -178 -58 -75 -1 -84 1 -140 36 -47 29 -84 66 -173 176 -121 151 -167 186
-244 187 -21 0 -38 1 -38 3 0 1 9 20 19 40 11 21 29 85 41 142 33 156 66 230
102 230 4 0 8 -20 8 -44 0 -25 5 -48 10 -51 6 -4 39 14 74 39 l64 45 11 -27
c7 -16 24 -36 40 -45 25 -14 30 -15 47 -2 18 14 18 14 -3 15 -29 0 -73 55 -73
91 0 16 7 46 15 66 8 19 15 51 15 70 0 47 24 79 73 97 73 26 97 29 130 17z
m-502 -234 c-10 -9 -11 -8 -5 6 3 10 9 15 12 12 3 -3 0 -11 -7 -18z m1241
-279 c-7 -7 -12 -8 -12 -2 0 14 12 26 19 19 2 -3 -1 -11 -7 -17z m-4361 -455
c13 -16 12 -17 -3 -4 -10 7 -18 15 -18 17 0 8 8 3 21 -13z"/>
<path d="M5448 7311 c-53 -49 -45 -63 13 -22 44 33 77 39 97 19 16 -16 29 -1
16 20 -6 10 -27 18 -47 20 -31 3 -43 -3 -79 -37z"/>
<path d="M5530 7250 c0 -53 15 -67 26 -25 7 30 -2 75 -16 75 -6 0 -10 -22 -10
-50z"/>
<path d="M6126 7250 c-32 -10 -96 -51 -96 -62 0 -12 30 -9 84 7 60 18 116 11
124 -17 2 -10 10 -17 16 -15 21 7 17 34 -9 66 -28 33 -60 38 -119 21z"/>
<path d="M6020 7089 c0 -18 4 -20 25 -15 14 3 36 9 49 12 31 7 56 -19 56 -58
0 -37 24 -33 28 5 2 18 -5 35 -22 52 -21 21 -35 25 -81 25 -49 0 -55 -2 -55
-21z"/>
<path d="M6039 7000 c-80 -42 -119 -130 -63 -144 32 -8 91 37 86 66 -5 26 15
48 43 48 18 0 22 4 18 20 -3 11 -9 20 -13 20 -5 0 -14 2 -22 5 -7 2 -29 -4
-49 -15z"/>
<path d="M5186 6904 c-9 -24 -7 -72 3 -78 5 -3 11 17 13 44 3 49 -4 65 -16 34z"/>
<path d="M5896 6855 c4 -9 15 -20 25 -25 23 -13 69 -13 69 0 0 6 -10 10 -23
10 -13 0 -32 7 -43 15 -25 19 -35 19 -28 0z"/>
<path d="M685 9223 c-16 -8 -48 -30 -70 -48 -31 -24 -53 -33 -96 -38 -59 -6
-201 -57 -253 -92 -39 -26 -62 -74 -71 -147 -6 -56 -5 -58 19 -68 14 -5 26
-13 26 -17 0 -5 14 -16 30 -25 25 -14 30 -23 28 -45 -3 -24 1 -28 23 -31 15
-2 42 3 60 12 l34 14 -55 -4 c-36 -2 -45 -1 -26 4 34 8 47 32 18 32 -32 0 -52
11 -52 28 0 8 -3 12 -7 9 -10 -11 -33 13 -33 34 0 21 -15 25 -25 9 -5 -8 -11
-7 -20 0 -12 10 -12 18 2 51 8 22 13 48 10 58 -9 38 71 91 207 137 83 29 115
31 96 9 -25 -31 10 -14 57 27 58 50 146 92 193 92 19 0 57 -10 84 -23 63 -31
98 -86 121 -193 20 -95 34 -112 185 -228 165 -126 228 -201 280 -330 30 -74
66 -105 133 -115 23 -3 62 -13 87 -22 l46 -15 1 -91 c1 -56 -4 -103 -12 -122
-7 -16 -47 -70 -89 -120 -42 -49 -81 -106 -87 -126 l-11 -35 -61 63 c-71 74
-190 167 -290 225 -39 22 -94 64 -122 92 -48 46 -56 61 -90 165 -73 223 -149
333 -263 383 -53 24 -174 35 -237 21 -34 -8 -22 -10 82 -16 138 -7 173 -18
236 -76 70 -65 93 -106 147 -264 28 -82 57 -161 64 -175 23 -43 74 -86 181
-152 163 -101 338 -258 349 -313 38 -185 40 -204 27 -284 -30 -173 -27 -205
23 -261 19 -20 62 -82 96 -137 34 -55 74 -113 88 -128 32 -34 110 -82 119 -73
4 3 4 8 2 9 -2 2 -30 23 -61 46 -37 26 -75 67 -106 114 -26 39 -74 107 -105
151 -65 89 -68 107 -42 243 19 98 19 153 0 223 -33 124 -14 186 90 295 94 99
108 129 100 219 -11 117 31 183 179 280 93 61 125 74 219 86 37 4 74 13 82 20
28 23 -11 59 -49 44 -25 -10 -19 -22 9 -16 14 2 25 0 25 -7 0 -11 -23 -18 -82
-24 -21 -1 -38 1 -38 6 0 5 39 48 88 96 79 79 99 93 212 148 250 121 429 157
582 117 64 -16 91 -12 42 6 -137 53 -347 25 -559 -74 -190 -89 -288 -159 -345
-248 -33 -50 -48 -62 -125 -102 l-88 -46 -123 120 c-67 65 -140 128 -162 139
-39 20 -112 40 -223 61 -50 10 -57 14 -62 38 -9 46 -62 108 -114 133 -38 19
-64 24 -123 24 -77 0 -90 5 -90 41 0 40 -31 124 -57 155 -15 17 -45 40 -68 50
-50 23 -148 24 -190 2z m476 -274 c53 -16 105 -63 134 -120 14 -26 33 -53 44
-58 10 -6 59 -17 107 -26 149 -26 253 -87 367 -217 l56 -64 -70 -72 c-69 -70
-71 -72 -97 -58 -15 8 -56 20 -92 27 -88 16 -113 36 -129 98 -27 106 -130 225
-311 361 -96 72 -140 113 -140 131 0 13 85 11 131 -2z"/>
<path d="M5553 8855 c-12 -22 -44 -71 -72 -110 -28 -38 -51 -73 -51 -78 0 -4
-4 -5 -10 -2 -5 3 -10 21 -10 38 0 18 -3 42 -6 55 -7 24 -24 30 -24 9 0 -8
-60 -86 -134 -175 -150 -180 -156 -194 -139 -311 6 -33 8 -61 5 -61 -2 0 -16
8 -30 19 -15 10 -72 31 -127 46 -55 15 -114 36 -132 46 -38 24 -71 74 -93 143
l-16 49 -22 -41 c-38 -73 -54 -156 -43 -218 12 -65 42 -135 77 -181 l25 -33
-74 6 c-106 9 -199 -24 -113 -40 18 -4 54 -17 80 -30 31 -15 42 -18 34 -8 -7
8 -33 24 -58 36 l-45 20 30 6 c41 8 133 -7 172 -27 18 -10 35 -14 38 -11 3 3
-10 31 -30 63 -58 89 -86 184 -92 303 -3 56 -3 102 0 102 3 0 17 -21 32 -47
57 -99 89 -121 221 -154 49 -12 114 -35 143 -50 30 -16 57 -27 59 -25 2 3 -2
14 -8 26 -9 17 -6 36 15 99 30 91 100 199 216 332 28 33 23 3 -10 -55 -15 -28
-34 -69 -41 -90 -15 -47 -17 -133 -2 -148 12 -12 17 3 27 73 3 26 13 55 21 65
14 18 15 18 4 -3 -13 -27 -10 -92 5 -100 5 -4 7 -3 3 1 -11 13 21 101 69 187
73 132 92 171 104 212 5 21 14 35 18 33 13 -9 34 -152 29 -203 -4 -39 -22 -89
-56 -155 -2 -5 4 -8 12 -8 20 0 52 50 68 105 6 22 16 45 21 50 7 7 8 6 3 -2
-3 -6 -2 -14 3 -18 9 -5 30 52 31 85 1 37 21 -24 29 -85 6 -51 4 -68 -6 -77
-34 -28 -76 -148 -53 -148 5 0 16 12 24 28 36 67 127 141 261 212 84 44 108
60 102 67 -7 6 -157 -56 -191 -78 l-31 -21 30 26 c39 34 131 76 175 81 19 2
53 6 75 10 l40 8 -50 -39 c-27 -21 -60 -50 -73 -64 -38 -41 -71 -124 -81 -206
-5 -42 -14 -81 -20 -87 -15 -15 -14 -27 3 -27 7 0 33 23 57 50 55 64 97 91
182 120 57 19 81 22 150 17 45 -3 96 -11 112 -17 l30 -12 -61 -22 c-125 -46
-244 -157 -244 -227 0 -14 -6 -31 -12 -38 -11 -11 -7 -12 22 -6 57 13 172 14
195 2 11 -6 29 -12 40 -13 11 -2 0 7 -25 19 -36 18 -61 21 -128 20 l-84 -1 7
26 c16 66 85 125 212 183 112 51 116 53 121 67 6 19 -35 32 -142 44 -92 10
-111 10 -168 -6 -75 -21 -147 -64 -183 -112 -38 -50 -49 -44 -42 23 11 106 78
206 201 301 16 12 26 25 23 28 -3 4 -51 2 -106 -4 -117 -12 -183 -42 -274
-123 -30 -27 -58 -49 -61 -49 -3 0 -6 22 -6 49 0 59 -54 171 -102 213 -18 15
-37 40 -43 55 l-12 28 -20 -40z m82 -75 c3 -5 1 -10 -4 -10 -6 0 -11 5 -11 10
0 6 2 10 4 10 3 0 8 -4 11 -10z m-245 -54 c0 -8 -7 -16 -15 -20 -12 -4 -13 -2
-2 14 14 24 17 25 17 6z"/>
<path d="M3130 8832 c6 -13 14 -21 18 -18 3 4 -2 14 -12 24 -18 16 -18 16 -6
-6z"/>
<path d="M6455 8096 c17 -14 57 -40 90 -58 52 -28 73 -33 160 -38 87 -5 96 -8
73 -17 -62 -27 -39 -45 42 -32 30 5 55 7 57 5 8 -7 -111 -137 -144 -157 -19
-12 -32 -24 -29 -26 15 -16 184 138 215 195 10 19 8 19 -27 11 -20 -5 -50 -9
-67 -9 l-29 0 33 28 33 27 -134 0 -133 0 -75 44 c-94 55 -102 58 -65 27z"/>
<path d="M6608 6892 c-17 -10 -28 -25 -28 -39 0 -21 4 -23 58 -23 52 0 62 -3
87 -30 35 -37 62 -39 71 -6 19 78 -112 146 -188 98z"/>
<path d="M6547 6697 c-33 -11 -31 -32 4 -33 45 -1 70 -15 83 -47 12 -28 14
-30 21 -13 12 27 -24 88 -55 96 -14 4 -38 3 -53 -3z"/>
<path d="M6488 6596 c-30 -37 -38 -56 -36 -80 3 -27 7 -31 28 -28 14 1 34 11
44 22 16 16 17 22 7 34 -11 13 -10 17 5 23 25 9 34 23 34 55 0 43 -37 32 -82
-26z"/>
<path d="M6128 6429 c-49 -39 -88 -77 -88 -87 0 -9 -7 -30 -15 -46 -19 -35
-19 -63 -1 -73 7 -4 18 -18 25 -31 10 -19 8 -27 -14 -56 -30 -39 -31 -58 -6
-100 11 -19 21 -59 24 -104 11 -142 50 -181 192 -193 121 -10 130 -13 145 -49
13 -31 5 -164 -12 -209 -7 -21 -6 -22 6 -12 21 18 39 114 34 184 -6 83 -21 93
-147 102 -155 11 -183 38 -195 189 -5 56 -12 86 -26 104 -26 32 -25 37 6 78
30 39 27 71 -8 103 -20 20 -21 22 -5 58 9 21 19 48 22 60 3 13 32 43 63 67 51
39 102 87 91 86 -2 -1 -43 -32 -91 -71z"/>
<path d="M7037 6437 c-22 -16 -13 -47 14 -47 25 0 36 28 17 46 -11 12 -17 12
-31 1z"/>
<path d="M6984 6349 c-10 -17 13 -36 27 -22 12 12 4 33 -11 33 -5 0 -12 -5
-16 -11z"/>
<path d="M7107 6344 c-14 -15 -6 -43 14 -49 23 -8 41 9 36 35 -2 16 -38 26
-50 14z"/>
<path d="M6995 6193 c-53 -12 -88 -27 -115 -50 -37 -30 -30 -51 8 -23 15 11
41 23 58 26 27 5 33 3 39 -15 3 -12 11 -21 16 -21 13 0 11 24 -3 38 -9 9 -7
12 13 13 13 1 31 1 41 0 28 -3 31 19 3 29 -14 6 -29 9 -33 9 -4 -1 -16 -3 -27
-6z"/>
<path d="M7217 6153 c-15 -14 -7 -43 12 -43 26 0 36 17 21 35 -14 16 -23 19
-33 8z"/>
<path d="M7190 6005 c-15 -18 -5 -35 20 -35 10 0 22 5 25 10 7 11 -12 40 -25
40 -4 0 -13 -7 -20 -15z"/>
<path d="M7073 5943 c-7 -3 -13 -16 -13 -29 0 -19 5 -24 25 -24 20 0 25 5 25
24 0 25 -15 36 -37 29z"/>
<path d="M7235 5880 c-3 -5 -2 -10 4 -10 5 0 13 5 16 10 3 6 2 10 -4 10 -5 0
-13 -4 -16 -10z"/>
<path d="M7325 5880 c-7 -12 2 -30 16 -30 12 0 12 27 0 35 -5 3 -12 1 -16 -5z"/>
<path d="M6935 5840 c-4 -7 -3 -16 3 -22 14 -14 45 -2 40 15 -6 16 -34 21 -43
7z"/>
<path d="M6523 5819 c-34 -22 -43 -39 -19 -39 16 0 66 38 66 51 0 14 -12 11
-47 -12z"/>
<path d="M7155 5810 c-8 -12 20 -24 35 -15 6 3 8 11 5 16 -8 12 -32 12 -40 -1z"/>
<path d="M7457 5744 c-13 -13 -7 -24 14 -24 11 0 19 5 17 12 -5 14 -22 21 -31
12z"/>
<path d="M6990 5730 c0 -5 5 -10 10 -10 6 0 10 5 10 10 0 6 -4 10 -10 10 -5 0
-10 -4 -10 -10z"/>
<path d="M7080 5690 c0 -5 7 -10 16 -10 8 0 12 5 9 10 -3 6 -10 10 -16 10 -5
0 -9 -4 -9 -10z"/>
<path d="M7277 5686 c-7 -18 1 -26 25 -26 13 0 18 6 16 17 -4 22 -34 29 -41 9z"/>
<path d="M7210 5625 c0 -8 5 -15 10 -15 6 0 10 7 10 15 0 8 -4 15 -10 15 -5 0
-10 -7 -10 -15z"/>
<path d="M6264 5429 c-64 -45 -97 -74 -49 -44 17 11 54 34 84 52 30 18 48 33
40 33 -9 0 -42 -18 -75 -41z"/>
<path d="M6284 5395 c-10 -15 -13 -32 -9 -42 6 -15 9 -13 16 10 4 16 13 35 20
43 8 10 8 14 0 14 -6 0 -18 -11 -27 -25z"/>
<path d="M6155 5358 c-25 -14 -185 -140 -185 -145 0 -7 150 103 205 149 13 11
4 9 -20 -4z"/>
<path d="M5005 5290 c-10 -11 -25 -20 -33 -20 -8 0 -37 -14 -64 -31 -38 -25
-48 -37 -48 -58 0 -30 56 -141 71 -141 5 0 2 -11 -7 -25 -22 -33 -38 -32 -68
8 -29 38 -42 82 -27 91 6 4 11 12 11 18 0 7 -6 6 -15 -2 -23 -19 -18 -62 15
-114 26 -40 35 -47 58 -44 18 2 32 13 42 34 8 16 25 40 38 52 12 12 22 31 22
42 0 11 6 20 14 20 8 0 22 10 30 22 13 18 18 19 31 8 27 -23 28 -2 1 30 -14
17 -26 38 -26 46 0 9 -4 12 -10 9 -5 -3 -10 -21 -10 -39 0 -42 -24 -66 -45
-45 -8 8 -17 28 -21 45 -5 27 -1 35 35 63 51 41 68 37 139 -28 l53 -49 -56
-53 c-43 -40 -55 -59 -53 -77 5 -39 32 -50 68 -29 l30 18 0 -44 c0 -29 7 -53
19 -68 24 -30 39 -19 17 13 -9 12 -16 41 -16 64 0 34 5 46 27 62 47 34 8 32
-51 -4 -52 -31 -76 -36 -76 -15 0 18 97 111 116 111 11 0 36 -16 55 -36 18
-19 49 -44 67 -55 29 -19 32 -25 32 -69 0 -27 5 -52 10 -55 6 -4 10 14 10 48
l0 54 -60 47 c-33 26 -60 51 -60 55 0 5 -15 14 -32 21 -18 8 -63 42 -100 77
-71 68 -101 78 -133 43z m-42 -153 c21 -32 21 -41 1 -61 -18 -18 -34 -21 -34
-5 0 6 -13 30 -30 54 -38 55 -38 71 3 95 l32 20 5 -39 c4 -21 14 -50 23 -64z"/>
<path d="M5902 5179 c-74 -44 -87 -66 -72 -127 6 -27 18 -61 26 -77 14 -26 13
-30 -20 -70 -71 -86 -193 -330 -208 -416 -10 -57 -11 -58 -48 -64 -21 -4 -60
-3 -87 1 -42 6 -56 15 -107 68 -32 34 -90 109 -128 168 -74 112 -82 118 -158
117 -52 -1 -45 -5 22 -14 l46 -6 85 -127 c47 -70 105 -146 129 -169 39 -35 55
-42 117 -53 55 -10 77 -11 97 -1 15 6 28 10 29 9 2 -2 -1 -25 -6 -53 -4 -27
-19 -136 -33 -240 -26 -201 -36 -238 -105 -369 -28 -52 -40 -85 -36 -100 12
-41 105 -115 170 -135 l60 -19 6 -183 c15 -418 31 -586 63 -648 8 -15 30 -35
48 -44 35 -16 155 -39 192 -36 48 3 62 -3 84 -37 l24 -37 116 6 c132 5 355 55
477 106 39 16 77 32 85 35 43 17 187 99 207 118 28 26 29 52 3 125 -14 41 -20
83 -20 147 0 78 5 105 36 195 31 89 36 114 32 166 -6 69 -37 147 -75 187 l-25
26 26 17 c33 22 33 42 -1 77 -24 25 -25 30 -13 53 12 23 10 28 -33 81 -26 31
-47 65 -47 75 0 11 -4 19 -9 19 -18 0 8 -70 42 -112 27 -33 34 -49 30 -70 -3
-18 2 -37 16 -57 29 -41 27 -47 -21 -64 -24 -8 -81 -29 -128 -46 -173 -62
-288 -80 -505 -81 -165 -1 -315 16 -410 47 -44 14 -190 72 -297 117 -27 12
-44 13 -63 6 -27 -10 -34 -40 -12 -59 18 -14 30 -2 16 15 -13 15 -4 34 16 34
8 0 43 -14 79 -31 63 -30 85 -52 66 -64 -6 -4 -10 -19 -10 -36 0 -16 -3 -29
-6 -29 -17 0 -134 63 -166 90 -53 44 -49 87 19 177 27 37 73 169 73 211 0 15
11 104 25 197 14 94 30 210 35 260 8 75 16 104 54 180 71 141 132 243 173 289
21 23 65 77 98 120 32 42 73 89 90 104 16 15 37 36 45 47 14 18 13 18 -15 -2
-35 -24 -115 -110 -165 -176 -19 -25 -39 -45 -43 -44 -5 2 -17 27 -28 57 -25
71 -14 99 52 140 27 16 49 32 49 35 0 7 0 7 -58 -26z"/>
<path d="M6828 5003 c-3 -70 1 -84 36 -123 30 -33 35 -47 41 -107 10 -117 45
-254 70 -279 l22 -22 -46 -13 c-103 -28 -141 -62 -141 -127 0 -24 5 -52 10
-62 9 -16 5 -20 -24 -29 -41 -11 -87 -2 -136 27 -62 36 -146 55 -213 47 -75
-8 -78 -10 -204 -107 -66 -51 -103 -86 -103 -98 0 -21 36 -50 62 -50 17 0 17
-2 3 -37 -9 -20 -18 -69 -22 -109 l-6 -73 27 -7 c15 -3 38 -2 51 4 20 9 24 8
29 -13 8 -30 48 -42 89 -27 24 9 32 8 45 -4 10 -11 24 -14 41 -9 14 4 49 8 77
10 69 3 111 25 190 101 38 37 80 68 96 71 15 3 28 9 28 14 0 5 21 9 48 9 42 0
50 -4 75 -35 21 -26 65 -53 161 -100 73 -36 138 -65 144 -65 9 0 12 -44 12
-160 0 -87 5 -183 11 -212 12 -55 51 -142 69 -153 14 -9 13 2 -4 33 -42 78
-59 166 -65 332 l-6 165 -64 32 c-35 18 -73 41 -85 52 -43 39 -131 101 -145
101 -22 0 -6 11 21 15 12 1 62 8 110 14 48 6 105 18 129 26 23 8 51 15 63 15
12 0 51 11 86 25 35 14 65 23 68 21 2 -3 -10 -24 -27 -48 -52 -74 -110 -366
-97 -498 5 -62 27 -139 56 -201 13 -29 54 -53 85 -51 13 1 9 -4 -13 -15 -32
-16 -35 -16 -64 0 -38 22 -51 12 -19 -14 85 -69 254 64 328 259 54 143 98 294
90 314 -6 17 -18 -12 -52 -122 -34 -112 -45 -140 -58 -140 -6 0 -7 3 -4 7 9 8
-44 44 -55 37 -5 -3 -7 0 -6 8 2 7 -3 12 -10 10 -8 -1 -11 2 -8 7 4 5 1 13 -4
16 -12 7 -34 55 -32 68 1 4 -3 7 -9 7 -5 0 -7 5 -4 10 3 6 1 10 -6 10 -7 0
-10 3 -6 6 3 4 -2 28 -12 55 -14 34 -19 77 -19 148 l-1 100 30 -11 c17 -6 72
-37 121 -70 50 -33 102 -64 115 -69 12 -4 23 -13 23 -18 0 -17 59 -33 97 -26
53 9 73 31 73 76 0 35 -6 43 -64 91 -55 46 -63 55 -55 75 4 12 16 82 25 154
l17 133 -22 17 c-36 30 -150 39 -158 13 -2 -7 8 -9 27 -6 17 2 51 -1 75 -8 44
-12 45 -13 44 -54 -1 -66 -34 -251 -45 -249 -5 1 -58 30 -119 65 -205 119
-552 278 -605 278 -15 0 -26 11 -36 36 -15 35 -14 36 17 72 109 124 324 223
491 225 83 2 102 7 78 22 -23 14 -140 6 -217 -14 -96 -27 -190 -72 -270 -131
-89 -66 -171 -180 -129 -180 9 0 16 -4 16 -10 0 -20 -37 -9 -64 19 -32 33 -58
134 -76 295 -6 55 -13 102 -15 105 -3 2 -5 -1 -5 -8 0 -8 -12 -4 -31 10 -29
20 -30 24 -27 80 2 33 0 59 -4 59 -5 0 -9 -17 -10 -37z m339 -589 c148 -49
503 -231 662 -337 l74 -50 -33 -14 c-19 -7 -40 -22 -47 -33 -19 -28 -42 -25
-78 9 -106 99 -510 319 -620 337 -27 4 -52 8 -55 9 -13 4 -100 17 -105 16 -10
-3 -61 28 -74 43 -8 9 -12 16 -10 16 2 0 22 7 44 15 64 23 154 19 242 -11z
m-525 -163 c43 -23 89 -41 102 -41 14 0 65 14 114 30 110 37 154 37 268 4 103
-29 282 -98 309 -118 17 -12 11 -16 -61 -39 -131 -43 -193 -56 -329 -67 -71
-5 -162 -17 -202 -26 -66 -15 -75 -21 -131 -79 -64 -66 -112 -95 -157 -95 -23
0 -26 2 -15 15 19 23 -3 18 -45 -10 -24 -17 -44 -23 -57 -19 -19 6 -19 6 -1
19 31 23 8 26 -41 5 -63 -27 -84 -25 -98 5 -10 23 -8 29 27 65 43 44 41 68 -3
28 -22 -20 -32 -24 -54 -18 -21 6 -28 5 -28 -6 0 -8 10 -14 23 -14 l22 -1 -24
-19 c-13 -11 -32 -20 -44 -20 -19 0 -20 4 -14 76 3 45 12 86 23 102 18 29 104
111 117 112 12 0 67 43 67 52 0 4 -13 8 -30 8 -22 0 -30 -5 -30 -17 -1 -41
-126 -111 -172 -97 -34 10 -16 40 60 96 42 32 89 67 103 79 36 29 82 39 158
35 52 -3 80 -12 143 -45z m1306 -277 c6 -2 12 -12 12 -22 0 -11 -6 -24 -12
-29 -21 -17 -74 -23 -87 -10 -15 15 -14 64 2 70 11 4 57 0 85 -9z"/>
<path d="M4940 4981 c-7 -15 -7 -21 0 -21 12 0 25 28 17 36 -3 3 -10 -4 -17
-15z"/>
<path d="M4817 4963 c-23 -43 -21 -67 6 -99 20 -22 28 -25 56 -19 20 4 35 15
40 28 8 20 9 19 26 -13 26 -53 55 -80 84 -79 25 1 25 1 -6 15 -18 7 -41 30
-53 52 -26 47 -86 97 -96 81 -4 -7 1 -16 10 -21 9 -5 16 -18 16 -28 0 -26 -50
-27 -73 -2 -21 23 -21 31 -1 53 8 9 14 28 12 41 -3 22 -4 21 -21 -9z"/>
<path d="M5755 4894 l-60 -66 -56 31 c-56 31 -161 71 -183 71 -6 -1 36 -20 94
-43 141 -57 134 -52 105 -95 -13 -20 -22 -38 -19 -41 5 -6 29 19 83 85 13 16
44 50 69 77 26 26 42 47 36 47 -5 0 -37 -30 -69 -66z"/>
<path d="M5050 4923 c1 -12 80 -66 80 -55 0 6 -14 22 -31 36 -30 26 -49 33
-49 19z"/>
<path d="M3840 4513 c48 -21 192 -45 203 -34 5 5 -13 12 -45 16 -29 4 -69 10
-88 15 -19 4 -51 10 -70 13 l-35 6 35 -16z"/>
<path d="M3701 4438 c-22 -35 -55 -82 -73 -105 -17 -24 -28 -46 -25 -50 4 -3
14 2 21 13 14 18 15 18 25 -6 8 -22 10 -22 10 -4 1 11 -3 24 -9 30 -6 6 5 27
28 59 48 63 84 125 73 125 -4 0 -27 -28 -50 -62z"/>
<path d="M3795 4490 c3 -5 11 -10 16 -10 6 0 7 5 4 10 -3 6 -11 10 -16 10 -6
0 -7 -4 -4 -10z"/>
<path d="M3839 4469 l-24 -20 25 15 c22 13 29 13 55 1 27 -12 60 -19 201 -44
48 -9 120 -44 149 -75 12 -11 51 -47 89 -80 64 -55 156 -176 220 -289 l30 -52
-40 32 c-21 17 -48 41 -59 53 -38 42 -168 122 -274 168 -84 36 -120 46 -176
50 l-70 4 -39 -53 c-64 -87 -103 -183 -126 -314 -36 -208 -19 -413 47 -585 91
-238 185 -434 278 -580 23 -36 59 -96 80 -135 67 -120 263 -412 297 -440 31
-26 36 -27 129 -23 87 3 97 2 86 -12 -6 -8 0 -5 14 8 14 12 54 32 88 43 l62
21 17 -23 c26 -38 75 -79 94 -79 27 0 37 30 27 83 -4 26 -13 56 -19 66 -21 40
-9 56 95 136 57 44 106 85 109 91 12 29 -53 310 -113 484 -141 415 -492 1083
-680 1295 -56 63 -192 176 -237 196 -23 11 -91 27 -151 38 -60 10 -119 23
-130 30 -28 14 -27 14 -54 -10z"/>
<path d="M3779 4413 c-13 -16 -12 -17 4 -4 16 13 21 21 13 21 -2 0 -10 -8 -17
-17z"/>
<path d="M4027 4403 c6 -16 5 -16 -10 -4 -15 12 -17 11 -17 -3 0 -17 34 -56
50 -56 20 0 60 24 60 36 0 7 -6 11 -14 8 -8 -3 -19 3 -26 15 -14 26 -53 29
-43 4z"/>
<path d="M3744 4398 c3 -9 -17 -63 -43 -120 -26 -57 -52 -112 -56 -123 -7 -16
-10 -11 -20 30 l-12 50 1 -80 c1 -44 -2 -99 -7 -122 -4 -28 -4 -43 3 -43 5 0
10 11 10 24 0 32 36 146 53 171 14 18 16 18 31 2 24 -24 41 -21 65 10 23 28
21 44 -3 24 -12 -10 -14 -9 -9 7 3 14 -2 21 -16 25 -26 7 -27 29 0 83 16 34
18 47 9 61 -10 16 -11 16 -6 1z"/>
<path d="M7683 4390 c-18 -11 -33 -24 -33 -30 0 -14 5 -13 42 10 18 11 41 20
51 20 9 0 17 5 17 10 0 17 -43 11 -77 -10z"/>
<path d="M3876 4363 c55 -86 67 -103 71 -99 11 11 -62 126 -79 126 -6 0 -2
-12 8 -27z"/>
<path d="M7320 3989 c-11 -24 -20 -53 -20 -64 -1 -46 -13 -45 -125 10 -105 50
-143 61 -100 28 29 -22 159 -82 194 -89 34 -7 37 -3 62 83 22 79 17 94 -11 32z"/>
<path d="M3621 3816 c-1 -11 3 -47 9 -80 5 -34 16 -124 25 -201 21 -182 37
-260 75 -370 75 -212 165 -373 437 -783 208 -314 205 -311 301 -327 25 -4 42
-3 42 3 0 5 -21 13 -47 17 -27 3 -58 13 -70 20 -19 13 -147 195 -327 465 -85
128 -243 417 -291 533 -57 140 -83 249 -110 481 -24 198 -42 299 -44 242z"/>
<path d="M6774 2527 c11 -172 37 -249 122 -352 117 -143 158 -233 190 -418 13
-76 30 -215 38 -309 14 -168 15 -171 49 -222 19 -28 37 -58 40 -66 3 -9 6 -4
6 12 1 16 -12 42 -33 67 -31 37 -35 48 -40 128 -20 267 -52 486 -87 578 -22
60 -94 173 -157 249 -22 27 -55 77 -71 111 -27 55 -33 80 -42 196 -6 74 -13
136 -16 139 -3 3 -2 -48 1 -113z"/>
<path d="M6000 2558 c0 -27 60 -296 78 -356 24 -74 79 -170 177 -307 250 -349
395 -626 395 -753 0 -61 -57 -342 -96 -470 -26 -85 -50 -122 -82 -122 -23 0
-42 -19 -42 -43 0 -23 53 -46 124 -54 30 -3 58 -13 69 -24 10 -11 21 -19 24
-19 4 0 -3 10 -15 23 -32 34 -27 44 28 57 40 9 59 22 91 58 50 57 99 144 134
237 14 38 37 89 51 113 27 46 28 87 2 187 -33 132 -272 605 -412 814 -59 88
-122 194 -141 234 -32 70 -39 95 -70 276 -8 47 -20 89 -26 95 -9 8 -10 3 -5
-19 3 -16 13 -77 21 -135 23 -158 65 -266 143 -373 65 -90 197 -302 222 -357
13 -30 52 -109 86 -175 52 -103 137 -289 157 -348 4 -10 11 -47 17 -83 10 -61
9 -68 -15 -112 -13 -26 -36 -78 -51 -117 -29 -79 -61 -137 -113 -208 -30 -40
-45 -50 -91 -63 -30 -9 -63 -25 -72 -36 -10 -11 -27 -18 -40 -16 -18 2 -22 8
-20 31 4 34 -15 36 -24 2 -6 -25 -7 -25 -25 -9 -26 24 -24 41 8 56 53 26 87
100 118 258 26 138 36 183 51 228 23 69 17 131 -20 239 -70 200 -157 354 -356
628 -154 212 -178 266 -230 500 -30 138 -40 175 -45 175 -3 0 -5 -6 -5 -12z"/>
<path d="M4565 2060 c28 -4 59 -11 70 -14 11 -4 28 -1 38 6 14 11 4 13 -70 15
-76 1 -81 0 -38 -7z"/>
<path d="M7290 1058 c84 -81 117 -126 122 -163 4 -26 5 -27 13 -11 5 12 2 30
-10 53 -22 41 -133 156 -166 173 -13 7 5 -17 41 -52z"/>
<path d="M7362 763 c-36 -40 -38 -50 -6 -24 18 14 51 62 42 60 -2 0 -18 -16
-36 -36z"/>
<path d="M7229 642 c-30 -32 -74 -86 -98 -120 -66 -93 -157 -161 -196 -146
-18 7 -27 36 -18 60 6 17 5 17 -10 5 -9 -7 -17 -24 -17 -38 0 -18 -5 -24 -17
-21 -13 3 -18 13 -17 36 2 41 -10 41 -27 0 -16 -43 -14 -41 -38 -28 -20 10
-20 12 -5 41 8 17 13 33 10 37 -9 8 -34 -28 -45 -63 -5 -16 -10 -24 -10 -17
-1 6 -9 12 -18 12 -10 0 -25 4 -33 10 -12 8 -12 11 3 28 26 29 20 38 -8 12
-54 -51 -27 -68 128 -82 160 -14 182 -9 243 50 39 37 154 174 227 270 24 31
-5 7 -54 -46z"/>
</g>
</svg>
