<?xml version="1.0" standalone="no"?>
<!DOCTYPE svg PUBLIC "-//W3C//DTD SVG 20010904//EN"
 "http://www.w3.org/TR/2001/REC-SVG-20010904/DTD/svg10.dtd">
<svg version="1.0" xmlns="http://www.w3.org/2000/svg"
 width="348.000000pt" height="382.000000pt" viewBox="0 0 348.000000 382.000000"
 preserveAspectRatio="xMidYMid meet">

<g transform="translate(0.000000,382.000000) scale(0.100000,-0.100000)"
fill="#000000" stroke="none">
<path d="M966 3714 c-4 -9 -2 -13 5 -8 15 9 58 -16 53 -30 -2 -6 -6 -37 -8
-68 -3 -45 -1 -58 10 -58 8 0 14 6 14 13 0 8 4 7 10 -3 6 -10 10 -11 10 -2 0
6 5 12 10 12 6 0 10 -7 10 -16 0 -14 1 -14 16 0 8 9 12 20 9 26 -3 5 -1 18 4
27 8 14 10 6 11 -36 0 -47 -2 -52 -17 -46 -10 5 -33 10 -50 13 -28 4 -33 1
-33 -17 0 -12 -6 -21 -16 -21 -11 0 -14 6 -9 21 7 21 5 21 -41 15 -27 -4 -61
-16 -76 -26 l-27 -20 -4 48 c-2 26 -3 17 -1 -20 3 -81 21 -105 85 -116 43 -7
44 -8 50 -52 l6 -45 3 40 c2 39 3 39 10 10 17 -67 14 -74 -32 -68 -24 3 -73
16 -109 30 -82 31 -104 28 -104 -12 0 -35 45 -70 111 -86 45 -12 80 -41 86
-73 3 -19 11 -25 61 -45 28 -11 28 -12 22 -69 -4 -34 -13 -61 -22 -67 -8 -5
-37 -27 -63 -47 -26 -21 -55 -38 -63 -38 -25 0 -55 -32 -83 -88 -23 -48 -24
-57 -13 -84 12 -29 11 -33 -15 -54 -15 -13 -22 -24 -17 -24 6 0 11 -7 11 -15
0 -8 -7 -15 -15 -15 -8 0 -15 -7 -15 -15 0 -9 -10 -19 -22 -24 -12 -4 -17 -10
-11 -14 6 -4 16 0 23 8 16 19 34 19 26 0 -3 -8 0 -15 5 -15 6 0 9 9 6 19 -3
11 1 22 8 25 8 3 15 16 17 31 4 32 22 38 26 8 3 -22 5 -22 37 -9 l34 14 6 -39
c7 -39 19 -50 28 -26 3 7 3 25 0 40 -5 27 -7 26 72 57 11 5 41 15 68 24 42 13
47 13 47 0 0 -24 21 -58 29 -46 3 6 29 16 56 23 28 6 56 13 63 15 8 2 16 13
19 24 6 22 28 29 88 27 l40 -2 -3 -40 c-3 -37 -25 -75 -37 -64 -4 5 -12 39
-14 62 -1 5 -5 5 -11 2 -5 -3 -10 3 -10 15 0 12 -4 18 -10 15 -5 -3 -10 -25
-10 -48 0 -31 3 -38 10 -27 11 18 11 20 14 -52 1 -31 -1 -55 -6 -52 -4 3 -8
-2 -8 -10 0 -9 -3 -15 -7 -15 -20 3 -34 -2 -29 -10 4 -5 -3 -7 -14 -4 -11 3
-23 9 -25 14 -3 4 -12 6 -20 2 -11 -4 -14 0 -9 13 5 15 4 16 -4 4 -7 -9 -7
-18 -1 -26 6 -8 3 -13 -10 -17 -26 -6 -34 2 -18 22 11 14 10 14 -5 2 -10 -7
-15 -18 -11 -24 4 -6 0 -8 -10 -4 -9 3 -19 2 -21 -2 -3 -5 -29 -11 -58 -15
-29 -4 -59 -13 -67 -19 -8 -7 -17 -11 -20 -10 -20 8 -94 -16 -167 -52 -46 -23
-84 -38 -84 -34 0 5 -5 9 -11 9 -6 0 -9 -6 -7 -12 5 -15 -8 -30 -39 -46 -31
-17 -33 -16 -33 20 l0 32 -35 -34 c-29 -28 -38 -32 -45 -21 -7 12 -15 13 -47
2 -21 -7 -48 -11 -58 -9 -13 2 -20 -3 -20 -12 0 -8 7 -15 15 -15 10 0 16 -12
18 -33 2 -18 0 -32 -5 -31 -17 4 -63 -14 -63 -25 0 -6 9 -17 21 -24 15 -10 19
-21 17 -50 -3 -34 -6 -38 -48 -51 -25 -8 -57 -19 -71 -25 l-26 -11 19 -30 c19
-33 25 -27 7 7 -10 18 -9 20 5 15 9 -4 15 -2 13 5 -1 6 4 13 11 15 7 3 12 -3
12 -14 1 -16 2 -16 10 -2 5 9 22 20 37 23 16 4 35 9 44 12 13 3 18 -4 23 -30
4 -21 14 -36 24 -39 13 -4 11 -5 -5 -6 -18 -1 -23 6 -29 34 -8 46 -19 39 -23
-14 -1 -15 -13 -22 -56 -32 -54 -12 -66 -21 -43 -35 7 -4 8 -3 4 4 -4 7 -1 12
8 12 15 0 19 -10 14 -27 -2 -5 -6 -7 -10 -5 -5 1 -8 -2 -8 -8 0 -5 17 -10 38
-10 62 0 82 -9 82 -37 0 -16 7 -27 20 -30 22 -6 27 -28 9 -39 -7 -4 -9 -22 -4
-53 8 -51 8 -72 3 -150 -3 -43 -8 -56 -23 -62 -11 -4 -14 -8 -7 -8 6 -1 12 -6
12 -12 0 -7 -10 -5 -25 5 -28 18 -45 21 -45 6 0 -5 7 -10 15 -10 8 0 15 -4 15
-10 0 -5 -11 -9 -24 -8 -14 1 -22 6 -20 10 3 4 -2 8 -11 8 -10 0 -13 -5 -9
-12 5 -8 2 -9 -9 -5 -25 9 -21 -3 10 -36 19 -19 22 -26 10 -22 -9 4 -17 11
-17 16 0 9 -69 59 -82 59 -3 0 -13 -7 -21 -15 -22 -21 -10 -92 21 -135 32 -44
38 -48 84 -55 22 -4 38 -12 38 -20 0 -20 -29 -45 -52 -45 -11 0 -45 -7 -75
-16 -31 -9 -70 -14 -88 -11 -32 5 -69 -11 -87 -37 -12 -18 -9 -73 5 -84 11
-10 244 -7 275 3 6 2 19 2 27 -1 11 -5 12 -10 4 -26 -28 -52 -22 -100 17 -148
22 -26 26 -37 21 -73 -9 -64 14 -93 108 -138 44 -21 88 -39 99 -39 10 0 35
-19 55 -41 l36 -41 93 -6 c51 -2 95 -9 98 -13 3 -5 20 -9 39 -9 21 0 35 -6 39
-16 9 -24 7 -62 -4 -69 -15 -10 -12 -71 5 -85 10 -8 29 -10 54 -6 81 13 265
-60 375 -147 46 -36 95 -69 110 -73 14 -3 29 -10 32 -15 7 -12 34 -12 34 0 0
19 -46 80 -67 90 -30 14 -29 31 1 31 13 0 29 7 36 15 10 13 9 15 -11 15 -43 0
-54 14 -39 49 7 18 10 34 6 38 -3 3 -28 -10 -56 -29 l-50 -35 -52 18 c-29 10
-99 41 -156 69 -57 27 -107 50 -112 50 -21 0 -34 48 -31 116 1 27 6 32 33 38
37 7 52 -4 53 -42 0 -24 3 -27 32 -24 27 2 34 -2 39 -23 4 -18 13 -25 30 -25
13 0 24 5 24 10 0 18 29 11 50 -12 l20 -22 25 24 c22 20 28 22 51 11 19 -8 30
-9 39 -1 10 8 27 7 62 -4 87 -27 138 -46 168 -62 37 -21 125 -104 125 -119 0
-7 12 -18 28 -26 15 -8 29 -17 32 -20 7 -8 88 -59 95 -59 3 0 -2 14 -11 31
-11 22 -18 28 -24 19 -5 -8 -9 -9 -14 -1 -4 6 -2 11 3 11 23 0 9 35 -29 71
-42 40 -53 66 -22 54 9 -4 33 -9 52 -12 46 -7 61 -27 54 -72 -7 -43 13 -59 82
-66 85 -9 254 -59 254 -76 0 -13 87 -95 125 -117 39 -24 45 -17 15 21 -11 14
-20 30 -20 35 0 6 -11 19 -25 30 -37 29 -31 42 19 42 49 0 75 19 29 22 -15 0
-37 0 -48 0 -12 -1 -15 1 -9 5 18 12 36 52 28 64 -4 7 -12 5 -22 -4 -10 -8
-35 -20 -56 -27 -48 -15 -126 -1 -200 38 -28 14 -63 28 -79 31 -30 6 -36 15
-91 129 -31 65 -33 88 -6 102 28 15 25 36 -10 57 -34 20 -38 38 -11 52 14 8
22 7 31 -4 7 -9 26 -15 44 -13 17 1 41 -4 54 -11 18 -10 26 -10 38 0 24 20 55
-4 106 -82 42 -63 45 -72 35 -99 -9 -24 -8 -32 8 -51 17 -17 27 -20 63 -15 40
5 79 -6 157 -47 50 -26 73 -37 111 -54 26 -11 54 -36 75 -64 33 -46 114 -107
126 -96 3 4 -5 20 -18 36 -61 78 -71 92 -67 96 2 3 22 7 44 11 45 7 48 9 39
23 -8 14 -55 14 -55 1 0 -5 -5 -10 -11 -10 -8 0 -8 4 -1 13 5 6 13 28 17 47 3
19 21 64 38 100 17 36 32 66 32 67 0 1 12 -1 28 -4 18 -4 27 -11 27 -25 0 -32
22 -15 39 30 8 23 21 42 27 42 19 0 21 8 29 93 5 49 4 77 -3 77 -5 0 -12 -9
-15 -20 -6 -22 -27 -27 -27 -7 0 16 -31 47 -46 47 -6 0 -18 -16 -27 -36 -13
-26 -22 -34 -34 -30 -8 4 -22 1 -29 -5 -11 -9 -16 -6 -22 11 -11 30 -21 16
-65 -95 -61 -153 -59 -169 13 -88 26 30 40 40 37 28 -3 -11 -8 -50 -12 -88 -4
-40 -13 -73 -22 -83 -36 -36 -97 -40 -133 -10 -8 8 -28 16 -44 20 -17 4 -43
17 -58 28 -16 11 -32 17 -35 14 -4 -3 -1 -6 5 -6 6 0 9 -6 6 -14 -4 -11 -10
-11 -30 -2 -28 13 -31 23 -6 28 12 3 6 10 -23 25 -47 25 -79 58 -128 133 -54
84 -72 136 -57 165 7 13 9 28 6 34 -13 21 27 11 60 -14 39 -30 46 -31 67 -7
23 25 22 69 -2 82 -29 15 -35 12 -20 -7 12 -16 11 -16 -8 0 -12 11 -19 25 -16
33 7 18 41 17 168 -2 165 -24 279 -35 305 -29 l25 7 -23 17 c-20 14 -22 22
-16 59 4 23 8 42 11 42 20 0 64 -35 69 -55 8 -31 32 -32 69 -3 22 17 31 19 46
10 22 -14 105 -16 113 -4 8 14 -46 48 -88 56 -21 4 -50 15 -63 23 -17 12 -47
16 -99 15 -56 0 -77 3 -81 14 -3 8 -15 14 -28 14 -22 0 -102 28 -162 57 -18 9
-35 24 -39 35 -3 10 -22 29 -43 42 l-37 24 6 69 c8 83 11 89 50 97 23 4 35 15
46 41 8 19 20 35 28 35 8 0 19 21 26 48 7 26 14 48 16 50 1 2 21 -6 43 -18 51
-25 70 -18 106 45 15 24 34 47 44 50 14 4 20 20 25 66 5 45 14 67 31 85 22 21
23 28 13 52 -7 15 -19 36 -29 47 -9 11 -24 43 -34 70 -10 28 -20 52 -21 54 -5
6 -69 -73 -66 -82 2 -5 -4 -7 -12 -4 -8 3 -20 -1 -27 -10 -24 -28 -51 -31
-106 -12 -29 11 -61 19 -72 19 -53 0 -61 22 -39 107 8 35 8 53 -1 79 -16 45
-5 80 30 95 17 6 43 28 59 48 26 31 30 44 30 96 0 35 5 66 12 73 10 10 10 17
0 32 -6 11 -12 34 -12 50 0 46 21 124 37 133 14 9 18 57 4 57 -12 0 -5 345 8
404 7 26 18 61 27 78 15 29 22 103 11 115 -4 3 0 15 8 27 8 11 15 33 15 49 0
16 5 37 11 48 15 29 -46 89 -91 89 -19 0 -29 -4 -25 -10 4 -7 -8 -10 -34 -8
-51 2 -68 -11 -49 -41 9 -15 23 -21 49 -21 50 0 49 -27 -1 -32 -30 -3 -37 0
-33 12 3 9 0 8 -7 -3 -7 -11 -9 -33 -5 -53 4 -26 1 -41 -14 -59 -15 -21 -18
-36 -14 -83 2 -31 0 -84 -6 -117 -7 -33 -18 -109 -25 -168 -11 -84 -19 -114
-35 -131 -24 -25 -27 -46 -9 -64 9 -9 9 -18 0 -37 -14 -31 -43 -32 -61 -2 -17
26 -23 156 -9 174 5 6 8 26 6 44 -2 27 -8 34 -33 41 -16 4 -36 17 -43 29 -12
19 -11 20 7 14 30 -9 26 4 -5 15 -18 7 -25 16 -21 29 2 11 -3 23 -14 30 -24
14 -26 105 -4 147 23 45 20 112 -7 135 -29 23 -60 24 -87 1 -20 -15 -22 -28
-24 -124 -2 -85 -5 -110 -19 -125 -28 -30 -22 -40 30 -47 26 -3 54 -11 62 -17
14 -9 -22 -7 -87 7 -15 3 -23 0 -23 -9 0 -10 -13 -14 -40 -14 -22 0 -40 3 -40
8 0 5 7 6 16 2 14 -5 14 -3 2 16 -11 20 -19 22 -56 17 -47 -6 -65 11 -42 39
10 12 10 15 -3 15 -10 0 -16 14 -19 50 -6 59 -22 75 -85 84 -28 4 -51 1 -70
-9 -59 -32 -93 -37 -248 -40 -158 -3 -192 -8 -304 -49 -24 -9 -50 -21 -57 -27
-7 -6 -28 -9 -46 -7 l-33 3 -1 65 c-2 121 -2 120 -30 130 -16 7 -24 16 -22 28
2 13 17 18 61 23 72 8 86 19 24 19 -66 0 -97 14 -97 45 0 19 7 26 28 31 15 4
32 12 37 18 6 7 18 15 28 19 14 5 17 20 19 84 1 43 1 89 0 103 -2 35 -46 70
-86 70 -19 0 -39 7 -46 15 -16 19 -26 19 -34 -1z m-52 -209 c3 -8 1 -15 -4
-15 -6 0 -10 7 -10 15 0 8 2 15 4 15 2 0 6 -7 10 -15z m190 -10 c3 -8 1 -15
-4 -15 -6 0 -10 7 -10 15 0 8 2 15 4 15 2 0 6 -7 10 -15z m-294 -186 c0 -4 -7
-6 -15 -3 -8 4 -15 10 -15 15 0 4 7 6 15 3 8 -4 15 -10 15 -15z m33 -34 c39
-11 49 -16 44 -21 -7 -7 -105 24 -112 35 -2 5 7 6 20 3 19 -3 25 0 26 14 1 14
3 13 6 -4 3 -13 10 -25 16 -27z m67 -2 c0 -7 5 -13 10 -13 6 0 10 5 10 11 0 5
5 7 10 4 6 -4 8 -11 5 -16 -4 -5 -2 -9 4 -9 5 0 12 6 14 13 3 7 6 5 6 -5 1
-19 21 -26 21 -7 0 6 6 9 13 7 6 -3 12 -11 12 -18 0 -21 23 -23 28 -3 4 15 5
14 6 -4 0 -12 7 -24 14 -26 6 -3 -4 -3 -23 0 -19 3 -43 10 -52 14 -9 5 -26 9
-38 9 -11 0 -31 11 -44 25 -13 14 -31 25 -40 25 -9 0 -16 6 -16 14 0 12 5 12
30 3 17 -6 30 -17 30 -24z m1310 -25 c0 -15 -9 -27 -26 -35 -22 -10 -26 -9
-33 10 -11 28 4 47 35 47 18 0 24 -5 24 -22z m397 -23 c8 -21 1 -26 -46 -32
-36 -5 -41 -3 -41 15 0 23 12 30 53 31 16 1 30 -5 34 -14z m-791 -100 c12 -66
1 -74 -15 -11 -13 53 -14 66 -3 66 4 0 12 -25 18 -55z m-325 -8 c4 -6 16 -3
30 7 27 18 79 22 79 5 0 -7 -11 -9 -30 -5 -17 3 -30 1 -30 -4 0 -6 4 -10 10
-10 5 0 19 -10 30 -22 15 -16 23 -19 28 -11 9 14 50 -3 78 -32 15 -14 14 -15
-12 -11 -15 3 -35 0 -43 -7 -14 -10 -14 -10 -4 4 17 21 6 31 -18 16 -17 -11
-17 -12 -1 -32 17 -20 17 -20 -5 -1 -13 10 -20 23 -17 27 3 5 -1 9 -9 9 -8 0
-17 7 -21 15 -5 13 -2 14 17 5 19 -10 20 -10 5 3 -21 17 -191 14 -197 -4 -2
-8 -6 -7 -13 2 -7 11 -11 11 -15 2 -2 -7 -15 -13 -28 -13 -12 0 -25 -7 -29
-15 -3 -8 -15 -14 -28 -12 -20 2 -22 -2 -20 -30 3 -30 1 -33 -22 -31 -24 2
-38 18 -16 18 6 0 10 8 10 18 0 10 -3 13 -8 6 -4 -6 -13 -13 -20 -15 -8 -3 -5
-15 13 -41 30 -44 30 -44 9 -52 -12 -5 -15 -2 -10 9 3 9 2 13 -4 10 -6 -3 -10
-16 -10 -28 -1 -21 -1 -21 -15 -3 -10 13 -11 24 -4 37 12 24 8 24 -20 0 -13
-11 -28 -22 -34 -24 -8 -3 -5 -10 6 -19 18 -13 18 -15 1 -29 -11 -9 -15 -9
-10 -1 11 18 -18 44 -33 29 -8 -8 -15 -6 -26 9 -8 10 -15 14 -15 7 0 -23 -15
-14 -27 16 -9 24 -8 31 3 35 8 3 14 18 14 34 0 27 5 30 93 61 50 19 116 42
144 52 29 11 77 20 108 20 30 1 53 5 50 9 -6 10 59 -2 66 -13z m1075 15 c-6
-11 -17 -65 -21 -112 -8 -81 -37 -220 -46 -220 -8 0 -4 73 12 228 12 108 13
112 36 112 13 0 22 -4 19 -8z m-790 -37 c1 -8 -2 -13 -7 -9 -5 3 -9 12 -9 21
0 19 13 9 16 -12z m129 5 c-3 -5 -12 -10 -18 -10 -7 0 -6 4 3 10 19 12 23 12
15 0z m-845 -51 c0 -5 -4 -9 -10 -9 -5 0 -10 7 -10 16 0 8 5 12 10 9 6 -3 10
-10 10 -16z m787 -11 c-3 -8 -6 -5 -6 6 -1 11 2 17 5 13 3 -3 4 -12 1 -19z
m-538 -45 c-28 -40 -31 -50 -22 -74 9 -22 8 -29 -4 -33 -8 -4 -18 -4 -22 -2
-6 4 -7 60 -2 103 1 11 59 53 74 53 4 0 -6 -21 -24 -47z m106 35 c27 -12 29
-16 16 -37 -8 -12 -12 -13 -25 -1 -9 7 -14 15 -11 18 2 3 -3 11 -13 18 -21 17
-2 18 33 2z m745 2 c13 -9 13 -10 0 -10 -8 0 -22 5 -30 10 -13 9 -13 10 0 10
8 0 22 -5 30 -10z m63 -17 c-7 -2 -19 -2 -25 0 -7 3 -2 5 12 5 14 0 19 -2 13
-5z m-293 -11 c0 -8 -34 -22 -90 -37 -18 -5 -22 -4 -14 4 6 6 20 13 32 16 12
2 30 8 39 14 22 13 33 14 33 3z m370 -105 c62 -35 64 -42 4 -16 -25 11 -52 18
-61 15 -24 -10 -146 17 -167 36 -19 18 -19 18 12 18 17 0 34 5 37 10 4 7 13 6
27 -1 11 -6 34 -15 49 -19 26 -8 29 -6 29 15 0 13 3 32 8 42 5 13 8 4 10 -27
3 -43 6 -47 52 -73z m-848 14 c-3 -9 -17 -28 -31 -44 -22 -25 -31 -28 -75 -25
-39 2 -52 7 -54 21 -3 14 4 17 42 17 31 0 44 -4 42 -12 -1 -7 -1 -10 1 -6 2 4
10 6 16 4 7 -1 9 -1 5 1 -4 2 2 19 13 36 10 18 19 41 19 52 1 18 2 17 14 -4 8
-14 11 -32 8 -40z m-212 39 c0 -5 -4 -10 -10 -10 -5 0 -10 5 -10 10 0 6 5 10
10 10 6 0 10 -4 10 -10z m-233 -52 c-3 -8 -6 -5 -6 6 -1 11 2 17 5 13 3 -3 4
-12 1 -19z m809 -14 c-3 -8 0 -13 6 -11 6 1 13 -4 15 -11 3 -6 -1 -10 -9 -9
-7 2 -10 2 -5 0 4 -3 7 -13 7 -23 0 -16 25 -35 42 -32 4 1 6 -7 5 -17 -1 -11
-7 -17 -17 -14 -9 2 -22 -2 -29 -11 -7 -8 -19 -12 -27 -9 -8 3 -21 0 -29 -7
-11 -9 -12 -16 -2 -31 7 -11 17 -17 24 -15 7 3 16 -2 21 -11 6 -10 14 -13 23
-7 19 12 79 16 79 6 0 -5 -7 -15 -15 -22 -8 -7 -15 -9 -15 -4 0 5 -7 -2 -16
-14 -13 -18 -13 -26 -3 -38 16 -19 6 -28 -25 -20 -28 7 -30 24 -6 43 13 10 11
15 -12 36 -15 14 -29 23 -32 20 -2 -2 -13 0 -23 5 -27 14 -43 4 -42 -26 1 -17
3 -21 6 -9 3 10 14 17 30 17 15 0 23 -3 20 -7 -4 -3 -2 -12 5 -20 6 -7 8 -16
4 -20 -3 -3 -6 -1 -6 6 0 7 -5 9 -12 5 -6 -4 -8 -3 -4 4 3 6 2 14 -4 17 -6 4
-10 3 -9 -2 5 -30 -5 -62 -27 -86 -14 -15 -22 -32 -19 -37 3 -6 1 -10 -4 -10
-6 0 -11 5 -11 11 0 6 -7 3 -16 -6 -9 -8 -13 -22 -10 -30 8 -22 -7 -18 -27 6
-12 13 -24 18 -37 14 -12 -4 -20 -2 -20 5 0 6 -4 8 -10 5 -5 -3 -10 -1 -10 4
0 13 -27 15 -32 3 -5 -13 -58 -24 -58 -12 0 5 -16 10 -35 10 -36 0 -49 21 -21
37 7 4 18 18 25 31 7 12 16 20 21 17 14 -8 60 13 60 29 0 13 29 28 60 30 9 1
16 13 18 33 3 26 0 32 -12 27 -11 -4 -16 0 -16 11 0 9 9 19 20 22 11 3 20 10
20 15 0 6 9 8 20 5 15 -4 21 -1 19 11 -3 36 1 43 27 39 14 -2 29 -9 33 -15 5
-9 12 -8 27 4 13 11 15 17 7 20 -18 8 -16 34 2 34 8 0 15 3 15 8 0 4 12 8 26
8 18 2 24 -2 20 -12z m-826 -10 c0 -12 -4 -14 -12 -7 -7 6 -20 13 -28 16 -9 3
-3 6 13 6 19 1 27 -4 27 -15z m-86 -31 c-2 -39 -4 -41 -14 -15 -6 13 -18 22
-32 23 -22 0 -22 1 -3 9 38 16 51 12 49 -17z m126 -24 c0 -6 -4 -7 -10 -4 -5
3 -10 11 -10 16 0 6 5 7 10 4 6 -3 10 -11 10 -16z m100 11 c0 -5 -4 -10 -10
-10 -5 0 -10 5 -10 10 0 6 5 10 10 10 6 0 10 -4 10 -10z m-248 -62 c-8 -8 -9
-4 -5 13 4 13 8 18 11 10 2 -7 -1 -18 -6 -23z m1256 14 c2 -7 -3 -12 -12 -12
-9 0 -16 7 -16 16 0 17 22 14 28 -4z m-1294 -44 c33 15 34 7 1 -14 -27 -18
-65 -11 -65 12 0 11 4 12 19 2 15 -9 25 -9 45 0z m1486 -114 c9 -24 15 -26 55
-22 43 3 68 -13 45 -27 -6 -4 -10 -14 -10 -23 0 -15 2 -15 10 -2 8 13 10 12
10 -3 0 -9 11 -23 25 -29 33 -15 32 -28 -3 -28 -15 0 -33 -5 -40 -12 -9 -9
-12 -9 -12 0 0 7 5 12 11 12 6 0 8 7 5 16 -4 10 -2 13 7 8 8 -5 9 -4 2 4 -24
25 -69 18 -83 -14 -8 -16 -16 -22 -25 -17 -6 4 -28 8 -49 9 -26 0 -35 -3 -31
-13 3 -7 10 -13 15 -13 6 0 17 -8 25 -17 13 -17 13 -16 7 6 -5 18 -3 22 7 16
52 -30 62 -62 27 -84 -18 -10 -20 -11 -10 0 6 7 12 20 11 29 0 9 -4 5 -10 -9
-6 -15 -15 -21 -24 -17 -19 7 -19 -1 -1 -19 7 -8 16 -11 20 -8 3 4 6 -2 6 -12
0 -15 -6 -17 -40 -12 -30 4 -40 2 -40 -9 0 -8 5 -14 11 -14 6 0 3 -7 -5 -16
-20 -19 -39 -9 -31 17 4 11 2 19 -5 19 -6 0 -9 -4 -5 -9 3 -5 1 -12 -4 -15 -5
-4 -24 10 -43 29 -23 25 -32 43 -30 61 3 18 -5 35 -23 54 -23 25 -31 27 -53
19 -25 -10 -24 -9 6 21 18 17 37 28 42 25 5 -3 12 0 16 6 3 6 0 15 -7 20 -22
13 1 40 46 56 33 11 42 11 61 -2 31 -20 38 -19 54 10 7 13 20 26 29 28 9 3 17
5 19 6 1 0 7 -11 12 -25z m35 -4 c3 -5 1 -10 -4 -10 -6 0 -11 5 -11 10 0 6 2
10 4 10 3 0 8 -4 11 -10z m-397 -106 c27 2 31 -1 26 -16 -3 -10 -1 -18 5 -18
6 0 11 -12 11 -26 0 -20 -4 -25 -16 -20 -9 3 -12 2 -9 -5 6 -8 -29 -49 -42
-49 -2 0 -8 10 -13 23 -6 15 -9 17 -9 6 -1 -9 6 -22 14 -29 13 -11 13 -15 3
-21 -8 -5 -5 -8 10 -6 13 1 21 6 18 13 -3 7 1 15 9 17 20 8 26 -4 9 -20 -8 -8
-12 -18 -9 -22 2 -5 -5 -8 -18 -7 -12 0 -27 10 -34 21 -12 20 -12 20 -13 -1 0
-27 -38 -44 -81 -37 -44 6 -47 10 -18 22 24 10 23 10 -6 11 -16 1 -40 3 -52 4
-12 1 -20 -1 -17 -5 7 -12 -17 -22 -27 -12 -14 14 25 45 60 47 38 2 50 14 29
30 -16 11 -16 15 -2 34 8 12 23 22 32 22 9 0 33 13 52 30 21 18 38 26 45 20 5
-4 25 -7 43 -6z m-358 -35 c0 -4 -9 -5 -20 -2 -11 3 -20 12 -20 19 0 12 4 12
20 2 11 -7 20 -16 20 -19z m920 -14 c5 -14 22 -30 37 -36 61 -23 60 -69 -3
-69 -40 0 -64 31 -43 56 9 11 9 18 1 26 -9 9 -12 8 -12 -5 0 -23 -16 -22 -23
2 -5 20 9 51 24 51 5 0 14 -11 19 -25z m-137 -19 c-7 -37 -30 -41 -25 -5 2 16
10 29 17 29 8 0 10 -9 8 -24z m-320 -11 c-3 -9 -8 -14 -10 -11 -3 3 -2 9 2 15
9 16 15 13 8 -4z m-713 -9 c0 -3 -4 -8 -10 -11 -5 -3 -10 -1 -10 4 0 6 5 11
10 11 6 0 10 -2 10 -4z m33 -61 c-3 -9 -8 -14 -10 -11 -3 3 -2 9 2 15 9 16 15
13 8 -4z m1044 -21 c-9 -9 -28 6 -21 18 4 6 10 6 17 -1 6 -6 8 -13 4 -17z
m-1593 -9 c-9 -14 -19 -23 -22 -20 -5 4 26 45 35 45 2 0 -4 -11 -13 -25z m276
-6 c37 -11 -4 -11 -51 0 l-37 8 9 -31 c12 -41 11 -76 -1 -76 -5 0 -10 17 -10
38 0 20 -4 44 -9 52 -6 8 -8 17 -5 21 5 8 60 1 104 -12z m451 -6 c13 -16 12
-17 -3 -4 -10 7 -18 15 -18 17 0 8 8 3 21 -13z m-792 -20 c-24 -30 -52 -59
-44 -44 5 9 4 12 -3 8 -11 -7 -11 -25 0 -42 4 -7 -7 -11 -30 -11 -20 -1 -48
-5 -62 -9 -23 -8 -24 -7 -11 8 7 9 10 17 5 17 -5 0 14 11 41 25 28 14 59 35
70 45 26 26 54 28 34 3z m220 -35 c-1 -47 -2 -50 -10 -23 -7 26 -3 75 7 75 2
0 4 -24 3 -52z m-194 32 c-12 -19 16 -40 51 -40 19 0 34 -5 34 -10 0 -9 -78
-3 -89 7 -13 11 -8 53 5 53 3 0 2 -5 -1 -10z m1175 0 c0 -6 -6 -10 -12 -8 -7
1 -34 -1 -59 -5 -25 -4 -54 -4 -65 0 -15 6 -9 9 26 14 75 10 110 10 110 -1z
m-770 -20 c0 -5 -2 -10 -4 -10 -3 0 -8 5 -11 10 -3 6 -1 10 4 10 6 0 11 -4 11
-10z m910 -1 c0 -5 -4 -8 -8 -5 -4 2 -13 1 -20 -3 -7 -4 9 -14 41 -25 87 -31
128 -66 75 -66 -12 0 -30 -7 -40 -17 -16 -14 -20 -14 -35 -1 -10 8 -37 20 -61
27 -24 7 -45 18 -48 26 -3 8 -13 11 -22 8 -16 -5 26 25 73 54 25 15 45 16 45
2z m-1550 -3 c0 -2 -12 -12 -27 -21 l-28 -18 19 21 c17 20 36 29 36 18z m903
-68 c-29 -51 -32 -53 -76 -56 -42 -3 -45 -1 -40 17 3 12 11 21 18 21 7 0 20
11 29 24 11 17 21 23 36 19 15 -4 26 1 37 16 28 41 26 12 -4 -41z m477 32 c0
-35 -2 -36 -35 -14 -39 26 -40 44 0 44 32 0 35 -2 35 -30z m-1176 -82 c-10
-16 -20 0 -22 37 -4 55 11 67 20 16 4 -24 5 -48 2 -53z m596 72 c0 -11 -4 -20
-10 -20 -5 0 -10 9 -10 20 0 11 5 20 10 20 6 0 10 -9 10 -20z m1035 11 c3 -5
1 -12 -5 -16 -5 -3 -10 1 -10 9 0 18 6 21 15 7z m-36 -22 c-16 -10 -23 -4 -14
10 3 6 11 8 17 5 6 -4 5 -9 -3 -15z m-73 -4 c25 -19 32 -19 37 3 4 13 5 12 6
-5 1 -18 -4 -22 -23 -21 -14 1 -22 6 -20 10 3 4 0 8 -5 8 -6 0 -11 -7 -11 -15
0 -16 -20 -16 -32 0 -7 9 9 35 21 35 4 0 16 -7 27 -15z m-1489 -42 c-3 -10 -5
-2 -5 17 0 19 2 27 5 18 2 -10 2 -26 0 -35z m-216 6 c-13 -11 -27 -17 -30 -14
-3 4 5 15 19 25 32 24 42 14 11 -11z m1199 17 c0 -11 -19 -15 -25 -6 -3 5 1
10 9 10 9 0 16 -2 16 -4z m-1076 -41 c-4 -8 -8 -15 -10 -15 -2 0 -4 7 -4 15 0
8 4 15 10 15 5 0 7 -7 4 -15z m363 -7 c-3 -8 -6 -5 -6 6 -1 11 2 17 5 13 3 -3
4 -12 1 -19z m596 -29 c41 -53 46 -77 33 -161 -5 -32 -4 -48 3 -48 6 0 11 5
11 10 0 6 9 10 19 10 12 0 23 -11 31 -32 7 -18 14 -28 17 -21 5 13 -25 63 -38
63 -11 0 -11 54 0 103 12 49 14 51 40 35 18 -11 20 -19 14 -68 -3 -30 -11 -58
-17 -62 -6 -4 6 -8 26 -8 20 0 40 -4 43 -10 3 -5 28 -10 56 -10 27 0 49 -4 49
-8 0 -4 15 -12 33 -17 22 -7 33 -17 35 -32 3 -22 32 -33 32 -13 0 6 -5 10 -12
10 -6 0 -9 2 -6 5 11 11 58 -15 58 -32 0 -15 2 -15 9 -4 5 8 7 21 3 29 -3 10
-1 13 6 8 7 -4 12 -14 12 -22 0 -33 46 -95 66 -87 8 3 14 0 14 -6 0 -15 27
-14 36 1 4 7 3 8 -4 4 -7 -4 -12 -1 -12 8 0 8 -6 21 -14 29 -9 9 -11 19 -5 28
6 10 9 10 9 1 0 -6 3 -11 8 -11 34 6 54 -27 45 -74 -4 -22 -8 -25 -23 -17 -44
24 -325 84 -342 74 -5 -3 -7 -17 -4 -30 5 -17 2 -24 -8 -24 -7 0 -16 9 -19 20
-3 13 -1 18 6 14 7 -4 5 1 -5 11 -19 20 -38 12 -38 -16 0 -23 -18 -25 -35 -3
-10 15 -13 15 -27 1 -9 -9 -18 -13 -22 -10 -3 4 -6 1 -6 -6 0 -7 -6 -11 -14
-8 -10 4 -12 0 -9 -14 5 -19 -11 -27 -21 -10 -4 5 -17 8 -31 6 -14 -1 -25 3
-26 9 0 6 -4 2 -9 -9 -7 -17 -9 -17 -9 -2 -1 22 -46 23 -55 1 -4 -9 -13 -14
-21 -10 -9 3 -15 0 -15 -10 0 -12 -4 -11 -20 4 -26 24 -18 82 11 82 12 0 19 7
19 19 0 24 36 37 55 21 8 -7 24 -10 35 -7 11 3 23 1 26 -5 3 -5 20 -18 37 -28
l31 -19 18 31 c11 16 28 32 38 35 11 3 17 9 14 15 -3 5 -12 4 -20 -3 -8 -6
-14 -8 -14 -4 0 5 -8 0 -19 -9 -17 -16 -19 -16 -25 0 -4 9 -4 25 -1 34 4 11
-3 23 -21 34 -15 11 -23 23 -20 32 3 9 -5 25 -21 40 -24 22 -25 26 -12 50 12
24 12 28 -11 48 -20 17 -24 29 -22 59 2 20 6 37 10 37 4 -1 24 -23 45 -51z
m42 41 c3 -5 -1 -10 -9 -10 -8 0 -18 5 -21 10 -3 6 1 10 9 10 8 0 18 -4 21
-10z m105 -17 c3 -3 -6 -3 -20 0 -14 4 -35 7 -47 7 -13 0 -23 4 -23 9 0 9 80
-5 90 -16z m-1350 -36 c0 -16 -4 -26 -10 -22 -5 3 -10 23 -10 43 0 28 3 33 10
22 5 -8 10 -28 10 -43z m195 3 c4 -24 12 -40 21 -40 7 0 12 6 10 13 -1 6 -1 9
1 5 3 -5 14 -8 26 -9 13 0 3 -6 -23 -15 -25 -7 -46 -14 -47 -14 -1 0 1 14 4
31 3 21 1 29 -6 24 -7 -4 -11 4 -11 19 0 40 18 30 25 -14z m296 17 c-10 -9
-11 -8 -5 6 3 10 9 15 12 12 3 -3 0 -11 -7 -18z m1449 9 c0 -3 -4 -8 -10 -11
-5 -3 -10 -1 -10 4 0 6 5 11 10 11 6 0 10 -2 10 -4z m-416 -27 c8 -8 4 -9 -14
-4 -34 10 -50 26 -20 20 13 -2 28 -10 34 -16z m-1464 -21 c0 -5 -4 -8 -10 -8
-5 0 -10 10 -10 23 0 18 2 19 10 7 5 -8 10 -18 10 -22z m240 28 c0 -3 -4 -8
-10 -11 -5 -3 -10 -1 -10 4 0 6 5 11 10 11 6 0 10 -2 10 -4z m170 0 c0 -2 -9
-6 -20 -9 -11 -3 -20 -1 -20 4 0 5 9 9 20 9 11 0 20 -2 20 -4z m480 -29 c0
-12 -5 -29 -10 -37 -7 -11 -10 -3 -10 28 0 26 4 41 10 37 6 -3 10 -16 10 -28z
m-830 -24 c0 -13 -4 -23 -10 -23 -5 0 -10 17 -10 38 0 27 3 33 10 22 5 -8 10
-25 10 -37z m520 -138 c-4 -22 -9 -4 -18 64 -10 77 -10 96 0 102 10 7 14 -8
18 -64 3 -40 3 -85 0 -102z m468 143 c2 -9 -5 -19 -16 -22 -23 -8 -36 -64 -19
-84 5 -7 7 -15 4 -18 -8 -9 -28 6 -22 16 3 4 -4 6 -15 3 -24 -7 -26 -23 -3
-23 14 0 13 -3 -5 -16 -12 -8 -28 -12 -35 -8 -6 4 -9 3 -4 -1 4 -5 -10 -14
-30 -22 -39 -13 -69 -10 -59 6 9 15 -39 18 -53 4 -7 -7 -16 -11 -21 -8 -5 3
-11 -4 -15 -15 -3 -11 -13 -20 -21 -20 -8 0 -14 -5 -14 -11 0 -5 -5 -7 -12 -3
-8 5 -9 2 -4 -11 5 -14 4 -16 -7 -7 -31 26 7 92 53 92 13 0 20 7 20 20 0 23
31 41 38 22 5 -17 28 -15 57 4 18 12 23 22 19 38 -4 17 1 25 20 36 14 7 29 11
32 7 11 -11 44 13 44 32 0 16 5 17 32 12 19 -4 34 -14 36 -23z m39 -13 c0 -8
-4 -12 -9 -9 -5 3 -6 10 -3 15 9 13 12 11 12 -6z m-977 -5 c0 -5 -4 -10 -10
-10 -5 0 -10 5 -10 10 0 6 5 10 10 10 6 0 10 -4 10 -10z m1268 -37 c-2 -31 0
-38 15 -37 11 1 17 -5 17 -21 0 -18 -5 -22 -30 -21 -29 1 -29 2 -25 49 3 27 7
53 11 58 11 18 15 8 12 -28z m168 -31 c-4 -31 -9 -66 -12 -79 -5 -20 -8 -21
-21 -8 -15 15 -14 32 8 118 15 58 33 35 25 -31z m-1559 26 c-3 -7 -5 -2 -5 12
0 14 2 19 5 13 2 -7 2 -19 0 -25z m419 -9 c15 -147 14 -158 -9 -171 -12 -6
-51 -18 -86 -25 -76 -16 -81 -13 -81 64 0 52 -7 83 -19 83 -3 0 -6 -39 -6 -87
0 -86 0 -86 -28 -96 -16 -5 -30 -7 -33 -4 -11 11 -29 143 -25 189 1 21 70 43
85 28 14 -14 26 -12 26 4 0 7 15 16 33 19 17 4 41 9 52 12 18 5 20 1 23 -46 2
-60 4 -63 30 -55 16 5 18 14 14 62 -4 44 -2 56 8 52 8 -2 15 -15 16 -29z m44
16 c0 -8 -4 -15 -10 -15 -5 0 -10 7 -10 15 0 8 5 15 10 15 6 0 10 -7 10 -15z
m417 -17 c-3 -8 -6 -5 -6 6 -1 11 2 17 5 13 3 -3 4 -12 1 -19z m-793 -4 c9
-23 7 -46 -3 -40 -11 7 -21 56 -11 56 4 0 11 -7 14 -16z m1579 -44 c-4 -24 -2
-29 18 -32 12 -1 24 -9 27 -17 3 -10 -2 -13 -21 -9 -31 6 -55 -33 -32 -52 11
-9 14 -6 18 12 4 21 4 21 6 -4 1 -33 -17 -40 -41 -16 -18 18 -18 25 -7 99 11
69 15 79 25 64 7 -10 11 -30 7 -45z m-525 21 c8 -5 12 -15 10 -22 -2 -10 -9
-8 -27 9 -24 22 -12 32 17 13z m-674 -17 c10 -25 7 -34 -9 -34 -9 0 -15 9 -15
25 0 28 15 34 24 9z m54 -19 c-3 -3 -9 2 -12 12 -6 14 -5 15 5 6 7 -7 10 -15
7 -18z m-48 -61 c0 -8 8 -14 19 -14 10 0 24 -6 30 -14 9 -11 5 -15 -21 -19
-47 -7 -62 15 -49 71 3 10 21 -12 21 -24z m108 -6 c21 -21 15 -40 -10 -32 -25
7 -39 24 -32 36 7 12 28 10 42 -4z m1622 -18 c0 -5 -5 -10 -11 -10 -5 0 -7 5
-4 10 3 6 8 10 11 10 2 0 4 -4 4 -10z m-242 -48 c2 -13 1 -31 -3 -40 -5 -13
-10 -10 -21 17 -18 44 -18 53 4 49 9 -2 18 -14 20 -26z m217 18 c3 -5 -1 -10
-10 -10 -9 0 -13 5 -10 10 3 6 8 10 10 10 2 0 7 -4 10 -10z m-1642 -20 c-3
-12 -8 -19 -11 -16 -5 6 5 36 12 36 2 0 2 -9 -1 -20z m1527 -9 c25 -7 57 -17
73 -22 19 -5 27 -4 28 4 0 8 2 8 5 1 7 -17 -14 -64 -29 -64 -7 0 -18 14 -24
31 -11 28 -15 30 -53 26 -40 -3 -78 -35 -62 -52 4 -4 -2 -6 -13 -3 -11 2 -21
11 -23 21 -3 13 2 17 15 15 15 -2 18 3 17 35 -1 26 2 35 10 29 6 -5 31 -14 56
-21z m-2064 -36 c0 -14 -4 -25 -8 -25 -10 0 -10 13 -2 34 9 23 12 20 10 -9z
m2231 -26 c3 -10 9 -17 12 -14 4 2 8 -2 8 -10 0 -8 -4 -15 -8 -15 -4 0 -11
-10 -14 -21 -6 -17 -9 -19 -16 -8 -7 11 -9 10 -9 -3 0 -11 8 -18 20 -18 14 0
18 5 13 16 -4 12 -2 15 8 10 8 -3 22 -9 32 -12 9 -4 17 -10 17 -14 0 -5 8 -17
18 -26 16 -17 16 -17 -3 -10 -42 18 -81 22 -119 14 -43 -10 -54 -5 -38 14 5 7
16 41 22 75 12 58 14 62 32 52 11 -6 23 -19 25 -30z m-157 -5 c0 -24 -14 -32
-25 -14 -4 6 -11 8 -16 5 -17 -11 -9 18 8 31 23 16 33 9 33 -22z m-730 -5 c0
-6 -4 -7 -10 -4 -5 3 -10 11 -10 16 0 6 5 7 10 4 6 -3 10 -11 10 -16z m107
-26 c-2 -52 -16 -51 -32 3 -11 38 -11 40 11 40 20 0 23 -4 21 -43z m393 32 c0
-12 -19 -12 -23 0 -4 9 -1 12 9 8 7 -3 14 -7 14 -8z m260 5 c0 -5 -2 -10 -4
-10 -3 0 -8 5 -11 10 -3 6 -1 10 4 10 6 0 11 -4 11 -10z m-873 -22 c-3 -8 -6
-5 -6 6 -1 11 2 17 5 13 3 -3 4 -12 1 -19z m-1077 -8 c16 -10 12 -12 -42 -24
-34 -8 -37 7 -5 22 28 14 29 14 47 2z m680 -7 c0 -5 -13 -8 -30 -9 -16 -1 -27
3 -24 7 6 11 54 12 54 2z m-80 -13 c-13 -8 -13 -11 -1 -22 11 -10 14 -10 18 0
3 6 20 12 38 12 25 0 34 -5 38 -21 4 -14 10 -18 18 -13 9 5 10 2 5 -12 -22
-54 -21 -56 18 -33 21 12 33 26 30 32 -4 7 -1 6 7 -1 8 -7 14 -18 14 -25 0 -7
10 -13 23 -15 14 -2 22 2 22 12 0 10 6 13 16 9 11 -4 12 -8 4 -13 -8 -5 -6
-11 5 -20 8 -7 15 -18 15 -24 0 -6 -4 -5 -9 3 -7 11 -13 12 -23 3 -10 -8 -52
-10 -134 -7 -85 3 -132 0 -160 -10 -25 -9 -40 -10 -43 -3 -2 6 2 14 9 18 10 6
10 15 2 38 -8 24 -7 32 9 46 11 9 24 16 29 16 14 0 12 17 -2 23 -8 4 -7 6 4 6
9 1 19 -5 21 -11 3 -8 6 -6 6 5 1 9 9 17 19 17 14 0 15 -2 2 -10z m228 3 c-10
-2 -26 -2 -35 0 -10 3 -2 5 17 5 19 0 27 -2 18 -5z m419 1 c-3 -3 -12 -4 -19
-1 -8 3 -5 6 6 6 11 1 17 -2 13 -5z m-67 -19 c-7 -8 -17 -12 -23 -8 -6 4 -3 9
9 14 27 11 28 11 14 -6z m-1185 -74 c-3 -12 -11 -19 -16 -16 -5 4 -9 -1 -9 -9
0 -8 -5 -18 -12 -22 -8 -5 -9 -2 -4 11 7 18 6 18 -13 1 -11 -10 -17 -25 -14
-34 4 -14 3 -15 -5 -2 -6 8 -8 18 -5 23 3 5 -4 4 -16 -2 -11 -7 -21 -8 -21 -4
0 4 -9 -3 -20 -15 -26 -28 -30 -28 -22 1 13 44 61 87 97 87 8 0 15 -6 15 -12
0 -9 4 -8 10 2 9 13 11 13 20 0 8 -13 10 -12 10 4 0 11 3 17 6 13 3 -3 3 -15
-1 -26z m1839 -18 c-10 -40 -14 -41 -14 -5 0 18 5 32 10 32 6 0 8 -11 4 -27z
m286 -2 c0 -17 -45 -71 -60 -71 -28 0 -45 27 -33 53 8 18 19 22 52 22 22 0 41
-2 41 -4z m-2060 -25 c0 -3 -4 -8 -10 -11 -5 -3 -10 -1 -10 4 0 6 5 11 10 11
6 0 10 -2 10 -4z m21 -19 c-10 -9 -11 -8 -5 6 3 10 9 15 12 12 3 -3 0 -11 -7
-18z m39 13 c0 -5 -4 -10 -10 -10 -5 0 -10 5 -10 10 0 6 5 10 10 10 6 0 10 -4
10 -10z m1182 -40 c5 0 12 10 15 21 6 20 11 21 73 17 37 -3 75 -10 86 -17 18
-11 18 -12 -2 -6 -14 4 -21 1 -21 -10 0 -8 4 -15 8 -15 5 0 13 -9 19 -21 11
-19 10 -20 -10 -9 -15 8 -56 11 -117 8 l-94 -4 7 31 c9 42 18 54 22 28 2 -13
8 -23 14 -23z m233 0 c8 -13 -5 -13 -25 0 -13 8 -13 10 2 10 9 0 20 -4 23 -10z
m-1595 -25 c0 -19 -9 -19 -34 0 -19 14 -19 15 7 15 17 0 27 -5 27 -15z m1621
-8 c-10 -9 -11 -8 -5 6 3 10 9 15 12 12 3 -3 0 -11 -7 -18z m-1671 -2 c17 -20
-7 -20 -34 0 -19 15 -19 15 1 15 11 0 26 -7 33 -15z m100 -10 c0 -9 -6 -12
-15 -9 -8 4 -15 10 -15 15 0 5 7 9 15 9 8 0 15 -7 15 -15z m100 1 c0 -2 -7 -7
-16 -10 -8 -3 -12 -2 -9 4 6 10 25 14 25 6z m230 -20 c0 -2 -7 -7 -16 -10 -8
-3 -12 -2 -9 4 6 10 25 14 25 6z m1514 -18 c-3 -4 -11 -5 -19 -1 -21 7 -19 12
4 10 11 0 18 -5 15 -9z m-2034 -122 c0 -11 -19 -15 -25 -6 -3 5 1 10 9 10 9 0
16 -2 16 -4z m1234 -15 c4 -5 -3 -7 -14 -4 -23 6 -26 13 -6 13 8 0 17 -4 20
-9z m-65 -5 c-2 -2 -17 -6 -34 -10 -22 -5 -26 -4 -15 4 14 9 59 15 49 6z m686
-81 l-15 -40 5 40 c4 22 9 49 13 60 l6 20 3 -20 c2 -11 -3 -38 -12 -60z
m-1887 31 c-13 -14 -28 -12 -28 5 0 5 9 9 20 9 17 0 19 -2 8 -14z m1750 -7
c23 -7 47 -17 52 -24 10 -12 -116 27 -128 40 -4 4 2 5 13 2 11 -3 39 -11 63
-18z m-1792 -16 c-10 -10 -19 5 -10 18 6 11 8 11 12 0 2 -7 1 -15 -2 -18z
m-46 9 c0 -4 -9 -13 -20 -20 -16 -10 -20 -10 -20 1 0 8 3 17 7 20 9 9 33 9 33
-1z m-87 -30 c-20 -21 -28 -20 -20 3 4 8 13 15 22 15 13 0 12 -3 -2 -18z m912
-148 c-30 -32 -55 -53 -55 -47 0 7 4 14 9 17 4 3 6 17 4 31 -8 40 3 58 28 45
16 -9 25 -8 42 3 37 25 30 12 -28 -49z m1365 41 c0 -19 -11 -19 -36 0 -18 14
-18 14 9 15 17 0 27 -5 27 -15z m-1209 -25 c8 -1 -4 -7 -26 -15 -21 -8 -41
-12 -43 -10 -2 2 4 15 14 30 16 24 19 25 29 11 7 -9 18 -16 26 -16z m9 26 c0
-3 -4 -8 -10 -11 -5 -3 -10 -1 -10 4 0 6 5 11 10 11 6 0 10 -2 10 -4z m34 -11
c3 -8 1 -15 -4 -15 -6 0 -10 7 -10 15 0 8 2 15 4 15 2 0 6 -7 10 -15z m1214
-34 c3 -8 -1 -12 -9 -9 -7 2 -15 10 -17 17 -3 8 1 12 9 9 7 -2 15 -10 17 -17z
m105 -21 c18 -17 -10 -16 -43 2 l-35 18 35 -6 c19 -3 39 -10 43 -14z m-1397
-77 c-3 -8 -1 -11 4 -8 6 3 10 4 10 1 0 -2 3 -11 6 -20 4 -10 1 -16 -9 -16 -9
0 -32 -20 -53 -45 -20 -25 -38 -44 -40 -43 -1 2 3 20 9 40 8 25 18 38 32 40
21 3 36 48 16 48 -6 0 -11 -7 -11 -15 0 -8 -5 -15 -10 -15 -12 0 -8 59 5 80 6
10 13 8 27 -10 10 -13 16 -30 14 -37z m607 40 c-7 -2 -21 -2 -30 0 -10 3 -4 5
12 5 17 0 24 -2 18 -5z m815 -27 c8 -5 10 -12 4 -19 -6 -7 -11 -19 -13 -27 -3
-13 -14 -14 -67 -7 -53 8 -65 13 -75 34 -8 18 -8 26 1 31 14 9 132 0 150 -12z
m-1552 -64 c-12 -11 -18 7 -10 30 l8 23 4 -23 c2 -13 1 -26 -2 -30z m224 28
c0 -5 -5 -10 -11 -10 -5 0 -7 5 -4 10 3 6 8 10 11 10 2 0 4 -4 4 -10z m670
-34 c0 -3 -4 -8 -10 -11 -5 -3 -10 -1 -10 4 0 6 5 11 10 11 6 0 10 -2 10 -4z
m113 -5 c16 -6 13 -11 -21 -38 l-40 -32 3 28 c3 49 17 59 58 42z m-1028 -11
c-3 -5 -11 -10 -16 -10 -6 0 -7 5 -4 10 3 6 11 10 16 10 6 0 7 -4 4 -10z
m1161 -6 c18 -14 18 -14 -6 -3 -31 14 -36 19 -24 19 6 0 19 -7 30 -16z m-211
-4 c3 -5 1 -10 -4 -10 -6 0 -11 5 -11 10 0 6 2 10 4 10 3 0 8 -4 11 -10z m210
-40 c4 0 20 -13 35 -30 34 -37 27 -38 -22 -5 -20 14 -45 25 -55 26 -10 0 -13
3 -5 6 6 2 12 12 12 21 1 15 2 15 14 0 7 -10 17 -18 21 -18z m-258 -26 c-3 -3
-12 -4 -19 -1 -8 3 -5 6 6 6 11 1 17 -2 13 -5z m-762 -13 c3 -5 1 -12 -5 -16
-5 -3 -10 1 -10 9 0 18 6 21 15 7z m210 -11 c-3 -5 -12 -10 -18 -10 -7 0 -6 4
3 10 19 12 23 12 15 0z m705 -42 c0 -19 -55 -88 -70 -87 -12 0 -11 2 3 10 21
12 22 35 2 56 -11 10 -13 19 -6 27 12 14 71 9 71 -6z m-593 -4 c-3 -3 -12 -4
-19 -1 -8 3 -5 6 6 6 11 1 17 -2 13 -5z m1280 -124 c-6 -16 -13 -27 -15 -25
-8 7 10 65 18 60 4 -3 3 -18 -3 -35z m-1527 6 c0 -2 -9 -2 -20 1 -11 3 -20 9
-20 15 0 5 9 4 20 -2 11 -6 20 -12 20 -14z m-303 8 c-3 -3 -12 -4 -19 -1 -8 3
-5 6 6 6 11 1 17 -2 13 -5z m1231 -33 c3 -8 -1 -12 -9 -9 -7 2 -15 10 -17 17
-3 8 1 12 9 9 7 -2 15 -10 17 -17z m-808 -6 c0 -9 -6 -12 -15 -9 -8 4 -12 10
-9 15 8 14 24 10 24 -6z m-95 -5 c-3 -5 -11 -10 -16 -10 -6 0 -7 5 -4 10 3 6
11 10 16 10 6 0 7 -4 4 -10z m165 -20 c0 -5 -4 -10 -10 -10 -5 0 -10 5 -10 10
0 6 5 10 10 10 6 0 10 -4 10 -10z m179 -26 c2 -2 1 -7 -2 -10 -4 -4 -21 1 -39
10 l-33 17 35 -7 c19 -3 37 -8 39 -10z m601 -14 c0 -17 -15 -11 -28 11 -12 19
-11 19 8 9 11 -6 20 -15 20 -20z m-700 10 c0 -5 -4 -10 -10 -10 -5 0 -10 5
-10 10 0 6 5 10 10 10 6 0 10 -4 10 -10z m320 6 c0 -12 -34 -36 -51 -36 -28 0
-23 17 9 28 31 12 42 14 42 8z m-90 -46 c0 -5 -5 -10 -11 -10 -5 0 -7 5 -4 10
3 6 8 10 11 10 2 0 4 -4 4 -10z m94 -16 c5 -13 1 -15 -18 -10 -13 3 -26 2 -28
-4 -2 -5 -13 -7 -25 -4 -13 4 -20 10 -17 16 3 5 14 6 24 3 10 -3 21 -1 25 5 9
15 32 12 39 -6z m-146 -33 c-15 -5 -21 7 -13 26 7 17 8 17 15 -2 4 -11 3 -22
-2 -24z m562 29 c0 -5 -4 -10 -10 -10 -5 0 -10 5 -10 10 0 6 5 10 10 10 6 0
10 -4 10 -10z m-17 -39 c13 -5 16 -10 9 -15 -13 -8 -52 27 -52 47 0 6 5 4 11
-6 6 -10 20 -22 32 -26z m-393 -2 c0 -5 -4 -9 -10 -9 -5 0 -10 7 -10 16 0 8 5
12 10 9 6 -3 10 -10 10 -16z m50 -9 c0 -5 -9 -10 -21 -10 -11 0 -17 5 -14 10
3 6 13 10 21 10 8 0 14 -4 14 -10z m-136 -35 c15 -11 16 -15 5 -15 -8 0 -24 7
-35 15 -14 11 -15 14 -4 14 8 0 24 -6 34 -14z m691 -25 c3 -5 -1 -10 -9 -10
-9 0 -16 5 -16 10 0 6 4 10 9 10 6 0 13 -4 16 -10z m35 -15 c0 -8 -4 -15 -10
-15 -5 0 -10 7 -10 15 0 8 5 15 10 15 6 0 10 -7 10 -15z m-670 -20 c0 -8 -4
-15 -10 -15 -5 0 -10 7 -10 15 0 8 5 15 10 15 6 0 10 -7 10 -15z m735 -4 c10
-17 -12 -21 -25 -6 -10 12 -10 15 3 15 9 0 18 -4 22 -9z m76 -14 c-1 -12 -15
-9 -19 4 -3 6 1 10 8 8 6 -3 11 -8 11 -12z m24 -97 c3 -5 2 -10 -4 -10 -5 0
-13 5 -16 10 -3 6 -2 10 4 10 5 0 13 -4 16 -10z"/>
<path d="M1300 3086 c0 -9 30 -14 35 -6 4 6 -3 10 -14 10 -12 0 -21 -2 -21 -4z"/>
<path d="M2140 2930 c0 -5 6 -10 14 -10 8 0 23 -3 33 -6 16 -6 16 -5 -2 9 -23
19 -45 22 -45 7z"/>
<path d="M1785 2798 c-16 -11 -23 -18 -14 -15 9 3 22 0 28 -6 8 -8 11 -7 11 5
0 9 5 18 12 20 7 3 8 7 3 10 -6 3 -23 -4 -40 -14z"/>
<path d="M1700 2670 c0 -5 7 -7 15 -4 8 4 15 8 15 10 0 2 -7 4 -15 4 -8 0 -15
-4 -15 -10z"/>
<path d="M1713 2652 c-10 -6 -10 -12 2 -28 14 -18 14 -18 15 9 0 30 0 30 -17
19z"/>
<path d="M2190 2526 c0 -9 5 -16 10 -16 6 0 10 4 10 9 0 6 -4 13 -10 16 -5 3
-10 -1 -10 -9z"/>
<path d="M2232 2438 c-12 -6 -21 -17 -20 -24 2 -7 -5 -19 -14 -26 -18 -13 -15
-63 3 -52 5 3 7 9 4 14 -3 4 5 6 17 2 16 -4 20 -2 16 10 -5 11 0 14 17 10 20
-3 23 -1 18 16 -3 13 -11 18 -19 15 -8 -3 -14 0 -14 7 0 8 9 11 24 8 21 -4 23
-3 13 14 -13 21 -14 21 -45 6z"/>
<path d="M1860 2350 c0 -5 5 -10 11 -10 5 0 7 5 4 10 -3 6 -8 10 -11 10 -2 0
-4 -4 -4 -10z"/>
<path d="M2055 2244 c-20 -15 -20 -16 4 -12 14 2 26 9 29 16 5 16 -9 15 -33
-4z"/>
<path d="M1417 2193 c-11 -10 -8 -20 8 -27 10 -4 15 1 15 14 0 20 -11 26 -23
13z"/>
<path d="M1810 1886 c0 -8 5 -18 10 -21 6 -3 10 3 10 14 0 12 -4 21 -10 21 -5
0 -10 -6 -10 -14z"/>
<path d="M1847 1893 c-13 -13 -7 -21 13 -16 11 3 20 9 20 14 0 10 -24 12 -33
2z"/>
<path d="M2085 1840 c-3 -5 -1 -10 4 -10 6 0 11 5 11 10 0 6 -2 10 -4 10 -3 0
-8 -4 -11 -10z"/>
<path d="M1910 1820 c0 -5 5 -10 10 -10 6 0 10 5 10 10 0 6 -4 10 -10 10 -5 0
-10 -4 -10 -10z"/>
<path d="M802 1982 c-8 -6 -10 -22 -6 -55 7 -51 11 -54 38 -34 15 11 17 21 11
55 -7 41 -17 50 -43 34z"/>
<path d="M683 1955 c-6 -16 2 -93 10 -101 10 -10 38 10 33 23 -3 8 -6 32 -6
54 0 28 -4 39 -15 39 -9 0 -18 -7 -22 -15z"/>
<path d="M2741 1694 c0 -11 3 -14 6 -6 3 7 2 16 -1 19 -3 4 -6 -2 -5 -13z"/>
<path d="M1978 1483 c7 -3 16 -2 19 1 4 3 -2 6 -13 5 -11 0 -14 -3 -6 -6z"/>
<path d="M879 3673 c-13 -16 -12 -17 4 -4 9 7 17 15 17 17 0 8 -8 3 -21 -13z"/>
<path d="M930 3626 c0 -20 5 -26 21 -26 15 0 20 5 17 22 -5 34 -38 37 -38 4z"/>
<path d="M867 3633 c-9 -9 -9 -63 1 -63 20 1 41 28 35 48 -5 21 -23 29 -36 15z"/>
<path d="M1281 2644 c0 -11 3 -14 6 -6 3 7 2 16 -1 19 -3 4 -6 -2 -5 -13z"/>
<path d="M1220 2645 c0 -5 5 -17 10 -25 5 -8 10 -10 10 -5 0 6 -5 17 -10 25
-5 8 -10 11 -10 5z"/>
<path d="M1240 2641 c0 -6 5 -13 10 -16 6 -3 10 1 10 9 0 9 -4 16 -10 16 -5 0
-10 -4 -10 -9z"/>
<path d="M698 2618 c-20 -30 -32 -98 -18 -98 5 0 10 -12 10 -27 0 -20 3 -24
11 -16 6 6 19 9 28 6 10 -3 12 -2 5 4 -22 17 -42 71 -31 82 8 8 8 11 -1 11
-10 0 -10 5 -2 20 6 11 17 20 25 20 8 0 15 5 15 10 0 18 -28 10 -42 -12z"/>
<path d="M1020 2619 c0 -5 5 -7 10 -4 6 3 10 8 10 11 0 2 -4 4 -10 4 -5 0 -10
-5 -10 -11z"/>
<path d="M1292 2565 c0 -16 2 -22 5 -12 2 9 2 23 0 30 -3 6 -5 -1 -5 -18z"/>
<path d="M1250 2556 c0 -2 8 -10 18 -17 15 -13 16 -12 3 4 -13 16 -21 21 -21
13z"/>
<path d="M1006 2540 c7 -7 19 -7 35 -1 23 9 22 10 -10 10 -24 1 -32 -2 -25 -9z"/>
<path d="M644 2495 c-3 -8 -4 -20 -2 -27 3 -7 7 -1 10 15 6 29 1 36 -8 12z"/>
<path d="M751 2484 c0 -11 3 -14 6 -6 3 7 2 16 -1 19 -3 4 -6 -2 -5 -13z"/>
<path d="M652 2425 c0 -16 2 -22 5 -12 2 9 2 23 0 30 -3 6 -5 -1 -5 -18z"/>
<path d="M741 2404 c0 -11 3 -14 6 -6 3 7 2 16 -1 19 -3 4 -6 -2 -5 -13z"/>
<path d="M328 1503 c6 -2 18 -2 25 0 6 3 1 5 -13 5 -14 0 -19 -2 -12 -5z"/>
<path d="M3018 1458 c-40 -107 -48 -136 -54 -190 -5 -39 -3 -58 4 -58 6 0 13
8 16 18 38 127 56 211 54 241 l-3 36 -17 -47z"/>
<path d="M3111 1428 c-47 -74 -98 -212 -89 -240 3 -7 19 19 37 57 18 39 37 79
42 90 9 21 39 105 39 111 0 12 -17 1 -29 -18z"/>
<path d="M2890 1345 c-5 -14 -13 -51 -16 -81 -6 -44 -3 -58 11 -74 10 -11 22
-17 26 -14 12 7 11 181 -1 189 -6 3 -15 -6 -20 -20z"/>
<path d="M3207 1295 c-15 -14 -36 -25 -45 -25 -21 0 -111 -86 -123 -118 -5
-13 -9 -45 -9 -72 0 -47 -1 -49 -32 -52 -38 -4 -45 -19 -21 -43 14 -15 29 -17
96 -12 80 5 98 15 90 46 -3 12 6 20 29 29 39 15 60 42 87 113 24 63 14 85 -22
51 l-24 -23 8 48 c15 93 12 98 -34 58z m-57 -225 c-6 -11 -15 -20 -20 -20 -14
0 -12 6 6 24 21 22 27 20 14 -4z"/>
<path d="M2785 1140 c-9 -14 -3 -126 6 -142 7 -10 9 -9 9 3 0 9 11 22 25 29
30 16 31 29 5 80 -20 40 -33 49 -45 30z"/>
<path d="M3171 959 l-34 -20 21 -21 20 -21 31 22 c17 12 36 31 41 42 9 17 7
19 -17 19 -15 0 -43 -9 -62 -21z"/>
<path d="M2986 847 c-16 -12 -16 -15 8 -57 28 -50 62 -90 76 -90 21 0 60 24
60 37 0 18 -16 49 -38 73 -9 10 -23 26 -30 34 -15 19 -52 21 -76 3z"/>
<path d="M2886 765 c-43 -41 -57 -65 -38 -65 10 0 102 93 102 103 0 17 -21 4
-64 -38z"/>
</g>
</svg>
