<?xml version="1.0" standalone="no"?>
<!DOCTYPE svg PUBLIC "-//W3C//DTD SVG 20010904//EN"
 "http://www.w3.org/TR/2001/REC-SVG-20010904/DTD/svg10.dtd">
<svg version="1.0" xmlns="http://www.w3.org/2000/svg"
 width="900.000000pt" height="1760.000000pt" viewBox="0 0 900.000000 1760.000000"
 preserveAspectRatio="xMidYMid meet">

<g transform="translate(0.000000,1760.000000) scale(0.100000,-0.100000)"
fill="#000000" stroke="none">
<path d="M4230 17040 c-148 -36 -302 -107 -445 -203 -115 -78 -358 -318 -453
-448 -250 -341 -416 -724 -511 -1174 -56 -268 -79 -400 -137 -785 -7 -52 -18
-124 -24 -160 -5 -36 -15 -99 -20 -140 -6 -41 -15 -97 -20 -125 -53 -268 -80
-383 -139 -585 -105 -362 -217 -792 -301 -1160 -34 -147 -127 -606 -150 -737
-47 -265 -109 -645 -125 -758 -9 -66 -22 -165 -30 -220 -8 -55 -19 -140 -25
-190 -5 -49 -16 -139 -24 -200 -8 -60 -17 -150 -21 -200 -3 -49 -10 -112 -15
-140 -10 -52 -52 -533 -71 -805 -21 -301 -26 -400 -60 -1170 -21 -480 -27
-1151 -21 -2310 10 -1678 9 -4137 -2 -4598 l-9 -392 2919 0 2919 0 0 2788 c0
1533 -4 2873 -8 2977 -20 488 -29 680 -42 935 -19 342 -34 583 -39 618 -2 15
-7 72 -11 127 -8 131 -31 394 -50 570 -8 77 -22 206 -30 286 -8 81 -20 178
-25 215 -6 38 -17 119 -25 179 -27 225 -47 362 -61 430 -8 39 -14 82 -14 97 0
15 -7 63 -15 105 -8 43 -26 148 -40 233 -14 85 -42 236 -62 335 -19 99 -39
200 -44 225 -9 52 -85 398 -99 450 -5 19 -32 127 -60 240 -102 411 -164 620
-319 1090 -127 381 -159 472 -274 761 -85 212 -86 218 -103 360 -9 79 -18 178
-21 219 -2 41 -13 181 -25 310 -11 129 -22 271 -24 315 -10 220 -76 719 -124
945 -86 398 -219 741 -397 1022 -121 192 -238 325 -388 442 -143 112 -270 176
-438 221 -84 22 -114 25 -259 24 -123 0 -181 -5 -238 -19z m392 -394 c184 -36
323 -113 479 -266 119 -117 210 -245 284 -402 126 -268 140 -488 85 -1342 -55
-864 -103 -1100 -297 -1490 -122 -244 -190 -325 -326 -390 -116 -55 -206 -71
-397 -70 -151 0 -172 2 -245 27 -236 79 -369 234 -510 592 -164 418 -268 837
-317 1280 -20 184 -17 698 5 850 71 481 219 798 466 997 135 108 270 170 456
208 110 22 220 25 317 6z"/>
<path d="M4929 16113 c-13 -33 7 -587 22 -615 22 -42 158 -49 260 -13 77 27
83 38 64 131 -26 125 -95 286 -179 418 -66 102 -144 139 -167 79z"/>
<path d="M3839 16082 c-66 -33 -167 -282 -197 -486 -15 -105 -15 -112 2 -138
34 -52 167 -95 244 -77 19 4 44 17 56 29 19 19 21 31 20 163 -1 146 -28 440
-44 482 -14 38 -41 47 -81 27z"/>
<path d="M5058 15234 c-73 -17 -152 -57 -172 -86 -9 -12 -16 -40 -16 -61 0
-32 7 -46 38 -77 101 -102 337 -89 438 22 34 38 36 44 31 91 -3 41 -11 56 -35
78 -55 49 -165 62 -284 33z"/>
<path d="M3632 15196 c-49 -16 -78 -39 -98 -78 -41 -80 10 -163 123 -198 76
-23 129 -25 200 -7 181 47 205 197 42 266 -66 29 -205 37 -267 17z"/>
<path d="M5015 14841 c-86 -22 -97 -57 -25 -79 64 -19 249 -12 284 11 35 24
33 35 -11 54 -42 18 -200 27 -248 14z"/>
<path d="M3633 14790 c-30 -12 -29 -24 5 -49 67 -47 209 -53 290 -12 48 24 54
47 16 61 -32 12 -281 12 -311 0z"/>
<path d="M5066 14610 c-41 -13 -75 -48 -81 -84 -4 -17 3 -149 14 -293 12 -143
21 -331 21 -417 0 -86 4 -156 9 -156 18 0 198 444 236 582 31 115 43 271 23
308 -26 48 -152 82 -222 60z"/>
<path d="M3725 14586 c-42 -16 -65 -39 -65 -67 0 -29 39 -248 65 -365 39 -174
159 -554 175 -554 12 0 55 515 66 796 l7 162 -27 17 c-38 25 -166 31 -221 11z"/>
<path d="M4370 13420 c-195 -4 -240 -8 -266 -22 -89 -49 -78 -126 25 -170 168
-72 543 -76 725 -8 82 31 110 58 109 105 -2 79 -75 108 -258 103 -55 -2 -206
-5 -335 -8z"/>
<path d="M4307 12993 c-39 -6 -32 -33 14 -55 108 -51 298 -49 402 4 42 21 44
39 6 49 -26 8 -375 9 -422 2z"/>
</g>
</svg>
