<?xml version="1.0" standalone="no"?>
<!DOCTYPE svg PUBLIC "-//W3C//DTD SVG 20010904//EN"
 "http://www.w3.org/TR/2001/REC-SVG-20010904/DTD/svg10.dtd">
<svg version="1.0" xmlns="http://www.w3.org/2000/svg"
 width="1200.000000pt" height="576.000000pt" viewBox="0 0 1200.000000 576.000000"
 preserveAspectRatio="xMidYMid meet">

<g transform="translate(0.000000,576.000000) scale(0.100000,-0.100000)"
fill="#000000" stroke="none">
<path d="M3970 5753 c-21 -9 -36 -29 -75 -105 -19 -37 -59 -104 -88 -150 -54
-82 -247 -455 -247 -475 0 -31 -61 -185 -121 -306 -63 -124 -69 -141 -63 -180
4 -23 17 -53 29 -67 40 -44 87 -129 83 -151 -3 -20 -6 -20 -48 16 -25 21 -55
42 -67 48 -13 6 -23 14 -23 19 0 4 -8 8 -18 8 -20 0 -48 -39 -35 -49 4 -4 31
-25 58 -46 66 -52 135 -121 135 -134 0 -21 -26 -10 -80 34 -55 46 -88 61 -112
52 -7 -2 11 -19 41 -38 29 -18 48 -35 43 -37 -14 -4 -263 46 -284 58 -10 5
-38 7 -62 4 -53 -8 -109 11 -104 34 2 8 26 23 53 33 28 11 61 24 75 31 l25 11
-25 7 -25 6 30 18 30 17 -30 -8 c-16 -4 -54 -8 -83 -8 -58 0 -57 2 -67 -81
l-7 -52 -44 -6 c-24 -3 -65 -9 -91 -12 l-46 -7 6 114 c7 149 4 163 -49 200
-61 41 -65 74 -26 187 17 48 38 119 46 157 19 85 92 288 134 370 44 87 166
260 182 260 20 0 35 -77 49 -250 7 -77 17 -165 23 -195 6 -30 10 -120 9 -200
0 -80 4 -173 11 -207 15 -82 -2 -130 -55 -155 -20 -10 -54 -26 -74 -36 -29
-13 -38 -23 -38 -42 0 -28 14 -30 95 -13 l45 10 -34 9 -34 10 52 33 c69 45 85
77 77 155 -4 34 -9 147 -12 251 -3 105 -12 237 -20 295 -8 58 -19 146 -24 195
-19 176 -48 219 -111 159 -16 -15 -29 -32 -29 -36 0 -10 -35 -62 -66 -98 -12
-14 -38 -56 -58 -95 -49 -96 -163 -402 -176 -474 -6 -33 -20 -86 -30 -117 -35
-100 -21 -155 50 -195 37 -21 52 -50 33 -62 -5 -3 -39 10 -78 29 -69 33 -112
44 -100 24 4 -6 22 -17 42 -25 35 -15 35 -16 18 -34 -16 -19 -16 -20 22 -26
82 -14 94 -17 90 -28 -2 -7 -22 -15 -45 -18 -59 -8 -64 -19 -9 -19 35 0 47 -4
47 -15 0 -8 -12 -17 -27 -21 -54 -12 -63 -16 -58 -24 3 -4 21 -3 40 3 38 11
51 6 42 -17 -7 -17 -137 -86 -162 -86 -10 0 -15 10 -15 30 0 25 -5 31 -38 39
-34 10 -40 17 -66 76 -20 46 -42 77 -71 102 -25 20 -61 68 -86 112 -62 112
-85 139 -138 165 -64 33 -70 42 -80 123 -5 38 -18 88 -30 111 -11 23 -21 46
-21 51 0 6 -13 40 -30 76 -16 36 -30 69 -30 74 0 5 -7 11 -15 15 -24 9 -43
-33 -56 -126 -7 -49 -15 -88 -19 -88 -4 0 -17 24 -29 53 -50 119 -64 126 -81
41 -11 -53 -10 -115 5 -387 4 -68 2 -85 -19 -125 -32 -64 -40 -135 -27 -239 8
-55 9 -111 3 -149 -10 -73 5 -158 40 -233 l25 -50 -21 -24 c-12 -14 -33 -28
-48 -31 -22 -5 -27 -2 -30 16 -3 20 -9 15 -39 -32 -19 -30 -57 -95 -84 -145
-26 -49 -60 -113 -76 -141 -15 -29 -34 -63 -43 -75 -28 -43 -63 -153 -81 -249
-23 -128 -35 -142 -162 -181 -91 -28 -160 -64 -174 -91 -7 -12 -12 -47 -11
-78 0 -35 -9 -81 -25 -127 -27 -76 -40 -86 -83 -63 -11 6 -27 6 -42 1 -22 -9
-21 -10 17 -25 22 -9 50 -21 63 -26 17 -8 22 -18 22 -49 0 -38 -1 -39 -48 -50
-115 -29 -210 -77 -190 -97 3 -2 53 14 112 38 83 32 109 39 115 29 13 -20 -16
-104 -44 -126 -33 -27 -32 -33 7 -37 29 -3 32 -7 49 -68 25 -90 25 -97 -13
-105 -61 -13 -88 -33 -87 -63 3 -41 -48 -119 -127 -197 -39 -39 -83 -89 -96
-110 -36 -56 -206 -215 -230 -215 -5 0 -8 -9 -5 -19 3 -13 -9 -32 -39 -62 -32
-31 -44 -51 -44 -72 0 -18 -11 -42 -30 -64 -16 -18 -30 -45 -30 -59 0 -14 -11
-42 -25 -62 -14 -20 -25 -44 -25 -54 0 -9 -11 -30 -25 -46 -50 -60 -85 -141
-85 -197 0 -30 -5 -57 -10 -60 -21 -13 -44 -82 -45 -135 0 -30 -4 -73 -9 -94
-6 -25 -5 -37 1 -33 5 3 15 32 22 64 7 32 16 72 22 89 5 17 9 36 9 43 0 7 16
32 35 56 22 26 32 46 25 50 -5 3 -10 10 -10 14 0 9 132 61 157 61 20 0 66 -40
96 -84 24 -34 60 -35 75 -1 7 16 12 81 12 166 0 151 -13 209 -47 209 -18 0
-67 -23 -130 -61 l-31 -20 11 38 c6 21 24 53 41 71 26 28 27 32 11 32 -15 0
-5 14 38 58 54 54 70 82 47 82 -15 0 106 146 147 178 20 15 68 54 107 88 39
33 98 75 131 93 72 39 239 85 243 67 5 -21 96 -48 135 -41 27 5 46 1 83 -19
27 -14 54 -26 61 -26 7 0 47 -28 90 -63 81 -66 192 -137 213 -137 26 0 0 26
-71 69 -41 25 -102 68 -135 95 -65 53 -152 94 -226 106 -26 5 -64 17 -84 26
-64 30 -194 15 -292 -35 -34 -17 -68 -31 -76 -31 -23 0 -9 24 24 43 30 18 129
135 169 200 15 25 33 40 51 44 27 5 29 8 26 47 -2 22 -13 68 -25 100 -23 64
-26 121 -11 177 6 20 12 74 14 120 4 90 21 162 42 180 9 7 11 25 7 54 -8 59 4
113 27 125 43 23 150 -63 150 -121 0 -22 5 -29 20 -29 46 0 11 94 -54 141 -25
19 -44 39 -42 44 4 15 37 19 46 5 5 -8 14 -8 34 2 24 10 29 10 37 -5 7 -12 23
-17 54 -17 46 0 54 -7 33 -28 -8 -8 -5 -14 15 -21 15 -6 27 -17 27 -25 0 -13
29 -31 37 -22 2 2 0 12 -5 23 -5 10 -17 35 -27 56 -11 23 -31 44 -52 54 -18 8
-33 19 -33 25 0 16 49 58 68 58 15 0 21 13 31 71 7 38 10 73 7 76 -3 3 -8 0
-10 -8 -13 -40 -14 -42 -15 -19 -2 62 35 162 126 342 56 112 98 186 101 176 6
-28 16 -21 34 22 15 35 20 40 41 35 20 -6 30 1 61 44 38 54 57 61 95 35 22
-16 24 -15 94 55 40 40 83 74 97 77 14 3 63 24 110 48 47 24 103 49 125 56 22
7 69 25 105 40 89 39 202 67 350 89 143 21 285 17 481 -14 110 -17 116 -20
133 -48 16 -29 16 -31 0 -40 -28 -16 4 -27 83 -27 39 0 75 -4 78 -10 3 -5 10
-10 14 -10 10 0 28 98 36 198 6 80 0 97 -75 213 -22 34 -40 67 -40 73 0 6 20
54 44 106 60 132 84 191 113 290 13 47 52 141 84 210 58 120 287 526 318 563
47 55 72 -35 111 -398 5 -44 13 -111 19 -150 22 -153 31 -383 23 -593 -10
-238 -16 -259 -83 -275 -19 -5 -59 -15 -89 -24 -125 -36 -133 -44 -144 -131
-4 -29 -18 -84 -33 -122 -29 -80 -25 -122 7 -82 24 29 40 25 136 -34 39 -25
100 -54 135 -66 72 -24 141 -60 147 -76 2 -6 -7 -12 -20 -14 -37 -5 -25 -20
47 -59 37 -21 82 -51 99 -69 l31 -32 -41 7 c-63 10 -60 -8 6 -38 43 -20 76
-46 122 -97 70 -79 99 -95 41 -22 -21 26 -50 70 -63 97 -14 28 -53 78 -88 112
-35 34 -62 69 -60 77 3 16 -86 98 -131 120 -14 7 -41 16 -58 19 -60 12 -203
87 -203 107 0 4 20 5 45 2 58 -6 60 13 3 28 -113 28 -119 53 -9 32 121 -23
137 -5 23 26 -59 16 -89 29 -83 35 15 15 121 -2 196 -33 79 -32 110 -25 61 14
-38 31 -88 45 -186 53 -44 3 -80 9 -80 13 0 11 66 20 149 20 112 0 75 19 -44
22 l-100 3 68 33 c38 18 83 35 100 39 47 9 80 31 101 66 36 62 39 627 5 837
-6 36 -15 117 -19 181 -16 218 -65 412 -105 416 -11 1 -27 -1 -35 -4z m-2017
-758 c20 -49 39 -116 42 -148 9 -69 33 -102 112 -153 30 -19 62 -48 71 -65 59
-108 100 -168 132 -196 24 -20 48 -57 65 -97 21 -49 34 -67 56 -76 34 -14 37
-39 10 -64 -11 -10 -68 -35 -128 -57 -59 -21 -126 -48 -148 -58 -22 -11 -80
-38 -128 -60 -66 -30 -103 -56 -147 -100 -53 -52 -61 -57 -81 -47 -12 6 -38
40 -58 76 l-36 65 -3 148 c-4 140 -3 150 17 168 29 28 30 113 1 131 -27 17
-25 29 11 93 25 44 28 58 19 75 -6 11 -8 35 -4 55 3 19 -1 72 -11 122 -13 66
-15 105 -8 156 4 37 12 68 17 68 5 0 22 -30 39 -68 29 -66 30 -70 24 -191 -4
-93 -3 -122 6 -119 8 2 16 55 24 146 6 79 14 155 18 170 4 14 9 48 11 74 7 96
25 85 77 -48z m-237 -595 c-1 -22 -5 -40 -11 -41 -13 0 -18 27 -11 57 10 38
22 28 22 -16z m1289 -50 c-3 -5 -17 -10 -31 -10 -14 0 -22 4 -19 10 3 6 17 10
31 10 14 0 22 -4 19 -10z m413 -41 c55 -46 79 -76 69 -86 -2 -2 -37 28 -77 67
-85 81 -80 93 8 19z m-738 -69 c0 -5 -7 -10 -15 -10 -8 0 -15 5 -15 10 0 6 7
10 15 10 8 0 15 -4 15 -10z m-2277 -3123 c4 -62 10 -134 13 -160 9 -60 -6 -61
-40 -3 -50 86 -65 91 -161 50 -88 -37 -95 -39 -95 -20 0 53 80 141 194 213 81
51 82 50 89 -80z"/>
<path d="M1810 4483 c-18 -23 -21 -36 -16 -72 8 -58 20 -71 67 -71 33 0 42 5
59 32 51 85 -50 187 -110 111z m90 -22 c16 -30 12 -76 -8 -95 -18 -15 -21 -15
-45 5 -29 22 -37 75 -15 97 18 18 56 14 68 -7z"/>
<path d="M1847 4443 c-12 -12 -7 -44 8 -49 22 -9 33 3 27 31 -4 24 -21 33 -35
18z"/>
<path d="M3375 4050 c-24 -6 -17 -8 33 -9 35 0 62 3 62 9 0 11 -50 11 -95 0z"/>
<path d="M4413 3443 c-16 -6 -17 -33 -3 -33 6 0 33 -21 61 -47 48 -44 49 -47
34 -70 -15 -22 -14 -24 9 -33 13 -5 45 -38 71 -75 40 -55 46 -71 41 -97 -5
-25 0 -38 28 -72 21 -26 44 -74 61 -126 15 -47 42 -125 60 -175 19 -49 37
-101 41 -115 4 -14 20 -53 35 -88 16 -34 41 -116 56 -182 19 -81 32 -120 42
-120 9 0 12 8 8 23 -30 138 -51 217 -71 269 -14 35 -45 115 -69 178 -25 63
-57 155 -72 204 -15 49 -38 104 -51 122 -17 22 -23 39 -19 56 4 17 -5 40 -32
83 -22 33 -54 87 -73 120 -67 120 -127 188 -157 178z"/>
<path d="M1964 3280 c-86 -20 -131 -79 -154 -200 -6 -36 -17 -75 -23 -88 -8
-16 -8 -25 1 -34 7 -7 12 -28 12 -48 0 -49 28 -97 79 -134 37 -27 51 -31 104
-31 87 1 164 34 236 101 32 30 65 54 73 54 26 0 28 12 4 31 -18 14 -24 32 -29
78 -8 75 -51 183 -87 219 -28 28 -119 63 -161 61 -13 -1 -38 -4 -55 -9z m143
-49 c64 -30 119 -136 130 -256 6 -72 -5 -91 -97 -152 -75 -51 -135 -62 -214
-39 -80 24 -91 45 -91 171 1 170 35 250 120 280 55 19 102 18 152 -4z"/>
<path d="M1884 3065 c-19 -30 -22 -118 -4 -140 16 -19 54 -19 70 0 16 20 17
130 0 150 -19 22 -47 18 -66 -10z"/>
<path d="M1411 3187 c-16 -42 -24 -97 -14 -97 6 0 15 25 22 56 13 59 8 84 -8
41z"/>
<path d="M1435 3121 c-6 -11 9 -23 19 -14 9 9 7 23 -3 23 -6 0 -12 -4 -16 -9z"/>
<path d="M1475 3100 c3 -5 10 -10 16 -10 5 0 9 5 9 10 0 6 -7 10 -16 10 -8 0
-12 -4 -9 -10z"/>
<path d="M1520 3080 c0 -5 7 -10 16 -10 8 0 12 5 9 10 -3 6 -10 10 -16 10 -5
0 -9 -4 -9 -10z"/>
<path d="M1058 2829 c-21 -12 -24 -45 -5 -52 21 -8 68 4 74 19 12 33 -33 54
-69 33z"/>
<path d="M1927 2477 c-3 -8 3 -23 13 -32 20 -18 27 -19 275 -30 194 -9 491
-40 610 -64 117 -24 158 -26 153 -8 -5 14 -113 40 -238 57 -47 6 -132 20 -190
30 -58 11 -184 26 -280 34 -346 30 -337 29 -343 13z m116 -14 c-13 -2 -35 -2
-50 0 -16 2 -5 4 22 4 28 0 40 -2 28 -4z m54 1 c-3 -3 -12 -4 -19 -1 -8 3 -5
6 6 6 11 1 17 -2 13 -5z"/>
<path d="M1698 2393 c-32 -8 -19 -20 28 -27 51 -7 157 -36 152 -41 -2 -2 -36
1 -76 6 -41 6 -83 9 -95 7 -21 -4 -21 -4 3 -15 34 -15 319 -67 326 -60 14 13
-10 24 -78 37 -40 7 -67 15 -59 18 15 5 135 -14 189 -30 31 -9 32 -11 18 -27
-15 -17 -11 -19 71 -41 49 -12 185 -51 303 -87 366 -110 500 -133 500 -85 0
27 -48 49 -172 81 -62 16 -151 42 -198 59 -47 16 -150 44 -230 61 -150 33
-436 99 -574 132 -44 10 -82 18 -85 18 -3 -1 -14 -3 -23 -6z m653 -172 c35
-11 80 -22 99 -26 19 -3 91 -24 160 -45 69 -21 159 -46 200 -55 41 -10 86 -23
100 -31 l25 -13 -31 -1 c-17 0 -57 9 -90 20 -32 12 -92 28 -133 36 -119 25
-445 134 -399 134 3 0 34 -9 69 -19z"/>
<path d="M8973 2363 c-27 -5 -27 -1 -4 -88 l19 -70 38 2 c20 2 39 5 42 7 5 6
-13 91 -27 129 -10 27 -20 29 -68 20z"/>
<path d="M8808 2353 c-21 -5 -21 -2 -5 -49 8 -22 17 -54 20 -71 l7 -33 -335 0
-335 0 0 -60 0 -60 330 0 c198 0 330 -4 330 -9 0 -26 -32 -154 -50 -204 -35
-93 -70 -148 -139 -218 -74 -74 -184 -134 -306 -165 -38 -9 -71 -18 -73 -20
-8 -5 61 -114 72 -114 26 0 159 50 228 87 51 26 99 63 159 123 75 75 93 100
137 191 57 118 89 234 98 362 7 81 6 87 -12 87 -15 0 -19 8 -21 38 -1 20 -8
55 -16 77 -12 34 -19 40 -43 42 -16 0 -37 -1 -46 -4z"/>
<path d="M6048 2343 c-23 -6 -23 -9 5 -99 l22 -75 35 6 c59 11 59 12 19 120
-21 56 -30 62 -81 48z"/>
<path d="M7973 2343 c-28 -5 -28 -1 1 -93 24 -73 25 -75 56 -73 54 2 57 15 30
96 -26 75 -33 81 -87 70z"/>
<path d="M10145 2338 c-2 -7 -11 -42 -21 -78 -25 -96 -95 -236 -153 -308 -28
-34 -51 -66 -51 -71 0 -5 10 -30 21 -57 l22 -48 48 53 49 52 0 -295 0 -296 55
0 55 0 3 403 3 402 42 115 c46 127 48 120 -31 134 -27 5 -38 3 -42 -6z"/>
<path d="M10376 2288 c-23 -83 -95 -230 -146 -297 l-42 -54 30 -41 c17 -22 35
-41 41 -41 13 0 97 114 131 178 18 35 31 47 47 47 l23 0 0 -395 0 -395 55 0
55 0 0 125 0 125 160 0 160 0 0 55 0 55 -160 0 -160 0 0 80 0 80 160 0 160 0
0 55 0 55 -160 0 -160 0 0 80 0 80 175 0 175 0 0 55 0 55 -225 0 c-124 0 -225
3 -225 8 0 4 9 36 20 71 11 35 19 65 18 67 -2 1 -28 5 -59 9 l-55 7 -18 -64z"/>
<path d="M5920 2333 c-14 -3 -29 -8 -33 -13 -6 -5 26 -155 38 -177 0 -1 20 3
43 9 49 12 50 16 19 112 -23 73 -26 76 -67 69z"/>
<path d="M7832 2329 c-25 -8 -32 -14 -28 -26 4 -9 14 -46 23 -82 9 -36 19 -69
22 -73 12 -14 81 12 81 30 0 33 -43 162 -54 161 -6 0 -26 -5 -44 -10z"/>
<path d="M11114 2307 c-2 -7 -3 -98 -2 -202 l3 -190 358 -3 357 -2 0 205 0
205 -355 0 c-280 0 -357 -3 -361 -13z m616 -192 l0 -95 -255 0 -255 0 0 95 0
95 255 0 255 0 0 -95z"/>
<path d="M4681 2289 c-28 -73 -64 -144 -99 -196 -45 -67 -144 -162 -203 -196
-21 -12 -39 -24 -38 -27 0 -3 17 -25 38 -49 l39 -44 33 23 c75 52 129 103 185
175 l59 75 183 0 182 0 -6 -27 c-19 -81 -70 -199 -107 -248 -15 -20 -16 -20
-44 6 -34 33 -140 101 -183 119 -31 13 -33 12 -72 -27 l-40 -40 74 -46 c40
-25 94 -64 120 -85 l48 -40 -41 -37 c-89 -81 -253 -166 -348 -181 -23 -4 -44
-10 -46 -15 -5 -7 51 -109 60 -109 20 0 177 60 235 91 178 93 295 212 385 394
50 101 99 250 107 330 l3 30 -217 3 c-120 1 -218 4 -218 6 0 3 9 25 20 51 11
26 20 50 20 55 0 4 -17 11 -37 15 -21 3 -48 9 -60 12 -17 4 -25 -1 -32 -18z"/>
<path d="M6727 2303 c-4 -3 -7 -46 -7 -95 l0 -88 -255 0 -255 0 0 -60 0 -60
220 0 c121 0 220 -4 220 -8 0 -16 -104 -159 -168 -231 -36 -40 -110 -109 -164
-154 -54 -44 -98 -84 -98 -89 0 -10 58 -98 65 -98 11 0 129 101 209 179 88 86
199 223 211 261 3 11 11 20 17 20 7 0 9 -86 6 -270 l-3 -270 57 0 58 0 2 328
3 327 118 3 117 3 0 59 0 60 -120 0 -120 0 0 95 0 95 -53 0 c-30 0 -57 -3 -60
-7z"/>
<path d="M9708 1988 c-3 -284 -4 -295 -27 -346 -31 -70 -96 -125 -174 -151
-68 -22 -172 -41 -229 -41 -43 0 -44 -3 -19 -75 l18 -50 44 3 c85 6 228 40
281 67 111 55 194 167 218 295 6 29 10 174 10 321 l0 269 -59 0 -60 0 -3 -292z"/>
<path d="M5360 2266 c0 -2 -11 -28 -24 -59 l-25 -55 77 -27 c42 -15 108 -43
146 -62 37 -19 69 -33 71 -31 8 9 45 103 45 113 0 7 -35 28 -77 45 -83 35
-213 81 -213 76z"/>
<path d="M7261 2214 c-13 -31 -20 -59 -15 -63 5 -4 38 -18 74 -31 36 -12 98
-38 138 -56 39 -18 72 -31 72 -30 0 2 11 29 25 60 l25 56 -42 21 c-35 18 -241
99 -251 99 -2 0 -14 -25 -26 -56z"/>
<path d="M9182 1958 l3 -303 58 -3 57 -3 0 306 0 305 -60 0 -60 0 2 -302z"/>
<path d="M3470 2190 l0 -60 270 0 c195 0 270 -3 270 -11 0 -24 -89 -199 -139
-273 -100 -148 -265 -298 -397 -362 -33 -15 -60 -29 -62 -30 -5 -3 69 -104 77
-104 15 0 159 94 223 146 36 29 93 83 125 119 32 36 61 65 66 65 13 0 174
-159 249 -246 39 -46 75 -84 78 -84 4 0 26 23 50 51 l43 51 -94 94 c-52 52
-131 127 -175 166 l-82 71 41 66 c67 110 157 331 157 387 0 12 -51 14 -350 14
l-350 0 0 -60z"/>
<path d="M1022 2203 c-19 -8 -4 -23 24 -23 16 0 24 5 22 13 -5 13 -26 18 -46
10z"/>
<path d="M1897 2093 c-13 -12 -7 -40 11 -55 9 -8 96 -47 192 -87 265 -109 319
-132 389 -163 35 -17 80 -32 100 -36 34 -5 35 -4 21 13 -47 57 -219 157 -408
237 -195 83 -287 110 -305 91z m119 -47 c162 -56 508 -226 460 -226 -3 0 -43
18 -88 40 -46 22 -150 66 -231 100 -162 66 -251 109 -226 110 8 0 47 -11 85
-24z"/>
<path d="M5995 2087 c-69 -196 -101 -264 -170 -355 -29 -38 -76 -83 -117 -112
-92 -65 -180 -94 -381 -125 -34 -5 -38 -9 -34 -28 3 -12 9 -39 13 -60 3 -21
12 -41 19 -44 20 -7 172 24 254 52 200 68 334 190 439 400 32 66 92 214 92
230 0 5 -50 32 -85 45 -19 7 -27 6 -30 -3z"/>
<path d="M7899 2033 c-51 -154 -130 -293 -211 -370 -84 -80 -205 -131 -377
-159 -53 -8 -97 -16 -98 -18 -1 -1 1 -18 6 -37 5 -19 12 -47 16 -63 6 -28 7
-28 58 -22 99 13 213 47 307 93 81 39 108 59 180 132 92 93 146 179 205 322
55 137 55 134 -4 163 -28 14 -52 26 -55 26 -2 0 -14 -30 -27 -67z"/>
<path d="M5252 1958 c-12 -29 -19 -55 -14 -58 4 -4 30 -15 57 -25 28 -10 90
-37 139 -61 49 -25 90 -43 91 -42 6 11 45 121 43 124 -19 19 -254 114 -282
114 -6 0 -22 -23 -34 -52z"/>
<path d="M7181 1969 c-11 -24 -21 -50 -23 -56 -2 -8 39 -30 104 -57 60 -24
124 -53 144 -65 19 -12 37 -21 38 -21 2 0 14 28 27 61 27 75 31 71 -115 128
-157 61 -153 61 -175 10z"/>
<path d="M11010 1560 l0 -260 50 0 c47 0 50 2 50 25 l0 25 105 0 105 0 0 -25
c0 -23 3 -25 50 -25 l50 0 0 260 0 260 -205 0 -205 0 0 -260z m310 25 l0 -136
-102 3 -103 3 -3 133 -3 132 106 0 105 0 0 -135z"/>
<path d="M11500 1560 l0 -260 50 0 c47 0 50 2 50 25 l0 25 115 0 115 0 0 -25
c0 -23 3 -25 50 -25 l50 0 0 260 0 260 -215 0 -215 0 0 -260z m328 28 l-3
-133 -110 0 -110 0 -3 133 -3 132 116 0 116 0 -3 -132z"/>
<path d="M1570 1581 c0 -12 116 -103 159 -125 17 -10 40 -29 49 -45 18 -30 72
-95 139 -170 63 -71 110 -155 118 -212 4 -28 22 -78 40 -113 18 -35 36 -81 40
-104 4 -24 20 -56 40 -79 32 -38 34 -44 39 -139 3 -54 6 -118 6 -141 1 -23 7
-46 15 -53 9 -7 11 -24 8 -50 -6 -44 3 -53 16 -17 6 15 4 69 -5 143 -8 65 -12
143 -8 173 6 52 5 54 -35 95 -32 33 -43 53 -51 96 -6 30 -19 67 -30 83 -12 15
-29 61 -39 102 -22 88 -55 142 -171 285 -47 58 -91 117 -97 132 -8 17 -25 30
-50 38 -21 7 -47 23 -58 36 -11 13 -42 35 -68 49 -54 28 -57 29 -57 16z"/>
<path d="M5522 1133 c1186 -2 3130 -2 4320 0 1190 1 219 2 -2157 2 -2376 0
-3349 -1 -2163 -2z"/>
<path d="M889 925 c-19 -14 -48 -32 -66 -40 -39 -18 -196 -172 -191 -187 9
-27 37 -32 112 -19 46 7 82 9 91 3 35 -19 109 -100 137 -149 34 -60 50 -76 75
-71 15 3 19 18 25 93 11 143 -21 301 -70 347 -24 23 -64 48 -75 48 -2 0 -19
-11 -38 -25z m90 -45 c39 -43 64 -129 69 -237 8 -159 -11 -181 -68 -80 -60
106 -152 177 -205 157 -32 -12 -75 -13 -75 -1 0 21 215 191 242 191 5 0 22
-14 37 -30z"/>
<path d="M4594 905 c-101 -50 -141 -160 -95 -261 23 -50 59 -78 176 -137 50
-25 100 -56 113 -69 45 -49 49 -120 10 -186 -63 -105 -231 -69 -254 54 -5 26
-11 33 -23 30 -9 -2 -29 -7 -45 -11 -25 -5 -28 -9 -22 -36 17 -88 93 -169 176
-189 137 -33 274 71 287 217 12 130 -36 198 -191 273 -116 55 -148 83 -149
133 -2 64 57 117 130 117 32 0 91 -33 99 -55 8 -20 20 -19 55 6 36 25 36 29 2
70 -60 71 -177 90 -269 44z"/>
<path d="M7262 911 c-191 -71 -302 -281 -258 -489 19 -91 56 -160 116 -216
176 -164 436 -143 577 48 122 166 108 405 -33 556 -28 30 -73 63 -113 83 -56
27 -78 32 -151 35 -64 2 -98 -2 -138 -17z m218 -87 c73 -22 159 -107 186 -184
93 -271 -152 -538 -393 -426 -110 52 -173 148 -181 278 -14 237 172 396 388
332z"/>
<path d="M8367 906 c-186 -78 -290 -288 -243 -489 21 -89 48 -139 107 -202
117 -124 274 -153 426 -80 110 54 193 201 193 342 l0 43 -150 0 -150 0 0 -45
0 -45 95 0 95 0 0 -27 c-1 -68 -78 -167 -156 -199 -18 -8 -60 -14 -92 -14
-105 0 -190 59 -249 173 -38 74 -44 198 -14 278 29 77 80 132 156 170 59 29
72 31 132 27 80 -6 138 -32 192 -88 l38 -39 33 34 34 35 -46 44 c-74 70 -145
100 -252 103 -78 3 -99 0 -149 -21z"/>
<path d="M4957 914 c-4 -4 -7 -25 -7 -46 l0 -38 90 0 90 0 0 -360 0 -360 50 0
50 0 0 360 0 360 91 0 90 0 -3 43 -3 42 -221 3 c-121 1 -223 -1 -227 -4z"/>
<path d="M5472 608 l3 -313 27 -51 c51 -98 131 -147 239 -148 52 0 77 6 122
28 62 30 94 65 129 142 22 47 23 61 26 352 l4 303 -49 -3 -48 -3 -5 -300 c-5
-330 -6 -335 -70 -389 -39 -32 -67 -40 -131 -34 -64 6 -97 31 -129 94 -25 48
-25 52 -28 342 l-3 292 -45 0 -45 0 3 -312z"/>
<path d="M6140 516 l0 -406 103 0 c223 1 352 60 424 197 103 192 48 441 -117
541 -81 48 -141 63 -282 69 l-128 6 0 -407z m235 298 c96 -11 186 -78 225
-166 24 -56 29 -185 9 -246 -40 -121 -145 -189 -302 -194 l-72 -3 -3 300 c-1
165 0 305 2 312 5 12 15 12 141 -3z"/>
<path d="M6810 515 l0 -405 45 0 45 0 0 405 0 405 -45 0 -45 0 0 -405z"/>
<path d="M8935 907 c-3 -6 -4 -188 -3 -402 l3 -390 48 -3 47 -3 0 195 0 196
180 0 180 0 0 -195 0 -195 45 0 45 0 0 405 0 405 -45 0 -45 0 0 -165 0 -165
-180 0 -180 0 0 165 0 165 -45 0 c-27 0 -48 -5 -50 -13z"/>
<path d="M9615 907 c-3 -6 -4 -188 -3 -402 l3 -390 48 -3 47 -3 0 405 0 406
-45 0 c-27 0 -48 -5 -50 -13z"/>
<path d="M9840 515 l0 -407 133 4 c105 3 141 8 177 24 135 61 171 229 74 343
-18 21 -46 44 -62 50 l-29 12 28 30 c69 74 64 209 -10 279 -47 45 -93 60 -213
67 l-98 6 0 -408z m230 290 c34 -17 50 -54 50 -113 0 -87 -50 -132 -147 -132
l-33 0 0 136 0 137 52 -7 c28 -4 63 -13 78 -21z m49 -349 c44 -23 63 -58 63
-116 0 -91 -48 -130 -169 -138 l-73 -5 0 143 0 143 74 -6 c40 -3 88 -13 105
-21z"/>
<path d="M10385 907 c-3 -6 -4 -188 -3 -402 l3 -390 163 -3 162 -2 0 45 0 45
-115 0 -115 0 0 360 0 360 -45 0 c-27 0 -48 -5 -50 -13z"/>
<path d="M10770 515 l0 -405 45 0 45 0 0 405 0 405 -45 0 -45 0 0 -405z"/>
<path d="M1579 360 c-19 -10 -50 -36 -68 -57 -17 -21 -52 -62 -76 -91 -71 -83
-63 -94 69 -103 l89 -5 46 -52 c44 -50 48 -52 95 -52 l49 0 -7 42 c-3 24 -9
79 -13 123 -8 100 -21 132 -72 178 -46 42 -61 44 -112 17z m98 -35 c27 -19 50
-90 58 -185 3 -41 9 -85 12 -98 9 -39 -28 -26 -87 33 -46 46 -64 56 -108 65
-28 5 -65 7 -82 4 -59 -12 -47 19 40 103 103 98 124 108 167 78z"/>
</g>
</svg>
